G04 #@! TF.GenerationSoftware,KiCad,Pcbnew,8.0.2*
G04 #@! TF.CreationDate,2024-05-01T23:13:20+02:00*
G04 #@! TF.ProjectId,PetRockPanel,50657452-6f63-46b5-9061-6e656c2e6b69,rev?*
G04 #@! TF.SameCoordinates,Original*
G04 #@! TF.FileFunction,Copper,L2,Bot*
G04 #@! TF.FilePolarity,Positive*
%FSLAX46Y46*%
G04 Gerber Fmt 4.6, Leading zero omitted, Abs format (unit mm)*
G04 Created by KiCad (PCBNEW 8.0.2) date 2024-05-01 23:13:20*
%MOMM*%
%LPD*%
G01*
G04 APERTURE LIST*
G04 #@! TA.AperFunction,EtchedComponent*
%ADD10C,0.000000*%
G04 #@! TD*
G04 #@! TA.AperFunction,ComponentPad*
%ADD11C,4.000000*%
G04 #@! TD*
G04 APERTURE END LIST*
D10*
G04 #@! TA.AperFunction,EtchedComponent*
G36*
X86205083Y-40614668D02*
G01*
X86205083Y-43970061D01*
X81194473Y-43980971D01*
X80524219Y-43982399D01*
X79915162Y-43983691D01*
X79363951Y-43984944D01*
X78867232Y-43986253D01*
X78421654Y-43987715D01*
X78023866Y-43989428D01*
X77670516Y-43991486D01*
X77358252Y-43993987D01*
X77083722Y-43997027D01*
X76843574Y-44000702D01*
X76634457Y-44005109D01*
X76453018Y-44010345D01*
X76295907Y-44016505D01*
X76159771Y-44023686D01*
X76041258Y-44031985D01*
X75937016Y-44041498D01*
X75843695Y-44052321D01*
X75757941Y-44064551D01*
X75676404Y-44078285D01*
X75595731Y-44093618D01*
X75512570Y-44110647D01*
X75423571Y-44129469D01*
X75327325Y-44149774D01*
X74683726Y-44316757D01*
X74057678Y-44543612D01*
X73453390Y-44827061D01*
X72875067Y-45163821D01*
X72326918Y-45550612D01*
X71813150Y-45984154D01*
X71337969Y-46461165D01*
X70905583Y-46978364D01*
X70520198Y-47532470D01*
X70186024Y-48120204D01*
X70153855Y-48184180D01*
X69882172Y-48791039D01*
X69670058Y-49400752D01*
X69515109Y-50022890D01*
X69414924Y-50667026D01*
X69368043Y-51314803D01*
X69374390Y-52011501D01*
X69443445Y-52694781D01*
X69575664Y-53367127D01*
X69771507Y-54031029D01*
X69956892Y-54516512D01*
X70250280Y-55134742D01*
X70596529Y-55718888D01*
X70992138Y-56266321D01*
X71433601Y-56774413D01*
X71917417Y-57240537D01*
X72440082Y-57662063D01*
X72998092Y-58036364D01*
X73587945Y-58360811D01*
X74206136Y-58632777D01*
X74849162Y-58849632D01*
X75513521Y-59008750D01*
X76056682Y-59092550D01*
X76121769Y-59099285D01*
X76198454Y-59105389D01*
X76289917Y-59110893D01*
X76399344Y-59115825D01*
X76529915Y-59120216D01*
X76684815Y-59124093D01*
X76867226Y-59127488D01*
X77080332Y-59130429D01*
X77327314Y-59132945D01*
X77611357Y-59135067D01*
X77935643Y-59136823D01*
X78303355Y-59138243D01*
X78717676Y-59139356D01*
X79181788Y-59140192D01*
X79698876Y-59140780D01*
X80272121Y-59141149D01*
X80904708Y-59141330D01*
X81339510Y-59141359D01*
X86205083Y-59141359D01*
X86205083Y-112491042D01*
X86205083Y-165840724D01*
X76200000Y-165840724D01*
X66194918Y-165840724D01*
X66194918Y-139940470D01*
X80904922Y-139940470D01*
X80936639Y-140320756D01*
X81026869Y-140680939D01*
X81171410Y-141016196D01*
X81366063Y-141321705D01*
X81606626Y-141592644D01*
X81888897Y-141824189D01*
X82208677Y-142011519D01*
X82561763Y-142149811D01*
X82896951Y-142227156D01*
X83015147Y-142236270D01*
X83175772Y-142235704D01*
X83357653Y-142226818D01*
X83539623Y-142210974D01*
X83700509Y-142189532D01*
X83800635Y-142169049D01*
X84125809Y-142053625D01*
X84441923Y-141883901D01*
X84733517Y-141669807D01*
X84985129Y-141421273D01*
X85009234Y-141392821D01*
X85123705Y-141232579D01*
X85238963Y-141032442D01*
X85344123Y-140814843D01*
X85428301Y-140602212D01*
X85479058Y-140424587D01*
X85514695Y-140166401D01*
X85523940Y-139881146D01*
X85506791Y-139600658D01*
X85479058Y-139424079D01*
X85442970Y-139293456D01*
X85385687Y-139132356D01*
X85316921Y-138966968D01*
X85281609Y-138891550D01*
X85206596Y-138746373D01*
X85133907Y-138627936D01*
X85049851Y-138517794D01*
X84940736Y-138397503D01*
X84836218Y-138291516D01*
X84688368Y-138149517D01*
X84563957Y-138043749D01*
X84445156Y-137960807D01*
X84314139Y-137887287D01*
X84267709Y-137864045D01*
X84026250Y-137755873D01*
X83806699Y-137683065D01*
X83584695Y-137640013D01*
X83335877Y-137621104D01*
X83203558Y-137618963D01*
X83013401Y-137621595D01*
X82865324Y-137632260D01*
X82737077Y-137653655D01*
X82606414Y-137688476D01*
X82591157Y-137693173D01*
X82212846Y-137841303D01*
X81877601Y-138036461D01*
X81586849Y-138277458D01*
X81342014Y-138563104D01*
X81144521Y-138892209D01*
X81136932Y-138907687D01*
X81014518Y-139202584D01*
X80939788Y-139494004D01*
X80907307Y-139806130D01*
X80904922Y-139940470D01*
X66194918Y-139940470D01*
X66194918Y-110705308D01*
X67550445Y-110705308D01*
X67550458Y-111934457D01*
X67550500Y-113100717D01*
X67550576Y-114205749D01*
X67550692Y-115251211D01*
X67550852Y-116238764D01*
X67551062Y-117170068D01*
X67551328Y-118046784D01*
X67551653Y-118870570D01*
X67552043Y-119643087D01*
X67552504Y-120365995D01*
X67553041Y-121040954D01*
X67553658Y-121669623D01*
X67554361Y-122253664D01*
X67555155Y-122794735D01*
X67556045Y-123294497D01*
X67557036Y-123754610D01*
X67558134Y-124176734D01*
X67559344Y-124562529D01*
X67560671Y-124913654D01*
X67562119Y-125231770D01*
X67563694Y-125518536D01*
X67565402Y-125775613D01*
X67567247Y-126004661D01*
X67569235Y-126207340D01*
X67571370Y-126385309D01*
X67573659Y-126540228D01*
X67576105Y-126673759D01*
X67578715Y-126787559D01*
X67581492Y-126883291D01*
X67584444Y-126962612D01*
X67587574Y-127027185D01*
X67590888Y-127078667D01*
X67594390Y-127118720D01*
X67598087Y-127149004D01*
X67601571Y-127169213D01*
X67712690Y-127553096D01*
X67881425Y-127917820D01*
X68101998Y-128256371D01*
X68368628Y-128561734D01*
X68675536Y-128826896D01*
X69016942Y-129044841D01*
X69232437Y-129148537D01*
X69601373Y-129272877D01*
X69995915Y-129345895D01*
X70400664Y-129366124D01*
X70800223Y-129332094D01*
X70923191Y-129309770D01*
X71321667Y-129195401D01*
X71695993Y-129024230D01*
X72040192Y-128801187D01*
X72348288Y-128531200D01*
X72614303Y-128219195D01*
X72832261Y-127870102D01*
X72934955Y-127651003D01*
X72949860Y-127617216D01*
X72964006Y-127588414D01*
X72977413Y-127562920D01*
X72990100Y-127539056D01*
X73002089Y-127515145D01*
X73013397Y-127489508D01*
X73024046Y-127460469D01*
X73034054Y-127426349D01*
X73043441Y-127385471D01*
X73052227Y-127336158D01*
X73060432Y-127276730D01*
X73068075Y-127205512D01*
X73075177Y-127120825D01*
X73081756Y-127020992D01*
X73087833Y-126904334D01*
X73093427Y-126769175D01*
X73098558Y-126613836D01*
X73103245Y-126436641D01*
X73107509Y-126235910D01*
X73111368Y-126009968D01*
X73114843Y-125757135D01*
X73117954Y-125475735D01*
X73120720Y-125164089D01*
X73123160Y-124820520D01*
X73125295Y-124443351D01*
X73127145Y-124030904D01*
X73128728Y-123581500D01*
X73130064Y-123093463D01*
X73131174Y-122565115D01*
X73132077Y-121994778D01*
X73132792Y-121380774D01*
X73133340Y-120721426D01*
X73133740Y-120015057D01*
X73134012Y-119259987D01*
X73134175Y-118454541D01*
X73134249Y-117597039D01*
X73134254Y-116685806D01*
X73134210Y-115719162D01*
X73134136Y-114695430D01*
X73134052Y-113612933D01*
X73133977Y-112469993D01*
X73133932Y-111264932D01*
X73133926Y-110705308D01*
X73133926Y-106003875D01*
X80089073Y-106003875D01*
X80089073Y-125416963D01*
X80178122Y-125700868D01*
X80338510Y-126112704D01*
X80547278Y-126484385D01*
X80801390Y-126813162D01*
X81097809Y-127096284D01*
X81433497Y-127330999D01*
X81805419Y-127514557D01*
X82210536Y-127644209D01*
X82359080Y-127676242D01*
X82583368Y-127703888D01*
X82844275Y-127712313D01*
X83117079Y-127702391D01*
X83377059Y-127674999D01*
X83593866Y-127632496D01*
X84000610Y-127494461D01*
X84371643Y-127303530D01*
X84704394Y-127062199D01*
X84996292Y-126772963D01*
X85244767Y-126438319D01*
X85447247Y-126060761D01*
X85583505Y-125700868D01*
X85672554Y-125416963D01*
X85672554Y-106003875D01*
X85672554Y-86590788D01*
X85581898Y-86300317D01*
X85421963Y-85889270D01*
X85212411Y-85518328D01*
X84955735Y-85189912D01*
X84654432Y-84906440D01*
X84310995Y-84670333D01*
X83927919Y-84484010D01*
X83593866Y-84372221D01*
X83391264Y-84332337D01*
X83146937Y-84308385D01*
X82881714Y-84300366D01*
X82616421Y-84308278D01*
X82371885Y-84332124D01*
X82168934Y-84371901D01*
X82167761Y-84372221D01*
X81754709Y-84516886D01*
X81379295Y-84713275D01*
X81044015Y-84958967D01*
X80751364Y-85251544D01*
X80503835Y-85588585D01*
X80303924Y-85967673D01*
X80179728Y-86300317D01*
X80089073Y-86590788D01*
X80089073Y-106003875D01*
X73133926Y-106003875D01*
X73133926Y-94490170D01*
X73055427Y-94180716D01*
X72922585Y-93784789D01*
X72734617Y-93417952D01*
X72496215Y-93085029D01*
X72212067Y-92790847D01*
X71886863Y-92540229D01*
X71525293Y-92338001D01*
X71132047Y-92188988D01*
X71114571Y-92183869D01*
X71004215Y-92154486D01*
X70899655Y-92133899D01*
X70785477Y-92120630D01*
X70646269Y-92113199D01*
X70466617Y-92110127D01*
X70342186Y-92109760D01*
X70133053Y-92111032D01*
X69973023Y-92115832D01*
X69846683Y-92125639D01*
X69738618Y-92141934D01*
X69633415Y-92166193D01*
X69569800Y-92183869D01*
X69175302Y-92330495D01*
X68812279Y-92530543D01*
X68485422Y-92779188D01*
X68199420Y-93071604D01*
X67958963Y-93402966D01*
X67768739Y-93768450D01*
X67633440Y-94163230D01*
X67628944Y-94180716D01*
X67550445Y-94490170D01*
X67550445Y-110705308D01*
X66194918Y-110705308D01*
X66194918Y-101550000D01*
X66194918Y-94490170D01*
X66194918Y-86590788D01*
X66194918Y-77955818D01*
X80894018Y-77955818D01*
X80896716Y-78239437D01*
X80927264Y-78508592D01*
X80972167Y-78698545D01*
X81119627Y-79072592D01*
X81314944Y-79406692D01*
X81554852Y-79697655D01*
X81836089Y-79942291D01*
X82155391Y-80137409D01*
X82509496Y-80279821D01*
X82622618Y-80311942D01*
X82898026Y-80360698D01*
X83201314Y-80376798D01*
X83504665Y-80360211D01*
X83771267Y-80313217D01*
X84136531Y-80188599D01*
X84468509Y-80010146D01*
X84763620Y-79781332D01*
X85018283Y-79505630D01*
X85228915Y-79186512D01*
X85391937Y-78827453D01*
X85435019Y-78699682D01*
X85488083Y-78458186D01*
X85513132Y-78182827D01*
X85510165Y-77897896D01*
X85479183Y-77627681D01*
X85435019Y-77440978D01*
X85289204Y-77070908D01*
X85095482Y-76739985D01*
X84858277Y-76451535D01*
X84582016Y-76208887D01*
X84271121Y-76015369D01*
X83930018Y-75874308D01*
X83563132Y-75789032D01*
X83203558Y-75762706D01*
X82814263Y-75793039D01*
X82448039Y-75882010D01*
X82108929Y-76026576D01*
X81800976Y-76223694D01*
X81528223Y-76470321D01*
X81294713Y-76763414D01*
X81104489Y-77099931D01*
X80972167Y-77442116D01*
X80919168Y-77681967D01*
X80894018Y-77955818D01*
X66194918Y-77955818D01*
X66194918Y-37259276D01*
X76200000Y-37259276D01*
X86205083Y-37259276D01*
X86205083Y-40614668D01*
G37*
G04 #@! TD.AperFunction*
D11*
X73700000Y-40350000D03*
X73700000Y-162850000D03*
M02*
