G04 #@! TF.GenerationSoftware,KiCad,Pcbnew,8.0.2*
G04 #@! TF.CreationDate,2024-05-01T23:13:20+02:00*
G04 #@! TF.ProjectId,PetRockPanel,50657452-6f63-46b5-9061-6e656c2e6b69,rev?*
G04 #@! TF.SameCoordinates,Original*
G04 #@! TF.FileFunction,Legend,Top*
G04 #@! TF.FilePolarity,Positive*
%FSLAX46Y46*%
G04 Gerber Fmt 4.6, Leading zero omitted, Abs format (unit mm)*
G04 Created by KiCad (PCBNEW 8.0.2) date 2024-05-01 23:13:20*
%MOMM*%
%LPD*%
G01*
G04 APERTURE LIST*
%ADD10C,0.360000*%
%ADD11C,4.625339*%
%ADD12C,0.300000*%
%ADD13C,0.000000*%
%ADD14C,4.000000*%
G04 APERTURE END LIST*
%LPC*%
D10*
X85217000Y-82550000D02*
X67183000Y-82550000D01*
D11*
X83003530Y-64643000D02*
G75*
G02*
X78378192Y-64643000I-2312669J0D01*
G01*
X78378192Y-64643000D02*
G75*
G02*
X83003530Y-64643000I2312669J0D01*
G01*
D12*
X75158600Y-64617600D02*
G75*
G02*
X67748938Y-64617600I-3704831J0D01*
G01*
X67748938Y-64617600D02*
G75*
G02*
X75158600Y-64617600I3704831J0D01*
G01*
D10*
X76581000Y-86360000D02*
X76581000Y-125476000D01*
X85217000Y-131572000D02*
X67183000Y-131572000D01*
D12*
X75434431Y-143687800D02*
G75*
G02*
X68024769Y-143687800I-3704831J0D01*
G01*
X68024769Y-143687800D02*
G75*
G02*
X75434431Y-143687800I3704831J0D01*
G01*
D11*
X83435330Y-148488400D02*
G75*
G02*
X78809992Y-148488400I-2312669J0D01*
G01*
X78809992Y-148488400D02*
G75*
G02*
X83435330Y-148488400I2312669J0D01*
G01*
D13*
G36*
X70390597Y-70921537D02*
G01*
X70390597Y-71760673D01*
X70196951Y-71760673D01*
X70003304Y-71760673D01*
X70003304Y-70921537D01*
X70003304Y-70082401D01*
X70196951Y-70082401D01*
X70390597Y-70082401D01*
X70390597Y-70921537D01*
G37*
G36*
X70810165Y-149413024D02*
G01*
X70810165Y-150252160D01*
X70616519Y-150252160D01*
X70422872Y-150252160D01*
X70422872Y-149413024D01*
X70422872Y-148573888D01*
X70616519Y-148573888D01*
X70810165Y-148573888D01*
X70810165Y-149413024D01*
G37*
G36*
X71229733Y-40293075D02*
G01*
X71229733Y-40518996D01*
X68712325Y-40518996D01*
X66194918Y-40518996D01*
X66194918Y-40293075D01*
X66194918Y-40067154D01*
X68712325Y-40067154D01*
X71229733Y-40067154D01*
X71229733Y-40293075D01*
G37*
G36*
X71229733Y-162936023D02*
G01*
X71229733Y-163161944D01*
X68712325Y-163161944D01*
X66194918Y-163161944D01*
X66194918Y-162936023D01*
X66194918Y-162710101D01*
X68712325Y-162710101D01*
X71229733Y-162710101D01*
X71229733Y-162936023D01*
G37*
G36*
X78975604Y-159127636D02*
G01*
X78975604Y-159805400D01*
X78798094Y-159805400D01*
X78620585Y-159805400D01*
X78620585Y-159127636D01*
X78620585Y-158449873D01*
X78798094Y-158449873D01*
X78975604Y-158449873D01*
X78975604Y-159127636D01*
G37*
G36*
X86205083Y-40293075D02*
G01*
X86205083Y-40518996D01*
X84672046Y-40518996D01*
X83139009Y-40518996D01*
X83139009Y-40293075D01*
X83139009Y-40067154D01*
X84672046Y-40067154D01*
X86205083Y-40067154D01*
X86205083Y-40293075D01*
G37*
G36*
X86205083Y-162936023D02*
G01*
X86205083Y-163161944D01*
X81186404Y-163161944D01*
X76167726Y-163161944D01*
X76167726Y-162936023D01*
X76167726Y-162710101D01*
X81186404Y-162710101D01*
X86205083Y-162710101D01*
X86205083Y-162936023D01*
G37*
G36*
X70293774Y-110118869D02*
G01*
X70293774Y-110264104D01*
X69906480Y-110264104D01*
X69519187Y-110264104D01*
X69519187Y-110958005D01*
X69519187Y-111651906D01*
X69325540Y-111651906D01*
X69131893Y-111651906D01*
X69131893Y-110958005D01*
X69131893Y-110264104D01*
X68744600Y-110264104D01*
X68357306Y-110264104D01*
X68357306Y-110118869D01*
X68357306Y-109973634D01*
X69325540Y-109973634D01*
X70293774Y-109973634D01*
X70293774Y-110118869D01*
G37*
G36*
X70326048Y-99565120D02*
G01*
X70326048Y-99710356D01*
X69938755Y-99710356D01*
X69551461Y-99710356D01*
X69551461Y-100404256D01*
X69551461Y-101098157D01*
X69357815Y-101098157D01*
X69164168Y-101098157D01*
X69164168Y-100404256D01*
X69164168Y-99710356D01*
X68776874Y-99710356D01*
X68389581Y-99710356D01*
X68389581Y-99565120D01*
X68389581Y-99419885D01*
X69357815Y-99419885D01*
X70326048Y-99419885D01*
X70326048Y-99565120D01*
G37*
G36*
X83139009Y-39437802D02*
G01*
X83139009Y-39583037D01*
X82767853Y-39583037D01*
X82396696Y-39583037D01*
X82396696Y-40228526D01*
X82396696Y-40874015D01*
X82186912Y-40874015D01*
X81977128Y-40874015D01*
X81977128Y-40228526D01*
X81977128Y-39583037D01*
X81589835Y-39583037D01*
X81202541Y-39583037D01*
X81202541Y-39437802D01*
X81202541Y-39292566D01*
X82170775Y-39292566D01*
X83139009Y-39292566D01*
X83139009Y-39437802D01*
G37*
G36*
X83978145Y-70259911D02*
G01*
X83978145Y-70405146D01*
X83590851Y-70405146D01*
X83203558Y-70405146D01*
X83203558Y-71099047D01*
X83203558Y-71792948D01*
X83009911Y-71792948D01*
X82816264Y-71792948D01*
X82816264Y-71099047D01*
X82816264Y-70405146D01*
X82428971Y-70405146D01*
X82041677Y-70405146D01*
X82041677Y-70259911D01*
X82041677Y-70114676D01*
X83009911Y-70114676D01*
X83978145Y-70114676D01*
X83978145Y-70259911D01*
G37*
G36*
X84429987Y-153979860D02*
G01*
X84429987Y-154125095D01*
X84042694Y-154125095D01*
X83655400Y-154125095D01*
X83655400Y-154818996D01*
X83655400Y-155512897D01*
X83461754Y-155512897D01*
X83268107Y-155512897D01*
X83268107Y-154818996D01*
X83268107Y-154125095D01*
X82880813Y-154125095D01*
X82493520Y-154125095D01*
X82493520Y-153979860D01*
X82493520Y-153834625D01*
X83461754Y-153834625D01*
X84429987Y-153834625D01*
X84429987Y-153979860D01*
G37*
G36*
X70293774Y-115411880D02*
G01*
X70293774Y-115557115D01*
X69632147Y-115557115D01*
X68970521Y-115557115D01*
X68970521Y-115783037D01*
X68970521Y-116008958D01*
X69325540Y-116008958D01*
X69680559Y-116008958D01*
X69680559Y-116154193D01*
X69680559Y-116299428D01*
X69325540Y-116299428D01*
X68970521Y-116299428D01*
X68970521Y-116622173D01*
X68970521Y-116944917D01*
X68776874Y-116944917D01*
X68583228Y-116944917D01*
X68583228Y-116105781D01*
X68583228Y-115266645D01*
X69438501Y-115266645D01*
X70293774Y-115266645D01*
X70293774Y-115411880D01*
G37*
G36*
X76587294Y-158272363D02*
G01*
X76587294Y-158417598D01*
X75925667Y-158417598D01*
X75264041Y-158417598D01*
X75264041Y-158643519D01*
X75264041Y-158869441D01*
X75619060Y-158869441D01*
X75974079Y-158869441D01*
X75974079Y-159014676D01*
X75974079Y-159159911D01*
X75619060Y-159159911D01*
X75264041Y-159159911D01*
X75264041Y-159482655D01*
X75264041Y-159805400D01*
X75070394Y-159805400D01*
X74876747Y-159805400D01*
X74876747Y-158966264D01*
X74876747Y-158127128D01*
X75732020Y-158127128D01*
X76587294Y-158127128D01*
X76587294Y-158272363D01*
G37*
G36*
X83082287Y-95811108D02*
G01*
X83353710Y-95879154D01*
X83602025Y-96001097D01*
X83821433Y-96168950D01*
X84006138Y-96374727D01*
X84150341Y-96610443D01*
X84248244Y-96868110D01*
X84294051Y-97139743D01*
X84281963Y-97417355D01*
X84275575Y-97454881D01*
X84189099Y-97757028D01*
X84051133Y-98024320D01*
X83866442Y-98252134D01*
X83639789Y-98435848D01*
X83375937Y-98570840D01*
X83079650Y-98652486D01*
X83034117Y-98659645D01*
X82880813Y-98681528D01*
X82880813Y-97232541D01*
X82880813Y-95783555D01*
X83082287Y-95811108D01*
G37*
G36*
X68744600Y-156400444D02*
G01*
X68744600Y-156545680D01*
X68082973Y-156545680D01*
X67421347Y-156545680D01*
X67421347Y-156723189D01*
X67421347Y-156900699D01*
X67808640Y-156900699D01*
X68195934Y-156900699D01*
X68195934Y-157045934D01*
X68195934Y-157191169D01*
X67808640Y-157191169D01*
X67421347Y-157191169D01*
X67421347Y-157400953D01*
X67421347Y-157610737D01*
X68099111Y-157610737D01*
X68776874Y-157610737D01*
X68776874Y-157772109D01*
X68776874Y-157933481D01*
X67905464Y-157933481D01*
X67034053Y-157933481D01*
X67034053Y-157094345D01*
X67034053Y-156255209D01*
X67889327Y-156255209D01*
X68744600Y-156255209D01*
X68744600Y-156400444D01*
G37*
G36*
X70906989Y-110554574D02*
G01*
X70906989Y-110812770D01*
X71423380Y-110812770D01*
X71939771Y-110812770D01*
X71939771Y-110554574D01*
X71939771Y-110296378D01*
X72117281Y-110296378D01*
X72294790Y-110296378D01*
X72294790Y-110974142D01*
X72294790Y-111651906D01*
X72117281Y-111651906D01*
X71939771Y-111651906D01*
X71939771Y-111361436D01*
X71939771Y-111070965D01*
X71423380Y-111070965D01*
X70906989Y-111070965D01*
X70906989Y-111361436D01*
X70906989Y-111651906D01*
X70729479Y-111651906D01*
X70551970Y-111651906D01*
X70551970Y-110974142D01*
X70551970Y-110296378D01*
X70729479Y-110296378D01*
X70906989Y-110296378D01*
X70906989Y-110554574D01*
G37*
G36*
X72552986Y-105197014D02*
G01*
X72552986Y-105326112D01*
X71988183Y-105326112D01*
X71423380Y-105326112D01*
X71423380Y-105455209D01*
X71423380Y-105584307D01*
X71746125Y-105584307D01*
X72068869Y-105584307D01*
X72068869Y-105713405D01*
X72068869Y-105842503D01*
X71746125Y-105842503D01*
X71423380Y-105842503D01*
X71423380Y-106003875D01*
X71423380Y-106165248D01*
X72004320Y-106165248D01*
X72585261Y-106165248D01*
X72585261Y-106294345D01*
X72585261Y-106423443D01*
X71826811Y-106423443D01*
X71068361Y-106423443D01*
X71068361Y-105745680D01*
X71068361Y-105067916D01*
X71810674Y-105067916D01*
X72552986Y-105067916D01*
X72552986Y-105197014D01*
G37*
G36*
X77813723Y-128983291D02*
G01*
X77813723Y-129306035D01*
X78426938Y-129306035D01*
X79040153Y-129306035D01*
X79040153Y-128983291D01*
X79040153Y-128660546D01*
X79233799Y-128660546D01*
X79427446Y-128660546D01*
X79427446Y-129499682D01*
X79427446Y-130338818D01*
X79233799Y-130338818D01*
X79040153Y-130338818D01*
X79040153Y-129967662D01*
X79040153Y-129596505D01*
X78426938Y-129596505D01*
X77813723Y-129596505D01*
X77813723Y-129967662D01*
X77813723Y-130338818D01*
X77620076Y-130338818D01*
X77426430Y-130338818D01*
X77426430Y-129499682D01*
X77426430Y-128660546D01*
X77620076Y-128660546D01*
X77813723Y-128660546D01*
X77813723Y-128983291D01*
G37*
G36*
X80912071Y-158578971D02*
G01*
X80912071Y-158708068D01*
X80347268Y-158708068D01*
X79782465Y-158708068D01*
X79782465Y-158837166D01*
X79782465Y-158966264D01*
X80105210Y-158966264D01*
X80427954Y-158966264D01*
X80427954Y-159095362D01*
X80427954Y-159224460D01*
X80105210Y-159224460D01*
X79782465Y-159224460D01*
X79782465Y-159385832D01*
X79782465Y-159547204D01*
X80363405Y-159547204D01*
X80944346Y-159547204D01*
X80944346Y-159676302D01*
X80944346Y-159805400D01*
X80185896Y-159805400D01*
X79427446Y-159805400D01*
X79427446Y-159127636D01*
X79427446Y-158449873D01*
X80169759Y-158449873D01*
X80912071Y-158449873D01*
X80912071Y-158578971D01*
G37*
G36*
X81008895Y-39437802D02*
G01*
X81008895Y-39583037D01*
X80347268Y-39583037D01*
X79685642Y-39583037D01*
X79685642Y-39760546D01*
X79685642Y-39938056D01*
X80072935Y-39938056D01*
X80460229Y-39938056D01*
X80460229Y-40067154D01*
X80460229Y-40196251D01*
X80072935Y-40196251D01*
X79685642Y-40196251D01*
X79685642Y-40389898D01*
X79685642Y-40583545D01*
X80363405Y-40583545D01*
X81041169Y-40583545D01*
X81041169Y-40728780D01*
X81041169Y-40874015D01*
X80169759Y-40874015D01*
X79298348Y-40874015D01*
X79298348Y-40083291D01*
X79298348Y-39292566D01*
X80153621Y-39292566D01*
X81008895Y-39292566D01*
X81008895Y-39437802D01*
G37*
G36*
X85882338Y-128805781D02*
G01*
X85882338Y-128951016D01*
X85220712Y-128951016D01*
X84559085Y-128951016D01*
X84559085Y-129128526D01*
X84559085Y-129306035D01*
X84946379Y-129306035D01*
X85333672Y-129306035D01*
X85333672Y-129451270D01*
X85333672Y-129596505D01*
X84946379Y-129596505D01*
X84559085Y-129596505D01*
X84559085Y-129806289D01*
X84559085Y-130016073D01*
X85236849Y-130016073D01*
X85914613Y-130016073D01*
X85914613Y-130177446D01*
X85914613Y-130338818D01*
X85043202Y-130338818D01*
X84171792Y-130338818D01*
X84171792Y-129499682D01*
X84171792Y-128660546D01*
X85027065Y-128660546D01*
X85882338Y-128660546D01*
X85882338Y-128805781D01*
G37*
G36*
X73110236Y-89517985D02*
G01*
X73328604Y-89527763D01*
X72908521Y-89976798D01*
X72488437Y-90425832D01*
X72488437Y-90807865D01*
X72488437Y-91189898D01*
X72278653Y-91189898D01*
X72068869Y-91189898D01*
X72068869Y-90806255D01*
X72068869Y-90422613D01*
X71772319Y-90104286D01*
X71648647Y-89971694D01*
X71527919Y-89842540D01*
X71423562Y-89731171D01*
X71349000Y-89651933D01*
X71346031Y-89648793D01*
X71216294Y-89511626D01*
X71479283Y-89511626D01*
X71742272Y-89511626D01*
X72026377Y-89832011D01*
X72310482Y-90152395D01*
X72471871Y-89969177D01*
X72574265Y-89854087D01*
X72681662Y-89735168D01*
X72762565Y-89647083D01*
X72891868Y-89508206D01*
X73110236Y-89517985D01*
G37*
G36*
X82913088Y-119435392D02*
G01*
X82912963Y-119779131D01*
X82912445Y-120063835D01*
X82911318Y-120295020D01*
X82909367Y-120478200D01*
X82906375Y-120618890D01*
X82902128Y-120722604D01*
X82896409Y-120794858D01*
X82889003Y-120841164D01*
X82879695Y-120867040D01*
X82868268Y-120877997D01*
X82856607Y-120879696D01*
X82794479Y-120871548D01*
X82695527Y-120853524D01*
X82622618Y-120838430D01*
X82349010Y-120747658D01*
X82104088Y-120604950D01*
X81893337Y-120418253D01*
X81722245Y-120195515D01*
X81596298Y-119944682D01*
X81520982Y-119673703D01*
X81501784Y-119390523D01*
X81516535Y-119236284D01*
X81591432Y-118944749D01*
X81718052Y-118681063D01*
X81890150Y-118451606D01*
X82101475Y-118262759D01*
X82345780Y-118120901D01*
X82616818Y-118032414D01*
X82711614Y-118015936D01*
X82913088Y-117988383D01*
X82913088Y-119435392D01*
G37*
G36*
X81436521Y-158453648D02*
G01*
X81486123Y-158468225D01*
X81547178Y-158498478D01*
X81627324Y-158549281D01*
X81734196Y-158625510D01*
X81875430Y-158732037D01*
X82058662Y-158873740D01*
X82076570Y-158887680D01*
X82638755Y-159325488D01*
X82647734Y-158887680D01*
X82656714Y-158449873D01*
X82817175Y-158449873D01*
X82977637Y-158449873D01*
X82977637Y-159127636D01*
X82977637Y-159805400D01*
X82855360Y-159805400D01*
X82810255Y-159801602D01*
X82761289Y-159786940D01*
X82700933Y-159756512D01*
X82621658Y-159705419D01*
X82515936Y-159628758D01*
X82376237Y-159521629D01*
X82195033Y-159379130D01*
X82169527Y-159358934D01*
X81605972Y-158912468D01*
X81597017Y-159358934D01*
X81588063Y-159805400D01*
X81427576Y-159805400D01*
X81267090Y-159805400D01*
X81267090Y-159127636D01*
X81267090Y-158449873D01*
X81390737Y-158449873D01*
X81436521Y-158453648D01*
G37*
G36*
X72778907Y-70921537D02*
G01*
X72778907Y-71760673D01*
X72639815Y-71760673D01*
X72596065Y-71758924D01*
X72553785Y-71750558D01*
X72506291Y-71730891D01*
X72446899Y-71695245D01*
X72368926Y-71638937D01*
X72265687Y-71557287D01*
X72130498Y-71445614D01*
X71956676Y-71299236D01*
X71841023Y-71201255D01*
X71181322Y-70641836D01*
X71172508Y-71201255D01*
X71163695Y-71760673D01*
X70986930Y-71760673D01*
X70810165Y-71760673D01*
X70810165Y-70921537D01*
X70810165Y-70082401D01*
X70947332Y-70082525D01*
X70990668Y-70084450D01*
X71033011Y-70093257D01*
X71081028Y-70113619D01*
X71141385Y-70150206D01*
X71220748Y-70207691D01*
X71325782Y-70290744D01*
X71463154Y-70404039D01*
X71639530Y-70552245D01*
X71746125Y-70642336D01*
X72407751Y-71202025D01*
X72416564Y-70642213D01*
X72425378Y-70082401D01*
X72602143Y-70082401D01*
X72778907Y-70082401D01*
X72778907Y-70921537D01*
G37*
G36*
X73198475Y-149413024D02*
G01*
X73198475Y-150252160D01*
X73059383Y-150252160D01*
X73015633Y-150250411D01*
X72973353Y-150242044D01*
X72925859Y-150222378D01*
X72866467Y-150186732D01*
X72788494Y-150130424D01*
X72685255Y-150048774D01*
X72550066Y-149937100D01*
X72376244Y-149790722D01*
X72260591Y-149692741D01*
X71600890Y-149133323D01*
X71592076Y-149692741D01*
X71583263Y-150252160D01*
X71406498Y-150252160D01*
X71229733Y-150252160D01*
X71229733Y-149413024D01*
X71229733Y-148573888D01*
X71366900Y-148574011D01*
X71410236Y-148575936D01*
X71452579Y-148584744D01*
X71500596Y-148605106D01*
X71560953Y-148641693D01*
X71640316Y-148699177D01*
X71745350Y-148782231D01*
X71882722Y-148895525D01*
X72059098Y-149043732D01*
X72165693Y-149133823D01*
X72827319Y-149693511D01*
X72836132Y-149133700D01*
X72844946Y-148573888D01*
X73021710Y-148573888D01*
X73198475Y-148573888D01*
X73198475Y-149413024D01*
G37*
G36*
X82836644Y-112498906D02*
G01*
X83016412Y-112565521D01*
X83062784Y-112587641D01*
X83314414Y-112744870D01*
X83522878Y-112942913D01*
X83685678Y-113173541D01*
X83800318Y-113428525D01*
X83864302Y-113699634D01*
X83875133Y-113978639D01*
X83830315Y-114257311D01*
X83727351Y-114527420D01*
X83678240Y-114616538D01*
X83542428Y-114802133D01*
X83372412Y-114971237D01*
X83182080Y-115113887D01*
X82985319Y-115220120D01*
X82796016Y-115279974D01*
X82743177Y-115287357D01*
X82597042Y-115279758D01*
X82439584Y-115238230D01*
X82180517Y-115109628D01*
X81955588Y-114932899D01*
X81770008Y-114716814D01*
X81628991Y-114470142D01*
X81537747Y-114201653D01*
X81501489Y-113920117D01*
X81516535Y-113685077D01*
X81592291Y-113390931D01*
X81721414Y-113123396D01*
X81898252Y-112890223D01*
X82117154Y-112699162D01*
X82322004Y-112580323D01*
X82510434Y-112506514D01*
X82674983Y-112479306D01*
X82836644Y-112498906D01*
G37*
G36*
X83139531Y-106918214D02*
G01*
X83400533Y-106987431D01*
X83642262Y-107103872D01*
X83858089Y-107263310D01*
X84041387Y-107461515D01*
X84185527Y-107694258D01*
X84283880Y-107957310D01*
X84329819Y-108246441D01*
X84332375Y-108328335D01*
X84302748Y-108617921D01*
X84215451Y-108891264D01*
X84076778Y-109140775D01*
X83893024Y-109358866D01*
X83670486Y-109537951D01*
X83415458Y-109670440D01*
X83157287Y-109744702D01*
X83005815Y-109768680D01*
X82884639Y-109774994D01*
X82762192Y-109763133D01*
X82622618Y-109736016D01*
X82345431Y-109643962D01*
X82096774Y-109497862D01*
X81882730Y-109304191D01*
X81709387Y-109069426D01*
X81582827Y-108800041D01*
X81518902Y-108561522D01*
X81499797Y-108287414D01*
X81538744Y-108012365D01*
X81630282Y-107746943D01*
X81768948Y-107501719D01*
X81949282Y-107287260D01*
X82165820Y-107114135D01*
X82307173Y-107036207D01*
X82586223Y-106938373D01*
X82865885Y-106900452D01*
X83139531Y-106918214D01*
G37*
G36*
X83294621Y-101405246D02*
G01*
X83494819Y-101486454D01*
X83692242Y-101611007D01*
X83874961Y-101770073D01*
X84031045Y-101954821D01*
X84143888Y-102146293D01*
X84249820Y-102438199D01*
X84291883Y-102726926D01*
X84270026Y-103015723D01*
X84184198Y-103307844D01*
X84123752Y-103443157D01*
X83992758Y-103656524D01*
X83829318Y-103840362D01*
X83642744Y-103989614D01*
X83442345Y-104099225D01*
X83237431Y-104164138D01*
X83037313Y-104179297D01*
X82851299Y-104139644D01*
X82845556Y-104137362D01*
X82579855Y-103998451D01*
X82356710Y-103818179D01*
X82177745Y-103604218D01*
X82044580Y-103364241D01*
X81958835Y-103105920D01*
X81922134Y-102836926D01*
X81936096Y-102564934D01*
X82002344Y-102297613D01*
X82122497Y-102042638D01*
X82298179Y-101807680D01*
X82343300Y-101760578D01*
X82501895Y-101625657D01*
X82681091Y-101511786D01*
X82863701Y-101427655D01*
X83032539Y-101381951D01*
X83103580Y-101376214D01*
X83294621Y-101405246D01*
G37*
G36*
X69228717Y-54203367D02*
G01*
X69228717Y-54397014D01*
X68664011Y-54397014D01*
X68099305Y-54397014D01*
X68556437Y-54743964D01*
X68704831Y-54858069D01*
X68834511Y-54960594D01*
X68936939Y-55044559D01*
X69003577Y-55102986D01*
X69025791Y-55127604D01*
X69005155Y-55157802D01*
X68940371Y-55219290D01*
X68839403Y-55305267D01*
X68710215Y-55408933D01*
X68572204Y-55514897D01*
X68106395Y-55865502D01*
X68667556Y-55874315D01*
X69228717Y-55883128D01*
X69228717Y-56043756D01*
X69228717Y-56204384D01*
X68389581Y-56204384D01*
X67550445Y-56204384D01*
X67550445Y-56047772D01*
X67552675Y-55967855D01*
X67566397Y-55910603D01*
X67602158Y-55859609D01*
X67670507Y-55798467D01*
X67752160Y-55734008D01*
X67864253Y-55646331D01*
X68005886Y-55535051D01*
X68156042Y-55416699D01*
X68252975Y-55340076D01*
X68552074Y-55103297D01*
X68059328Y-54725620D01*
X67566582Y-54347942D01*
X67556827Y-54178831D01*
X67547072Y-54009720D01*
X68387894Y-54009720D01*
X69228717Y-54009720D01*
X69228717Y-54203367D01*
G37*
G36*
X69422363Y-157126620D02*
G01*
X69422363Y-157675286D01*
X69890343Y-157675286D01*
X70358323Y-157675286D01*
X70358323Y-157126620D01*
X70358323Y-156577954D01*
X70535832Y-156577954D01*
X70713342Y-156577954D01*
X70713342Y-157121804D01*
X70711159Y-157365102D01*
X70703595Y-157551843D01*
X70689124Y-157689906D01*
X70666222Y-157787165D01*
X70633365Y-157851500D01*
X70589028Y-157890787D01*
X70562045Y-157903512D01*
X70505869Y-157912895D01*
X70396702Y-157921077D01*
X70246098Y-157927563D01*
X70065611Y-157931862D01*
X69866796Y-157933479D01*
X69859543Y-157933481D01*
X69641461Y-157932972D01*
X69478386Y-157930886D01*
X69360779Y-157926381D01*
X69279103Y-157918619D01*
X69223819Y-157906758D01*
X69185389Y-157889959D01*
X69159675Y-157871838D01*
X69133216Y-157848291D01*
X69113527Y-157820319D01*
X69099404Y-157778517D01*
X69089642Y-157713477D01*
X69083038Y-157615792D01*
X69078386Y-157476056D01*
X69074482Y-157284862D01*
X69072898Y-157194074D01*
X69062315Y-156577954D01*
X69242339Y-156577954D01*
X69422363Y-156577954D01*
X69422363Y-157126620D01*
G37*
G36*
X70906989Y-100291296D02*
G01*
X70906989Y-100839962D01*
X71374968Y-100839962D01*
X71842948Y-100839962D01*
X71842948Y-100291296D01*
X71842948Y-99742630D01*
X72020458Y-99742630D01*
X72197967Y-99742630D01*
X72197967Y-100286480D01*
X72195784Y-100529778D01*
X72188220Y-100716519D01*
X72173749Y-100854581D01*
X72150847Y-100951841D01*
X72117990Y-101016176D01*
X72073653Y-101055463D01*
X72046670Y-101068188D01*
X71990494Y-101077571D01*
X71881327Y-101085753D01*
X71730723Y-101092239D01*
X71550237Y-101096538D01*
X71351421Y-101098155D01*
X71344168Y-101098157D01*
X71126086Y-101097648D01*
X70963011Y-101095562D01*
X70845405Y-101091057D01*
X70763728Y-101083295D01*
X70708444Y-101071434D01*
X70670015Y-101054635D01*
X70644300Y-101036514D01*
X70617841Y-101012967D01*
X70598152Y-100984995D01*
X70584029Y-100943193D01*
X70574267Y-100878153D01*
X70567663Y-100780468D01*
X70563011Y-100640732D01*
X70559107Y-100449538D01*
X70557524Y-100358750D01*
X70546940Y-99742630D01*
X70726964Y-99742630D01*
X70906989Y-99742630D01*
X70906989Y-100291296D01*
G37*
G36*
X70971538Y-126756353D02*
G01*
X70971538Y-127305019D01*
X71439517Y-127305019D01*
X71907497Y-127305019D01*
X71907497Y-126756353D01*
X71907497Y-126207687D01*
X72085006Y-126207687D01*
X72262516Y-126207687D01*
X72262516Y-126751537D01*
X72260333Y-126994835D01*
X72252769Y-127181576D01*
X72238298Y-127319639D01*
X72215396Y-127416899D01*
X72182539Y-127481233D01*
X72138202Y-127520520D01*
X72111219Y-127533245D01*
X72055043Y-127542628D01*
X71945876Y-127550810D01*
X71795272Y-127557296D01*
X71614785Y-127561595D01*
X71415970Y-127563213D01*
X71408717Y-127563215D01*
X71190635Y-127562706D01*
X71027560Y-127560619D01*
X70909954Y-127556114D01*
X70828277Y-127548352D01*
X70772993Y-127536491D01*
X70734564Y-127519692D01*
X70708849Y-127501571D01*
X70682390Y-127478024D01*
X70662701Y-127450053D01*
X70648578Y-127408250D01*
X70638816Y-127343210D01*
X70632212Y-127245525D01*
X70627560Y-127105789D01*
X70623656Y-126914596D01*
X70622072Y-126823807D01*
X70611489Y-126207687D01*
X70791513Y-126207687D01*
X70971538Y-126207687D01*
X70971538Y-126756353D01*
G37*
G36*
X80202033Y-70792439D02*
G01*
X80202033Y-71470203D01*
X80750699Y-71470203D01*
X81299365Y-71470203D01*
X81299365Y-70792439D01*
X81299365Y-70114676D01*
X81511790Y-70114676D01*
X81724216Y-70114676D01*
X81711949Y-70848920D01*
X81707280Y-71063066D01*
X81700971Y-71257742D01*
X81693513Y-71422917D01*
X81685398Y-71548558D01*
X81677117Y-71624634D01*
X81673122Y-71640838D01*
X81645069Y-71687593D01*
X81604044Y-71723817D01*
X81542277Y-71750801D01*
X81452003Y-71769836D01*
X81325455Y-71782211D01*
X81154866Y-71789216D01*
X80932468Y-71792143D01*
X80760370Y-71792472D01*
X80494029Y-71790860D01*
X80287391Y-71786261D01*
X80135672Y-71778424D01*
X80034085Y-71767098D01*
X79977843Y-71752034D01*
X79976748Y-71751493D01*
X79927556Y-71722204D01*
X79889474Y-71684860D01*
X79861091Y-71631430D01*
X79840995Y-71553879D01*
X79827772Y-71444174D01*
X79820010Y-71294284D01*
X79816298Y-71096175D01*
X79815222Y-70841814D01*
X79815215Y-70832782D01*
X79814740Y-70114676D01*
X80008386Y-70114676D01*
X80202033Y-70114676D01*
X80202033Y-70792439D01*
G37*
G36*
X80653876Y-154512389D02*
G01*
X80653876Y-155190152D01*
X81202541Y-155190152D01*
X81751207Y-155190152D01*
X81751207Y-154512389D01*
X81751207Y-153834625D01*
X81963633Y-153834625D01*
X82176058Y-153834625D01*
X82163791Y-154568869D01*
X82159123Y-154783015D01*
X82152813Y-154977691D01*
X82145355Y-155142866D01*
X82137240Y-155268507D01*
X82128960Y-155344583D01*
X82124964Y-155360787D01*
X82096912Y-155407542D01*
X82055886Y-155443766D01*
X81994120Y-155470751D01*
X81903846Y-155489785D01*
X81777298Y-155502160D01*
X81606708Y-155509165D01*
X81384310Y-155512092D01*
X81212213Y-155512421D01*
X80945871Y-155510809D01*
X80739234Y-155506210D01*
X80587515Y-155498373D01*
X80485927Y-155487047D01*
X80429685Y-155471983D01*
X80428590Y-155471442D01*
X80379398Y-155442153D01*
X80341317Y-155404810D01*
X80312934Y-155351379D01*
X80292837Y-155273828D01*
X80279614Y-155164124D01*
X80271853Y-155014233D01*
X80268140Y-154816124D01*
X80267064Y-154561764D01*
X80267058Y-154552732D01*
X80266582Y-153834625D01*
X80460229Y-153834625D01*
X80653876Y-153834625D01*
X80653876Y-154512389D01*
G37*
G36*
X70436797Y-89512656D02*
G01*
X70632656Y-89513687D01*
X71105571Y-90351792D01*
X71578486Y-91189898D01*
X71356163Y-91189898D01*
X71133839Y-91189898D01*
X71036086Y-90996251D01*
X70938334Y-90802605D01*
X70412204Y-90802605D01*
X69886074Y-90802605D01*
X69793520Y-90996251D01*
X69700965Y-91189898D01*
X69499012Y-91189898D01*
X69297059Y-91189898D01*
X69556008Y-90729987D01*
X69666100Y-90534391D01*
X69692614Y-90487260D01*
X70073232Y-90487260D01*
X70098834Y-90497215D01*
X70176486Y-90505273D01*
X70293694Y-90510534D01*
X70418244Y-90512134D01*
X70774015Y-90512134D01*
X70626044Y-90229733D01*
X70558974Y-90104605D01*
X70499577Y-89998975D01*
X70456256Y-89927533D01*
X70441723Y-89907460D01*
X70417479Y-89902362D01*
X70381817Y-89935656D01*
X70329789Y-90013811D01*
X70256448Y-90143292D01*
X70244681Y-90164987D01*
X70177121Y-90290474D01*
X70121366Y-90394873D01*
X70084375Y-90465109D01*
X70073232Y-90487260D01*
X69692614Y-90487260D01*
X69786523Y-90320331D01*
X69904337Y-90110814D01*
X70006602Y-89928851D01*
X70027948Y-89890851D01*
X70240938Y-89511626D01*
X70436797Y-89512656D01*
G37*
G36*
X80764624Y-128661576D02*
G01*
X80960483Y-128662606D01*
X81433398Y-129500712D01*
X81906313Y-130338818D01*
X81683990Y-130338818D01*
X81461666Y-130338818D01*
X81363914Y-130145171D01*
X81266161Y-129951525D01*
X80740031Y-129951525D01*
X80213902Y-129951525D01*
X80121347Y-130145171D01*
X80028792Y-130338818D01*
X79826839Y-130338818D01*
X79624886Y-130338818D01*
X79883835Y-129878907D01*
X79993927Y-129683311D01*
X80020441Y-129636180D01*
X80401059Y-129636180D01*
X80426662Y-129646135D01*
X80504313Y-129654193D01*
X80621521Y-129659454D01*
X80746071Y-129661054D01*
X81101842Y-129661054D01*
X80953871Y-129378653D01*
X80886801Y-129253525D01*
X80827405Y-129147895D01*
X80784083Y-129076453D01*
X80769550Y-129056380D01*
X80745306Y-129051282D01*
X80709644Y-129084576D01*
X80657617Y-129162731D01*
X80584275Y-129292212D01*
X80572509Y-129313907D01*
X80504948Y-129439394D01*
X80449194Y-129543793D01*
X80412202Y-129614029D01*
X80401059Y-129636180D01*
X80020441Y-129636180D01*
X80114350Y-129469251D01*
X80232164Y-129259734D01*
X80334429Y-129077771D01*
X80355775Y-129039771D01*
X80568765Y-128660546D01*
X80764624Y-128661576D01*
G37*
G36*
X71993189Y-121544028D02*
G01*
X72104962Y-121727472D01*
X72204613Y-121892712D01*
X72287420Y-122031778D01*
X72348660Y-122136699D01*
X72383610Y-122199505D01*
X72390002Y-122213723D01*
X72361654Y-122226697D01*
X72286553Y-122235482D01*
X72205362Y-122237929D01*
X72019109Y-122237929D01*
X71939771Y-122092694D01*
X71860433Y-121947458D01*
X71407861Y-121947458D01*
X70955290Y-121947458D01*
X70878242Y-122092694D01*
X70831009Y-122176411D01*
X70788921Y-122219555D01*
X70728741Y-122235577D01*
X70627342Y-122237929D01*
X70453489Y-122237929D01*
X70501057Y-122149174D01*
X70531785Y-122095240D01*
X70590131Y-121995871D01*
X70670281Y-121860850D01*
X70766423Y-121699961D01*
X70772850Y-121689263D01*
X71106136Y-121689263D01*
X71412771Y-121689263D01*
X71719406Y-121689263D01*
X71598639Y-121471410D01*
X71518392Y-121326050D01*
X71462326Y-121233949D01*
X71420556Y-121193535D01*
X71383197Y-121203240D01*
X71340363Y-121261494D01*
X71282170Y-121366728D01*
X71254991Y-121416844D01*
X71106136Y-121689263D01*
X70772850Y-121689263D01*
X70872743Y-121522985D01*
X70898963Y-121479479D01*
X71249302Y-120898539D01*
X71423645Y-120898539D01*
X71597987Y-120898539D01*
X71993189Y-121544028D01*
G37*
G36*
X83571083Y-137917110D02*
G01*
X83892623Y-137997197D01*
X84190423Y-138134126D01*
X84471226Y-138330718D01*
X84642909Y-138486940D01*
X84868942Y-138742643D01*
X85037566Y-139008460D01*
X85155833Y-139297937D01*
X85228887Y-139612804D01*
X85252421Y-139769552D01*
X85262976Y-139890121D01*
X85260613Y-140001551D01*
X85245395Y-140130880D01*
X85230300Y-140227211D01*
X85141496Y-140581147D01*
X84997982Y-140906755D01*
X84804487Y-141198821D01*
X84565742Y-141452131D01*
X84286477Y-141661469D01*
X83971421Y-141821620D01*
X83705100Y-141908727D01*
X83536203Y-141937468D01*
X83328665Y-141951786D01*
X83106751Y-141951719D01*
X82894728Y-141937307D01*
X82716862Y-141908587D01*
X82710815Y-141907145D01*
X82384519Y-141796113D01*
X82086956Y-141631739D01*
X81822971Y-141420645D01*
X81597410Y-141169455D01*
X81415117Y-140884791D01*
X81280938Y-140573278D01*
X81199718Y-140241538D01*
X81176301Y-139896194D01*
X81179689Y-139814117D01*
X81230001Y-139453187D01*
X81335370Y-139123923D01*
X81498211Y-138821005D01*
X81720938Y-138539115D01*
X81791539Y-138466034D01*
X82061648Y-138241815D01*
X82365721Y-138070687D01*
X82697722Y-137955081D01*
X83051613Y-137897431D01*
X83219056Y-137891042D01*
X83571083Y-137917110D01*
G37*
G36*
X84333164Y-41858386D02*
G01*
X84334879Y-41990139D01*
X84339490Y-42093531D01*
X84346193Y-42154546D01*
X84350733Y-42164993D01*
X84381801Y-42147526D01*
X84456660Y-42099177D01*
X84566181Y-42026025D01*
X84701236Y-41934146D01*
X84810644Y-41858783D01*
X85252986Y-41552573D01*
X85543456Y-41552288D01*
X85833926Y-41552004D01*
X85292127Y-41912624D01*
X85103642Y-42039290D01*
X84964413Y-42136080D01*
X84868980Y-42207364D01*
X84811884Y-42257509D01*
X84787664Y-42290885D01*
X84790861Y-42311859D01*
X84791873Y-42312883D01*
X84829952Y-42342535D01*
X84912654Y-42402778D01*
X85031470Y-42487553D01*
X85177888Y-42590800D01*
X85343399Y-42706460D01*
X85395794Y-42742875D01*
X85958171Y-43133227D01*
X85643267Y-43133227D01*
X85328363Y-43133227D01*
X84875072Y-42807895D01*
X84723731Y-42700101D01*
X84588567Y-42605377D01*
X84479109Y-42530280D01*
X84404883Y-42481363D01*
X84377472Y-42465560D01*
X84357315Y-42469278D01*
X84344109Y-42505116D01*
X84336583Y-42582404D01*
X84333467Y-42710472D01*
X84333164Y-42790892D01*
X84333164Y-43133227D01*
X84139517Y-43133227D01*
X83945870Y-43133227D01*
X83945870Y-42342503D01*
X83945870Y-41551779D01*
X84139517Y-41551779D01*
X84333164Y-41551779D01*
X84333164Y-41858386D01*
G37*
G36*
X77877584Y-38944258D02*
G01*
X78845130Y-38953685D01*
X78934572Y-39043173D01*
X78971735Y-39082600D01*
X78996848Y-39121533D01*
X79012272Y-39172944D01*
X79020368Y-39249802D01*
X79023495Y-39365079D01*
X79024015Y-39531744D01*
X79024015Y-39534625D01*
X79023515Y-39702139D01*
X79020442Y-39818075D01*
X79012435Y-39895404D01*
X78997135Y-39947097D01*
X78972181Y-39986124D01*
X78935213Y-40025455D01*
X78934592Y-40026077D01*
X78845169Y-40115565D01*
X78119662Y-40125350D01*
X77394155Y-40135135D01*
X77394155Y-40504575D01*
X77394155Y-40874015D01*
X77152097Y-40874015D01*
X76910038Y-40874015D01*
X76910038Y-39904423D01*
X76910038Y-39776683D01*
X77394155Y-39776683D01*
X77934752Y-39776189D01*
X78117875Y-39774263D01*
X78280406Y-39769248D01*
X78410493Y-39761770D01*
X78496280Y-39752455D01*
X78523761Y-39745092D01*
X78556234Y-39694868D01*
X78570907Y-39592302D01*
X78572173Y-39534625D01*
X78564180Y-39408928D01*
X78539070Y-39338538D01*
X78523761Y-39324158D01*
X78476498Y-39313921D01*
X78376544Y-39305078D01*
X78235753Y-39298254D01*
X78065981Y-39294077D01*
X77934752Y-39293061D01*
X77394155Y-39292566D01*
X77394155Y-39534625D01*
X77394155Y-39776683D01*
X76910038Y-39776683D01*
X76910038Y-39534625D01*
X76910038Y-38934832D01*
X77877584Y-38944258D01*
G37*
G36*
X84066900Y-158455519D02*
G01*
X84288196Y-158459655D01*
X84455291Y-158464515D01*
X84578529Y-158471205D01*
X84668259Y-158480835D01*
X84734825Y-158494515D01*
X84788573Y-158513351D01*
X84839617Y-158538330D01*
X84999300Y-158650961D01*
X85103676Y-158792216D01*
X85158001Y-158970351D01*
X85166798Y-159052227D01*
X85157903Y-159276500D01*
X85099274Y-159459994D01*
X84989831Y-159604346D01*
X84828496Y-159711193D01*
X84700646Y-159759709D01*
X84600378Y-159780171D01*
X84453352Y-159794357D01*
X84253751Y-159802642D01*
X83995756Y-159805399D01*
X83989153Y-159805400D01*
X83429479Y-159805400D01*
X83429479Y-159556065D01*
X83784498Y-159556065D01*
X84168760Y-159540239D01*
X84350904Y-159530401D01*
X84482000Y-159516928D01*
X84575533Y-159497670D01*
X84644986Y-159470477D01*
X84660945Y-159461736D01*
X84760552Y-159369885D01*
X84818113Y-159245447D01*
X84833207Y-159105172D01*
X84805414Y-158965808D01*
X84734312Y-158844102D01*
X84677774Y-158791630D01*
X84630360Y-158762439D01*
X84572088Y-158742116D01*
X84489774Y-158728549D01*
X84370238Y-158719628D01*
X84200296Y-158713242D01*
X84185589Y-158712818D01*
X83784498Y-158701431D01*
X83784498Y-159128748D01*
X83784498Y-159556065D01*
X83429479Y-159556065D01*
X83429479Y-159128748D01*
X83429479Y-159125214D01*
X83429479Y-158445028D01*
X84066900Y-158455519D01*
G37*
G36*
X69025360Y-94561001D02*
G01*
X69143823Y-94715006D01*
X69249162Y-94849860D01*
X69335101Y-94957700D01*
X69395363Y-95030660D01*
X69423674Y-95060877D01*
X69424579Y-95061255D01*
X69448506Y-95037005D01*
X69504277Y-94968525D01*
X69585728Y-94863756D01*
X69686692Y-94730641D01*
X69801005Y-94577120D01*
X69811734Y-94562579D01*
X70180535Y-94062325D01*
X70333978Y-94062325D01*
X70487421Y-94062325D01*
X70487421Y-94901461D01*
X70487421Y-95740597D01*
X70308503Y-95740597D01*
X70129586Y-95740597D01*
X70139062Y-95157030D01*
X70141339Y-94931416D01*
X70139754Y-94768530D01*
X70134235Y-94666663D01*
X70124708Y-94624104D01*
X70116264Y-94627546D01*
X70066545Y-94703387D01*
X69991249Y-94809179D01*
X69898229Y-94934827D01*
X69795335Y-95070234D01*
X69690420Y-95205306D01*
X69591337Y-95329946D01*
X69505936Y-95434060D01*
X69442070Y-95507550D01*
X69407591Y-95540323D01*
X69405785Y-95541043D01*
X69370401Y-95519359D01*
X69303224Y-95450005D01*
X69209015Y-95338512D01*
X69092537Y-95190411D01*
X69011928Y-95083574D01*
X68663914Y-94615875D01*
X68655100Y-95178236D01*
X68646287Y-95740597D01*
X68485659Y-95740597D01*
X68325032Y-95740597D01*
X68325032Y-94901461D01*
X68325032Y-94062325D01*
X68484762Y-94062325D01*
X68644493Y-94062325D01*
X69025360Y-94561001D01*
G37*
G36*
X81299365Y-156836150D02*
G01*
X81301481Y-156956059D01*
X81307105Y-157046353D01*
X81315149Y-157091756D01*
X81317747Y-157094345D01*
X81349529Y-157076993D01*
X81424217Y-157029339D01*
X81531758Y-156957989D01*
X81662102Y-156869545D01*
X81710705Y-156836150D01*
X82085281Y-156577954D01*
X82329571Y-156577954D01*
X82573860Y-156577954D01*
X82114122Y-156884896D01*
X81963574Y-156986136D01*
X81833712Y-157074852D01*
X81733257Y-157144972D01*
X81670931Y-157190426D01*
X81654384Y-157204956D01*
X81679575Y-157226634D01*
X81749539Y-157278816D01*
X81855860Y-157355431D01*
X81990123Y-157450410D01*
X82130432Y-157548335D01*
X82285478Y-157656230D01*
X82422889Y-157752477D01*
X82533531Y-157830630D01*
X82608273Y-157884241D01*
X82637141Y-157906039D01*
X82622423Y-157918796D01*
X82555370Y-157928324D01*
X82448171Y-157933162D01*
X82408096Y-157933481D01*
X82148390Y-157933481D01*
X81742108Y-157643011D01*
X81601214Y-157543079D01*
X81479123Y-157457997D01*
X81385265Y-157394216D01*
X81329070Y-157358189D01*
X81317595Y-157352541D01*
X81309567Y-157382412D01*
X81303342Y-157462425D01*
X81299826Y-157578178D01*
X81299365Y-157643011D01*
X81299365Y-157933481D01*
X81121855Y-157933481D01*
X80944346Y-157933481D01*
X80944346Y-157255718D01*
X80944346Y-156577954D01*
X81121855Y-156577954D01*
X81299365Y-156577954D01*
X81299365Y-156836150D01*
G37*
G36*
X68186023Y-89513482D02*
G01*
X68401306Y-89520176D01*
X68571069Y-89533404D01*
X68704787Y-89554857D01*
X68811936Y-89586228D01*
X68901992Y-89629212D01*
X68984431Y-89685501D01*
X69011801Y-89707468D01*
X69139715Y-89837069D01*
X69221999Y-89983038D01*
X69264909Y-90160281D01*
X69275096Y-90334625D01*
X69255698Y-90571253D01*
X69193516Y-90765011D01*
X69085245Y-90924094D01*
X69007966Y-90997217D01*
X68926832Y-91057400D01*
X68840525Y-91103920D01*
X68739626Y-91138440D01*
X68614713Y-91162621D01*
X68456365Y-91178126D01*
X68255163Y-91186615D01*
X68001685Y-91189752D01*
X67915743Y-91189898D01*
X67259975Y-91189898D01*
X67259975Y-90875574D01*
X67647268Y-90875574D01*
X68076412Y-90861019D01*
X68270857Y-90852368D01*
X68413827Y-90840441D01*
X68518376Y-90823433D01*
X68597562Y-90799541D01*
X68632248Y-90784192D01*
X68760105Y-90693568D01*
X68840519Y-90567431D01*
X68877039Y-90399118D01*
X68880153Y-90319011D01*
X68857442Y-90130400D01*
X68791015Y-89982479D01*
X68683429Y-89880434D01*
X68656638Y-89865708D01*
X68574519Y-89843136D01*
X68430725Y-89825446D01*
X68227965Y-89812918D01*
X68107179Y-89808729D01*
X67647268Y-89796044D01*
X67647268Y-90335809D01*
X67647268Y-90875574D01*
X67259975Y-90875574D01*
X67259975Y-90350762D01*
X67259975Y-90335809D01*
X67259975Y-89511626D01*
X67915743Y-89511626D01*
X68186023Y-89513482D01*
G37*
G36*
X68469605Y-46885013D02*
G01*
X68698213Y-46931898D01*
X68892119Y-47030981D01*
X69046517Y-47178746D01*
X69156598Y-47371679D01*
X69165033Y-47393456D01*
X69182958Y-47477628D01*
X69197942Y-47625555D01*
X69209934Y-47836506D01*
X69218886Y-48109752D01*
X69221063Y-48208386D01*
X69235038Y-48910356D01*
X68390013Y-48910356D01*
X67544988Y-48910356D01*
X67552612Y-48523062D01*
X67873189Y-48523062D01*
X68393319Y-48523062D01*
X68913449Y-48523062D01*
X68899308Y-48095425D01*
X68887677Y-47867559D01*
X68867837Y-47694099D01*
X68836735Y-47565109D01*
X68791316Y-47470653D01*
X68728528Y-47400794D01*
X68673924Y-47362009D01*
X68561684Y-47315580D01*
X68414791Y-47297499D01*
X68373444Y-47296874D01*
X68215500Y-47309012D01*
X68097066Y-47348446D01*
X68072963Y-47362009D01*
X67999851Y-47416775D01*
X67946418Y-47485583D01*
X67909850Y-47578632D01*
X67887334Y-47706123D01*
X67876057Y-47878255D01*
X67873189Y-48086320D01*
X67873189Y-48523062D01*
X67552612Y-48523062D01*
X67558807Y-48208386D01*
X67561708Y-48086320D01*
X67565094Y-47943812D01*
X67573728Y-47734481D01*
X67586801Y-47571089D01*
X67606412Y-47444332D01*
X67634653Y-47344903D01*
X67673621Y-47263499D01*
X67725411Y-47190814D01*
X67792118Y-47117545D01*
X67808091Y-47101340D01*
X67959429Y-46979102D01*
X68126808Y-46906923D01*
X68323875Y-46880342D01*
X68469605Y-46885013D01*
G37*
G36*
X76427792Y-128661519D02*
G01*
X76645040Y-128665143D01*
X76812113Y-128672477D01*
X76936188Y-128684578D01*
X77024441Y-128702505D01*
X77084049Y-128727314D01*
X77122190Y-128760066D01*
X77146040Y-128801816D01*
X77148186Y-128807227D01*
X77157695Y-128865289D01*
X77164066Y-128969559D01*
X77167298Y-129101774D01*
X77167392Y-129243670D01*
X77164348Y-129376982D01*
X77158166Y-129483446D01*
X77148845Y-129544798D01*
X77148186Y-129546648D01*
X77120423Y-129594829D01*
X77073630Y-129631522D01*
X76999914Y-129658173D01*
X76891384Y-129676225D01*
X76740146Y-129687124D01*
X76538310Y-129692314D01*
X76346838Y-129693329D01*
X75748158Y-129693329D01*
X75748158Y-130016073D01*
X75748158Y-130338818D01*
X75554511Y-130338818D01*
X75360864Y-130338818D01*
X75360864Y-129499682D01*
X75360864Y-129402859D01*
X75748158Y-129402859D01*
X76225820Y-129402859D01*
X76443795Y-129400490D01*
X76600567Y-129393227D01*
X76699310Y-129380829D01*
X76742211Y-129364129D01*
X76765669Y-129310137D01*
X76779431Y-129219422D01*
X76780940Y-129176938D01*
X76772975Y-129079049D01*
X76752900Y-129006221D01*
X76742211Y-128989746D01*
X76695520Y-128972264D01*
X76593810Y-128960142D01*
X76433906Y-128953141D01*
X76225820Y-128951016D01*
X75748158Y-128951016D01*
X75748158Y-129176938D01*
X75748158Y-129402859D01*
X75360864Y-129402859D01*
X75360864Y-129176938D01*
X75360864Y-128660546D01*
X76153191Y-128660546D01*
X76427792Y-128661519D01*
G37*
G36*
X78478033Y-70121259D02*
G01*
X78734365Y-70124290D01*
X78934050Y-70127403D01*
X79084986Y-70131310D01*
X79195072Y-70136718D01*
X79272206Y-70144340D01*
X79324286Y-70154883D01*
X79359212Y-70169059D01*
X79384881Y-70187576D01*
X79402397Y-70204327D01*
X79426876Y-70230974D01*
X79445208Y-70261216D01*
X79458283Y-70304112D01*
X79466987Y-70368717D01*
X79472208Y-70464089D01*
X79474835Y-70599284D01*
X79475755Y-70783360D01*
X79475858Y-70953812D01*
X79475624Y-71179290D01*
X79474331Y-71349277D01*
X79471091Y-71472829D01*
X79465017Y-71559002D01*
X79455221Y-71616854D01*
X79440814Y-71655441D01*
X79420910Y-71683820D01*
X79402397Y-71703296D01*
X79378496Y-71725449D01*
X79351131Y-71742739D01*
X79312404Y-71755877D01*
X79254416Y-71765572D01*
X79169269Y-71772534D01*
X79049064Y-71777473D01*
X78885903Y-71781099D01*
X78671887Y-71784121D01*
X78478033Y-71786364D01*
X77627129Y-71795918D01*
X77534848Y-71716541D01*
X77442567Y-71637164D01*
X77442567Y-71470203D01*
X77813723Y-71470203D01*
X78459212Y-71470203D01*
X79104701Y-71470203D01*
X79104701Y-70937674D01*
X79104701Y-70405146D01*
X78459212Y-70405146D01*
X77813723Y-70405146D01*
X77813723Y-70937674D01*
X77813723Y-71470203D01*
X77442567Y-71470203D01*
X77442567Y-70953812D01*
X77442567Y-70937674D01*
X77442567Y-70270459D01*
X77534848Y-70191082D01*
X77627129Y-70111705D01*
X78478033Y-70121259D01*
G37*
G36*
X78929876Y-153841208D02*
G01*
X79186208Y-153844239D01*
X79385893Y-153847352D01*
X79536829Y-153851259D01*
X79646914Y-153856668D01*
X79724048Y-153864289D01*
X79776129Y-153874832D01*
X79811054Y-153889008D01*
X79836724Y-153907525D01*
X79854240Y-153924276D01*
X79878718Y-153950923D01*
X79897051Y-153981165D01*
X79910125Y-154024061D01*
X79918829Y-154088666D01*
X79924051Y-154184038D01*
X79926678Y-154319234D01*
X79927597Y-154503309D01*
X79927700Y-154673761D01*
X79927467Y-154899239D01*
X79926174Y-155069226D01*
X79922934Y-155192778D01*
X79916860Y-155278951D01*
X79907063Y-155336803D01*
X79892656Y-155375390D01*
X79872752Y-155403769D01*
X79854240Y-155423246D01*
X79830338Y-155445398D01*
X79802974Y-155462688D01*
X79764246Y-155475826D01*
X79706258Y-155485521D01*
X79621111Y-155492483D01*
X79500907Y-155497422D01*
X79337746Y-155501048D01*
X79123730Y-155504070D01*
X78929876Y-155506314D01*
X78078972Y-155515867D01*
X77986691Y-155436490D01*
X77894409Y-155357113D01*
X77894409Y-155190152D01*
X78265566Y-155190152D01*
X78911055Y-155190152D01*
X79556544Y-155190152D01*
X79556544Y-154657624D01*
X79556544Y-154125095D01*
X78911055Y-154125095D01*
X78265566Y-154125095D01*
X78265566Y-154657624D01*
X78265566Y-155190152D01*
X77894409Y-155190152D01*
X77894409Y-154673761D01*
X77894409Y-154657624D01*
X77894409Y-153990408D01*
X77986691Y-153911031D01*
X78078972Y-153831654D01*
X78929876Y-153841208D01*
G37*
G36*
X82237313Y-123749112D02*
G01*
X82214214Y-123819380D01*
X82172037Y-123919246D01*
X82162428Y-123940051D01*
X82110019Y-124060435D01*
X82079399Y-124161110D01*
X82065046Y-124269004D01*
X82061437Y-124411042D01*
X82061465Y-124432237D01*
X82076941Y-124675311D01*
X82126927Y-124878551D01*
X82219159Y-125060521D01*
X82361375Y-125239785D01*
X82426019Y-125306954D01*
X82567541Y-125437647D01*
X82692592Y-125526712D01*
X82819293Y-125587016D01*
X82821606Y-125587882D01*
X83109610Y-125665111D01*
X83387364Y-125678692D01*
X83653459Y-125628894D01*
X83906489Y-125515992D01*
X84145045Y-125340258D01*
X84156772Y-125329640D01*
X84330095Y-125171232D01*
X84272152Y-125380192D01*
X84164167Y-125652913D01*
X84003741Y-125895131D01*
X83798562Y-126099828D01*
X83556313Y-126259984D01*
X83284680Y-126368582D01*
X83157287Y-126398324D01*
X83005815Y-126422301D01*
X82884639Y-126428616D01*
X82762192Y-126416754D01*
X82622618Y-126389637D01*
X82345431Y-126297583D01*
X82096774Y-126151483D01*
X81882730Y-125957813D01*
X81709387Y-125723047D01*
X81582827Y-125453662D01*
X81518902Y-125215143D01*
X81501268Y-124957747D01*
X81536024Y-124687073D01*
X81618748Y-124420490D01*
X81745019Y-124175365D01*
X81805687Y-124088578D01*
X81870990Y-124014397D01*
X81958747Y-123929211D01*
X82054404Y-123845390D01*
X82143403Y-123775298D01*
X82211188Y-123731304D01*
X82236527Y-123722554D01*
X82237313Y-123749112D01*
G37*
G36*
X83604208Y-90242749D02*
G01*
X83681470Y-90297758D01*
X83774604Y-90374326D01*
X83869052Y-90460085D01*
X83950259Y-90542668D01*
X83988214Y-90587689D01*
X84130410Y-90819607D01*
X84230800Y-91079818D01*
X84284961Y-91350954D01*
X84288473Y-91615648D01*
X84274999Y-91714254D01*
X84190585Y-92007142D01*
X84054465Y-92270217D01*
X83872715Y-92497225D01*
X83651412Y-92681916D01*
X83396631Y-92818038D01*
X83125013Y-92897434D01*
X82973540Y-92921412D01*
X82852364Y-92927726D01*
X82729918Y-92915865D01*
X82590343Y-92888748D01*
X82311566Y-92796257D01*
X82059990Y-92649573D01*
X81843370Y-92456019D01*
X81669457Y-92222920D01*
X81546004Y-91957598D01*
X81521749Y-91879303D01*
X81463806Y-91670343D01*
X81637129Y-91828750D01*
X81874911Y-92007675D01*
X82127238Y-92123781D01*
X82392703Y-92176796D01*
X82669897Y-92166448D01*
X82957414Y-92092464D01*
X82972295Y-92086993D01*
X83099184Y-92027072D01*
X83224110Y-91938615D01*
X83365192Y-91808751D01*
X83367882Y-91806064D01*
X83529903Y-91623248D01*
X83639167Y-91444383D01*
X83703410Y-91250904D01*
X83730369Y-91024247D01*
X83732436Y-90931347D01*
X83729769Y-90783236D01*
X83717039Y-90672588D01*
X83688723Y-90572477D01*
X83639299Y-90455979D01*
X83631473Y-90439162D01*
X83586264Y-90335329D01*
X83559235Y-90258458D01*
X83555192Y-90222659D01*
X83557374Y-90221664D01*
X83604208Y-90242749D01*
G37*
G36*
X71605932Y-94385070D02*
G01*
X72329999Y-94385070D01*
X72409218Y-94464289D01*
X72438787Y-94496127D01*
X72459899Y-94530270D01*
X72473979Y-94577470D01*
X72482449Y-94648482D01*
X72486733Y-94754060D01*
X72488253Y-94904958D01*
X72488437Y-95062833D01*
X72488091Y-95257020D01*
X72486103Y-95397412D01*
X72481051Y-95494764D01*
X72471511Y-95559829D01*
X72456059Y-95603363D01*
X72433273Y-95636119D01*
X72409218Y-95661378D01*
X72329999Y-95740597D01*
X71605932Y-95740597D01*
X71369556Y-95740214D01*
X71189013Y-95738616D01*
X71055593Y-95735133D01*
X70960581Y-95729090D01*
X70895265Y-95719818D01*
X70850934Y-95706642D01*
X70818873Y-95688892D01*
X70805672Y-95678864D01*
X70778027Y-95654313D01*
X70758034Y-95625644D01*
X70744454Y-95582838D01*
X70736048Y-95515873D01*
X70734568Y-95482401D01*
X71068361Y-95482401D01*
X71617027Y-95482401D01*
X72165693Y-95482401D01*
X72165693Y-95062833D01*
X72165693Y-94643265D01*
X71617027Y-94643265D01*
X71068361Y-94643265D01*
X71068361Y-95062833D01*
X71068361Y-95482401D01*
X70734568Y-95482401D01*
X70731577Y-95414727D01*
X70729800Y-95269380D01*
X70729479Y-95069811D01*
X70729479Y-95062833D01*
X70729479Y-95062774D01*
X70728308Y-94861007D01*
X70729511Y-94703602D01*
X70740163Y-94585088D01*
X70767338Y-94499997D01*
X70818111Y-94442856D01*
X70899555Y-94408197D01*
X71018747Y-94390549D01*
X71182759Y-94384441D01*
X71398667Y-94384404D01*
X71605932Y-94385070D01*
G37*
G36*
X73865144Y-156577954D02*
G01*
X74589211Y-156577954D01*
X74668430Y-156657173D01*
X74697999Y-156689012D01*
X74719112Y-156723154D01*
X74733191Y-156770354D01*
X74741661Y-156841366D01*
X74745945Y-156946944D01*
X74747466Y-157097842D01*
X74747649Y-157255718D01*
X74747303Y-157449904D01*
X74745316Y-157590296D01*
X74740263Y-157687648D01*
X74730723Y-157752714D01*
X74715271Y-157796247D01*
X74692485Y-157829003D01*
X74668430Y-157854262D01*
X74589211Y-157933481D01*
X73865144Y-157933481D01*
X73628768Y-157933098D01*
X73448226Y-157931501D01*
X73314805Y-157928017D01*
X73219793Y-157921975D01*
X73154477Y-157912702D01*
X73110146Y-157899526D01*
X73078085Y-157881776D01*
X73064884Y-157871749D01*
X73037239Y-157847197D01*
X73017246Y-157818529D01*
X73003666Y-157775722D01*
X72995260Y-157708757D01*
X72993780Y-157675286D01*
X73327573Y-157675286D01*
X73876239Y-157675286D01*
X74424905Y-157675286D01*
X74424905Y-157255718D01*
X74424905Y-156836150D01*
X73876239Y-156836150D01*
X73327573Y-156836150D01*
X73327573Y-157255718D01*
X73327573Y-157675286D01*
X72993780Y-157675286D01*
X72990789Y-157607612D01*
X72989012Y-157462265D01*
X72988691Y-157262696D01*
X72988691Y-157255718D01*
X72988691Y-157255659D01*
X72987520Y-157053891D01*
X72988723Y-156896486D01*
X72999375Y-156777973D01*
X73026550Y-156692881D01*
X73077323Y-156635741D01*
X73158767Y-156601081D01*
X73277959Y-156583433D01*
X73441971Y-156577325D01*
X73657879Y-156577288D01*
X73865144Y-156577954D01*
G37*
G36*
X71253939Y-115590416D02*
G01*
X71505389Y-115591865D01*
X71698698Y-115595626D01*
X71840244Y-115602061D01*
X71936405Y-115611533D01*
X71993560Y-115624403D01*
X72011120Y-115633390D01*
X72075575Y-115714581D01*
X72115967Y-115831162D01*
X72133193Y-115967656D01*
X72128150Y-116108584D01*
X72101733Y-116238467D01*
X72054840Y-116341829D01*
X71988365Y-116403191D01*
X71966104Y-116410797D01*
X71884846Y-116423854D01*
X71779478Y-116434624D01*
X71757815Y-116436152D01*
X71624270Y-116444663D01*
X71947348Y-116694790D01*
X72270425Y-116944917D01*
X72020587Y-116944917D01*
X71770748Y-116944917D01*
X71487929Y-116686721D01*
X71365712Y-116576483D01*
X71278028Y-116503061D01*
X71212424Y-116459011D01*
X71156449Y-116436890D01*
X71097652Y-116429253D01*
X71056049Y-116428526D01*
X70906989Y-116428526D01*
X70906989Y-116686721D01*
X70906989Y-116944917D01*
X70729479Y-116944917D01*
X70551970Y-116944917D01*
X70551970Y-116267154D01*
X70551970Y-116170330D01*
X70906989Y-116170330D01*
X71320102Y-116170330D01*
X71527063Y-116167207D01*
X71671097Y-116157761D01*
X71753528Y-116141879D01*
X71771944Y-116131601D01*
X71804315Y-116061701D01*
X71806783Y-115970744D01*
X71779347Y-115894877D01*
X71771944Y-115886315D01*
X71719517Y-115867205D01*
X71606141Y-115854587D01*
X71430494Y-115848349D01*
X71320102Y-115847586D01*
X70906989Y-115847586D01*
X70906989Y-116008958D01*
X70906989Y-116170330D01*
X70551970Y-116170330D01*
X70551970Y-116008958D01*
X70551970Y-115589390D01*
X71253939Y-115590416D01*
G37*
G36*
X71738056Y-156578980D02*
G01*
X71989506Y-156580429D01*
X72182815Y-156584190D01*
X72324360Y-156590625D01*
X72420522Y-156600097D01*
X72477677Y-156612967D01*
X72495237Y-156621954D01*
X72559691Y-156703145D01*
X72600084Y-156819726D01*
X72617310Y-156956220D01*
X72612267Y-157097148D01*
X72585850Y-157227032D01*
X72538957Y-157330393D01*
X72472482Y-157391755D01*
X72450221Y-157399361D01*
X72368963Y-157412418D01*
X72263595Y-157423188D01*
X72241932Y-157424716D01*
X72108387Y-157433227D01*
X72431464Y-157683354D01*
X72754542Y-157933481D01*
X72504703Y-157933481D01*
X72254865Y-157933481D01*
X71972046Y-157675286D01*
X71849829Y-157565047D01*
X71762145Y-157491625D01*
X71696541Y-157447575D01*
X71640566Y-157425454D01*
X71581768Y-157417817D01*
X71540166Y-157417090D01*
X71391106Y-157417090D01*
X71391106Y-157675286D01*
X71391106Y-157933481D01*
X71213596Y-157933481D01*
X71036086Y-157933481D01*
X71036086Y-157255718D01*
X71036086Y-157158894D01*
X71391106Y-157158894D01*
X71804219Y-157158894D01*
X72011180Y-157155771D01*
X72155214Y-157146325D01*
X72237645Y-157130443D01*
X72256061Y-157120165D01*
X72288432Y-157050265D01*
X72290900Y-156959308D01*
X72263464Y-156883442D01*
X72256061Y-156874879D01*
X72203634Y-156855769D01*
X72090258Y-156843152D01*
X71914611Y-156836913D01*
X71804219Y-156836150D01*
X71391106Y-156836150D01*
X71391106Y-156997522D01*
X71391106Y-157158894D01*
X71036086Y-157158894D01*
X71036086Y-156997522D01*
X71036086Y-156577954D01*
X71738056Y-156578980D01*
G37*
G36*
X81100853Y-41571430D02*
G01*
X81233188Y-41587081D01*
X81327032Y-41618045D01*
X81388865Y-41669165D01*
X81425169Y-41745287D01*
X81442428Y-41851254D01*
X81447122Y-41991909D01*
X81445734Y-42172098D01*
X81444600Y-42342503D01*
X81446150Y-42560419D01*
X81446388Y-42733370D01*
X81438695Y-42866563D01*
X81416450Y-42965205D01*
X81373036Y-43034504D01*
X81301833Y-43079666D01*
X81196222Y-43105898D01*
X81049582Y-43118408D01*
X80855296Y-43122404D01*
X80606744Y-43123091D01*
X80451317Y-43123890D01*
X80220557Y-43124639D01*
X80008330Y-43123232D01*
X79824036Y-43119900D01*
X79677072Y-43114871D01*
X79576839Y-43108375D01*
X79534448Y-43101504D01*
X79488583Y-43076910D01*
X79453942Y-43040498D01*
X79428984Y-42983765D01*
X79412171Y-42898207D01*
X79407565Y-42842757D01*
X79782465Y-42842757D01*
X80411817Y-42842757D01*
X81041169Y-42842757D01*
X81041169Y-42342503D01*
X81041169Y-41842249D01*
X80411817Y-41842249D01*
X79782465Y-41842249D01*
X79782465Y-42342503D01*
X79782465Y-42842757D01*
X79407565Y-42842757D01*
X79401963Y-42775320D01*
X79396821Y-42606602D01*
X79395207Y-42383548D01*
X79395179Y-42342503D01*
X79395172Y-42332063D01*
X79395698Y-42116253D01*
X79397855Y-41955334D01*
X79402508Y-41839654D01*
X79410523Y-41759561D01*
X79422765Y-41705401D01*
X79440101Y-41667522D01*
X79456869Y-41644109D01*
X79518566Y-41567916D01*
X80408069Y-41567916D01*
X80694775Y-41566692D01*
X80923542Y-41566249D01*
X81100853Y-41571430D01*
G37*
G36*
X83519586Y-76056191D02*
G01*
X83803153Y-76120392D01*
X83832600Y-76130199D01*
X84173175Y-76279689D01*
X84474888Y-76478132D01*
X84733577Y-76722206D01*
X84945082Y-77008593D01*
X84955864Y-77026516D01*
X85065711Y-77231707D01*
X85142389Y-77429179D01*
X85190400Y-77637344D01*
X85214244Y-77874610D01*
X85218925Y-78102605D01*
X85216715Y-78285278D01*
X85210367Y-78420633D01*
X85197597Y-78525875D01*
X85176118Y-78618208D01*
X85143644Y-78714835D01*
X85134275Y-78739753D01*
X84974154Y-79076360D01*
X84767116Y-79373710D01*
X84517861Y-79627280D01*
X84231089Y-79832548D01*
X83911501Y-79984995D01*
X83800635Y-80022633D01*
X83582398Y-80072853D01*
X83338973Y-80101350D01*
X83095138Y-80106862D01*
X82875672Y-80088128D01*
X82800127Y-80073533D01*
X82434220Y-79958392D01*
X82110696Y-79794566D01*
X81829538Y-79582040D01*
X81590727Y-79320798D01*
X81394247Y-79010826D01*
X81272109Y-78739753D01*
X81238043Y-78645265D01*
X81214665Y-78559847D01*
X81200002Y-78467705D01*
X81192083Y-78353049D01*
X81188935Y-78200087D01*
X81188514Y-78070330D01*
X81189591Y-77883396D01*
X81194136Y-77745202D01*
X81204123Y-77639956D01*
X81221522Y-77551866D01*
X81248306Y-77465140D01*
X81272109Y-77400908D01*
X81436037Y-77056901D01*
X81645468Y-76756991D01*
X81897867Y-76503598D01*
X82190697Y-76299142D01*
X82521422Y-76146045D01*
X82622618Y-76112045D01*
X82905530Y-76051661D01*
X83212449Y-76033162D01*
X83519586Y-76056191D01*
G37*
G36*
X77353812Y-158450899D02*
G01*
X77605262Y-158452348D01*
X77798571Y-158456109D01*
X77940116Y-158462544D01*
X78036278Y-158472016D01*
X78093433Y-158484885D01*
X78110993Y-158493872D01*
X78175448Y-158575064D01*
X78215840Y-158691645D01*
X78233066Y-158828139D01*
X78228023Y-158969066D01*
X78201606Y-159098950D01*
X78154713Y-159202312D01*
X78088238Y-159263674D01*
X78065977Y-159271280D01*
X77984719Y-159284336D01*
X77879351Y-159295107D01*
X77857688Y-159296635D01*
X77724143Y-159305146D01*
X78047220Y-159555273D01*
X78370298Y-159805400D01*
X78120459Y-159805400D01*
X77870621Y-159805400D01*
X77587802Y-159547204D01*
X77465585Y-159436966D01*
X77377901Y-159363544D01*
X77312297Y-159319494D01*
X77256322Y-159297373D01*
X77197525Y-159289736D01*
X77155922Y-159289009D01*
X77006862Y-159289009D01*
X77006862Y-159547204D01*
X77006862Y-159805400D01*
X76829352Y-159805400D01*
X76651843Y-159805400D01*
X76651843Y-159127636D01*
X76651843Y-159030813D01*
X77006862Y-159030813D01*
X77419975Y-159030813D01*
X77626936Y-159027689D01*
X77770970Y-159018243D01*
X77853401Y-159002361D01*
X77871817Y-158992084D01*
X77901640Y-158931733D01*
X77910546Y-158869441D01*
X77905202Y-158807473D01*
X77882926Y-158763642D01*
X77834354Y-158734867D01*
X77750120Y-158718068D01*
X77620860Y-158710165D01*
X77437210Y-158708077D01*
X77419975Y-158708068D01*
X77006862Y-158708068D01*
X77006862Y-158869441D01*
X77006862Y-159030813D01*
X76651843Y-159030813D01*
X76651843Y-158869441D01*
X76651843Y-158449873D01*
X77353812Y-158450899D01*
G37*
G36*
X77877584Y-41203470D02*
G01*
X78845130Y-41212897D01*
X78934572Y-41302385D01*
X78971735Y-41341812D01*
X78996848Y-41380745D01*
X79012272Y-41432156D01*
X79020368Y-41509015D01*
X79023495Y-41624291D01*
X79024015Y-41790957D01*
X79024015Y-41793837D01*
X79023491Y-41961456D01*
X79020370Y-42077468D01*
X79012333Y-42154817D01*
X78997058Y-42206444D01*
X78972226Y-42245292D01*
X78936192Y-42283624D01*
X78881436Y-42330241D01*
X78819062Y-42359435D01*
X78729928Y-42377206D01*
X78599150Y-42389249D01*
X78349931Y-42407052D01*
X78789852Y-42762071D01*
X79229773Y-43117090D01*
X78907001Y-43126310D01*
X78584230Y-43135530D01*
X78190908Y-42764051D01*
X77797586Y-42392571D01*
X77595870Y-42391743D01*
X77394155Y-42390915D01*
X77394155Y-42762071D01*
X77394155Y-43133227D01*
X77152097Y-43133227D01*
X76910038Y-43133227D01*
X76910038Y-42163636D01*
X76910038Y-42035896D01*
X77394155Y-42035896D01*
X77934752Y-42035401D01*
X78117875Y-42033475D01*
X78280406Y-42028460D01*
X78410493Y-42020982D01*
X78496280Y-42011667D01*
X78523761Y-42004304D01*
X78556234Y-41954080D01*
X78570907Y-41851515D01*
X78572173Y-41793837D01*
X78564180Y-41668140D01*
X78539070Y-41597750D01*
X78523761Y-41583370D01*
X78476498Y-41573133D01*
X78376544Y-41564290D01*
X78235753Y-41557467D01*
X78065981Y-41553289D01*
X77934752Y-41552273D01*
X77394155Y-41551779D01*
X77394155Y-41793837D01*
X77394155Y-42035896D01*
X76910038Y-42035896D01*
X76910038Y-41793837D01*
X76910038Y-41194044D01*
X77877584Y-41203470D01*
G37*
G36*
X68538069Y-49235519D02*
G01*
X68718073Y-49240290D01*
X68870997Y-49248804D01*
X68981589Y-49261059D01*
X69013442Y-49267783D01*
X69075704Y-49288732D01*
X69124966Y-49317851D01*
X69162618Y-49362215D01*
X69190049Y-49428902D01*
X69208649Y-49524986D01*
X69219807Y-49657544D01*
X69224911Y-49833651D01*
X69225352Y-50060384D01*
X69222663Y-50333380D01*
X69220453Y-50605833D01*
X69217675Y-50820768D01*
X69208660Y-50985012D01*
X69187743Y-51105393D01*
X69149255Y-51188740D01*
X69087529Y-51241882D01*
X68996898Y-51271646D01*
X68871695Y-51284862D01*
X68706252Y-51288356D01*
X68494901Y-51288958D01*
X68429101Y-51289512D01*
X68228980Y-51290314D01*
X68047832Y-51288420D01*
X67896765Y-51284154D01*
X67786890Y-51277844D01*
X67729315Y-51269814D01*
X67726834Y-51268917D01*
X67679333Y-51246700D01*
X67642216Y-51219545D01*
X67614082Y-51179720D01*
X67593529Y-51119492D01*
X67579154Y-51031126D01*
X67569902Y-50911372D01*
X67873189Y-50911372D01*
X68389581Y-50911372D01*
X68905972Y-50911372D01*
X68905972Y-50282020D01*
X68905972Y-49652668D01*
X68389581Y-49652668D01*
X67873189Y-49652668D01*
X67873189Y-50282020D01*
X67873189Y-50911372D01*
X67569902Y-50911372D01*
X67569556Y-50906891D01*
X67563332Y-50739052D01*
X67559081Y-50519877D01*
X67556498Y-50329330D01*
X67556038Y-50282020D01*
X67553760Y-50047721D01*
X67554376Y-49823540D01*
X67559744Y-49649696D01*
X67571263Y-49519098D01*
X67590329Y-49424654D01*
X67618341Y-49359273D01*
X67656696Y-49315864D01*
X67706791Y-49287336D01*
X67765719Y-49267783D01*
X67852322Y-49253847D01*
X67988111Y-49243653D01*
X68157835Y-49237200D01*
X68346238Y-49234489D01*
X68538069Y-49235519D01*
G37*
G36*
X68538069Y-51623829D02*
G01*
X68718073Y-51628600D01*
X68870997Y-51637114D01*
X68981589Y-51649369D01*
X69013442Y-51656094D01*
X69075704Y-51677042D01*
X69124966Y-51706161D01*
X69162618Y-51750525D01*
X69190049Y-51817212D01*
X69208649Y-51913296D01*
X69219807Y-52045854D01*
X69224911Y-52221961D01*
X69225352Y-52448694D01*
X69222663Y-52721690D01*
X69220453Y-52994144D01*
X69217675Y-53209078D01*
X69208660Y-53373322D01*
X69187743Y-53493703D01*
X69149255Y-53577050D01*
X69087529Y-53630192D01*
X68996898Y-53659957D01*
X68871695Y-53673172D01*
X68706252Y-53676666D01*
X68494901Y-53677269D01*
X68429101Y-53677822D01*
X68228980Y-53678624D01*
X68047832Y-53676730D01*
X67896765Y-53672464D01*
X67786890Y-53666154D01*
X67729315Y-53658124D01*
X67726834Y-53657227D01*
X67679333Y-53635010D01*
X67642216Y-53607855D01*
X67614082Y-53568030D01*
X67593529Y-53507802D01*
X67579154Y-53419436D01*
X67569902Y-53299682D01*
X67873189Y-53299682D01*
X68389581Y-53299682D01*
X68905972Y-53299682D01*
X68905972Y-52670330D01*
X68905972Y-52040978D01*
X68389581Y-52040978D01*
X67873189Y-52040978D01*
X67873189Y-52670330D01*
X67873189Y-53299682D01*
X67569902Y-53299682D01*
X67569556Y-53295201D01*
X67563332Y-53127362D01*
X67559081Y-52908187D01*
X67556498Y-52717640D01*
X67556038Y-52670330D01*
X67553760Y-52436031D01*
X67554376Y-52211850D01*
X67559744Y-52038006D01*
X67571263Y-51907408D01*
X67590329Y-51812964D01*
X67618341Y-51747583D01*
X67656696Y-51704174D01*
X67706791Y-51675646D01*
X67765719Y-51656094D01*
X67852322Y-51642157D01*
X67988111Y-51631963D01*
X68157835Y-51625510D01*
X68346238Y-51622799D01*
X68538069Y-51623829D01*
G37*
G36*
X69919856Y-105293988D02*
G01*
X69989824Y-105467753D01*
X70051650Y-105618004D01*
X70101456Y-105735579D01*
X70135361Y-105811316D01*
X70149453Y-105836089D01*
X70162928Y-105803999D01*
X70194227Y-105721203D01*
X70239615Y-105597835D01*
X70295355Y-105444030D01*
X70343428Y-105309974D01*
X70405661Y-105137933D01*
X70461767Y-104987052D01*
X70507690Y-104867910D01*
X70539374Y-104791085D01*
X70551414Y-104767531D01*
X70594897Y-104754305D01*
X70679460Y-104749581D01*
X70735979Y-104751393D01*
X70896932Y-104761309D01*
X70582079Y-105584307D01*
X70267227Y-106407306D01*
X70127197Y-106416442D01*
X69987167Y-106425579D01*
X69763844Y-105859799D01*
X69693529Y-105683721D01*
X69631071Y-105531218D01*
X69580298Y-105411325D01*
X69545042Y-105333078D01*
X69529132Y-105305513D01*
X69528913Y-105305628D01*
X69513759Y-105337871D01*
X69478718Y-105420395D01*
X69427798Y-105543515D01*
X69365006Y-105697548D01*
X69298577Y-105862271D01*
X69079850Y-106407306D01*
X68936431Y-106416153D01*
X68793012Y-106425001D01*
X68489939Y-105625429D01*
X68408376Y-105410227D01*
X68333983Y-105213897D01*
X68269934Y-105044823D01*
X68219406Y-104911393D01*
X68185576Y-104821992D01*
X68171810Y-104785514D01*
X68182041Y-104762261D01*
X68239779Y-104749389D01*
X68353106Y-104745185D01*
X68362377Y-104745171D01*
X68568001Y-104745171D01*
X68775181Y-105299403D01*
X68851803Y-105501041D01*
X68910350Y-105646721D01*
X68953305Y-105741676D01*
X68983149Y-105791135D01*
X69002364Y-105800331D01*
X69008710Y-105791588D01*
X69029126Y-105741215D01*
X69068341Y-105642528D01*
X69121688Y-105507345D01*
X69184496Y-105347485D01*
X69224473Y-105245425D01*
X69413888Y-104761309D01*
X69556875Y-104751736D01*
X69699862Y-104742164D01*
X69919856Y-105293988D01*
G37*
G36*
X80003582Y-156578709D02*
G01*
X80187789Y-156582997D01*
X80323294Y-156593849D01*
X80418022Y-156614298D01*
X80479896Y-156647376D01*
X80516838Y-156696115D01*
X80536772Y-156763548D01*
X80547621Y-156852707D01*
X80549880Y-156879200D01*
X80556170Y-156983278D01*
X80550401Y-157038408D01*
X80528850Y-157059653D01*
X80504568Y-157062426D01*
X80432678Y-157067850D01*
X80336246Y-157080661D01*
X80323062Y-157082786D01*
X80202033Y-157102791D01*
X80202033Y-156969470D01*
X80202033Y-156836150D01*
X79766328Y-156836150D01*
X79330623Y-156836150D01*
X79330623Y-157255718D01*
X79330623Y-157675286D01*
X79766328Y-157675286D01*
X80202033Y-157675286D01*
X80202033Y-157526459D01*
X80202033Y-157377632D01*
X80323062Y-157399082D01*
X80442897Y-157422000D01*
X80512696Y-157446107D01*
X80545982Y-157483847D01*
X80556280Y-157547664D01*
X80557052Y-157614379D01*
X80548951Y-157727821D01*
X80518661Y-157805275D01*
X80477833Y-157854262D01*
X80448960Y-157881500D01*
X80418262Y-157901646D01*
X80376208Y-157915772D01*
X80313263Y-157924944D01*
X80219894Y-157930233D01*
X80086569Y-157932708D01*
X79903755Y-157933437D01*
X79771370Y-157933481D01*
X79552627Y-157932979D01*
X79388923Y-157930915D01*
X79270753Y-157926456D01*
X79188614Y-157918770D01*
X79132999Y-157907023D01*
X79094404Y-157890382D01*
X79067934Y-157871810D01*
X79037256Y-157843446D01*
X79015718Y-157808780D01*
X79001301Y-157756230D01*
X78991988Y-157674214D01*
X78985763Y-157551152D01*
X78980609Y-157375461D01*
X78980457Y-157369548D01*
X78974501Y-157125047D01*
X78975578Y-156936868D01*
X78990966Y-156797646D01*
X79027944Y-156700015D01*
X79093790Y-156636609D01*
X79195783Y-156600065D01*
X79341203Y-156583016D01*
X79537327Y-156578097D01*
X79762752Y-156577954D01*
X80003582Y-156578709D01*
G37*
G36*
X82931425Y-41568099D02*
G01*
X83119282Y-41569104D01*
X83258883Y-41571615D01*
X83358376Y-41576317D01*
X83425906Y-41583893D01*
X83469620Y-41595028D01*
X83497665Y-41610405D01*
X83518188Y-41630709D01*
X83524384Y-41638219D01*
X83557045Y-41703005D01*
X83585039Y-41799533D01*
X83604675Y-41906143D01*
X83612263Y-42001178D01*
X83604112Y-42062979D01*
X83598244Y-42071623D01*
X83555523Y-42086850D01*
X83469598Y-42103877D01*
X83389136Y-42115226D01*
X83203558Y-42137364D01*
X83203558Y-41989806D01*
X83203558Y-41842249D01*
X82687167Y-41842249D01*
X82170775Y-41842249D01*
X82170775Y-42342503D01*
X82170775Y-42842757D01*
X82687167Y-42842757D01*
X83203558Y-42842757D01*
X83203558Y-42663785D01*
X83203558Y-42484813D01*
X83324587Y-42507441D01*
X83458916Y-42533433D01*
X83541815Y-42557358D01*
X83585088Y-42590116D01*
X83600537Y-42642609D01*
X83599966Y-42725736D01*
X83598343Y-42760256D01*
X83582815Y-42912440D01*
X83549320Y-43013793D01*
X83492108Y-43076864D01*
X83441553Y-43102498D01*
X83383051Y-43112241D01*
X83272360Y-43119896D01*
X83121538Y-43125477D01*
X82942647Y-43128997D01*
X82747746Y-43130471D01*
X82548895Y-43129912D01*
X82358154Y-43127335D01*
X82187583Y-43122753D01*
X82049242Y-43116181D01*
X81955191Y-43107634D01*
X81922758Y-43100727D01*
X81876914Y-43076613D01*
X81842280Y-43040490D01*
X81817320Y-42983884D01*
X81800500Y-42898320D01*
X81790283Y-42775322D01*
X81785134Y-42606415D01*
X81783516Y-42383124D01*
X81783482Y-42332063D01*
X81784008Y-42116253D01*
X81786165Y-41955334D01*
X81790818Y-41839654D01*
X81798833Y-41759561D01*
X81811075Y-41705401D01*
X81828411Y-41667522D01*
X81845179Y-41644109D01*
X81906876Y-41567916D01*
X82687167Y-41567916D01*
X82931425Y-41568099D01*
G37*
G36*
X76149381Y-76125992D02*
G01*
X76599016Y-76133863D01*
X77611567Y-77892821D01*
X77792278Y-78206748D01*
X77965765Y-78508131D01*
X78128949Y-78791621D01*
X78278752Y-79051871D01*
X78412096Y-79283533D01*
X78525901Y-79481258D01*
X78617091Y-79639698D01*
X78682586Y-79753506D01*
X78719309Y-79817334D01*
X78721543Y-79821220D01*
X78818969Y-79990661D01*
X78303459Y-79990661D01*
X77787948Y-79990661D01*
X77556538Y-79570711D01*
X77325128Y-79150762D01*
X76095242Y-79159212D01*
X74865357Y-79167662D01*
X74642748Y-79579161D01*
X74420140Y-79990661D01*
X73967990Y-79990661D01*
X73806269Y-79988751D01*
X73671813Y-79983501D01*
X73575734Y-79975631D01*
X73529139Y-79965861D01*
X73526599Y-79962068D01*
X73543945Y-79929838D01*
X73590524Y-79846118D01*
X73663712Y-79715556D01*
X73760886Y-79542805D01*
X73879425Y-79332513D01*
X74016706Y-79089331D01*
X74170106Y-78817909D01*
X74337003Y-78522898D01*
X74396808Y-78417281D01*
X75273513Y-78417281D01*
X75300719Y-78423754D01*
X75384190Y-78429574D01*
X75515640Y-78434499D01*
X75686786Y-78438287D01*
X75889345Y-78440696D01*
X76101928Y-78441486D01*
X76943625Y-78441486D01*
X76873719Y-78304320D01*
X76834730Y-78229220D01*
X76774743Y-78115400D01*
X76698798Y-77972266D01*
X76611935Y-77809222D01*
X76519196Y-77635674D01*
X76425619Y-77461025D01*
X76336246Y-77294682D01*
X76256117Y-77146048D01*
X76190272Y-77024530D01*
X76143751Y-76939531D01*
X76121595Y-76900456D01*
X76120592Y-76899034D01*
X76103278Y-76923583D01*
X76059231Y-76997583D01*
X75992567Y-77113787D01*
X75907402Y-77264946D01*
X75807853Y-77443812D01*
X75699018Y-77641347D01*
X75588700Y-77842522D01*
X75488527Y-78025195D01*
X75402705Y-78181697D01*
X75335441Y-78304356D01*
X75290940Y-78385504D01*
X75273513Y-78417281D01*
X74396808Y-78417281D01*
X74514774Y-78208948D01*
X74618552Y-78025798D01*
X75699746Y-76118121D01*
X76149381Y-76125992D01*
G37*
G36*
X86205083Y-51556861D02*
G01*
X86205083Y-58108577D01*
X81307433Y-58105188D01*
X80631404Y-58104641D01*
X80016843Y-58103958D01*
X79460667Y-58103110D01*
X78959796Y-58102068D01*
X78511148Y-58100800D01*
X78111642Y-58099279D01*
X77758196Y-58097473D01*
X77447728Y-58095353D01*
X77177158Y-58092889D01*
X76943404Y-58090052D01*
X76743384Y-58086812D01*
X76574017Y-58083139D01*
X76432222Y-58079003D01*
X76314916Y-58074374D01*
X76219020Y-58069223D01*
X76141450Y-58063520D01*
X76079127Y-58057235D01*
X76057113Y-58054462D01*
X75432327Y-57938755D01*
X74827808Y-57763823D01*
X74247054Y-57532747D01*
X73693566Y-57248612D01*
X73170843Y-56914500D01*
X72682383Y-56533493D01*
X72231686Y-56108676D01*
X71822253Y-55643130D01*
X71457581Y-55139939D01*
X71141170Y-54602186D01*
X70876520Y-54032954D01*
X70667131Y-53435326D01*
X70618893Y-53263367D01*
X70548479Y-52984781D01*
X70495282Y-52737999D01*
X70457114Y-52505292D01*
X70431786Y-52268930D01*
X70417112Y-52011184D01*
X70410903Y-51714323D01*
X70410293Y-51572998D01*
X70411324Y-51318620D01*
X70415523Y-51113217D01*
X70423934Y-50941251D01*
X70437601Y-50787182D01*
X70457565Y-50635472D01*
X70483971Y-50475667D01*
X70629661Y-49828070D01*
X70832352Y-49210513D01*
X71091785Y-48623509D01*
X71407704Y-48067568D01*
X71779850Y-47543204D01*
X72207966Y-47050927D01*
X72209888Y-47048922D01*
X72565471Y-46699539D01*
X72920910Y-46396883D01*
X73292967Y-46128722D01*
X73698408Y-45882825D01*
X74086023Y-45680103D01*
X74658740Y-45430796D01*
X75244550Y-45241301D01*
X75851477Y-45109403D01*
X76409784Y-45039189D01*
X76501132Y-45034243D01*
X76655258Y-45029648D01*
X76870394Y-45025415D01*
X77144770Y-45021555D01*
X77476618Y-45018080D01*
X77864167Y-45015002D01*
X78305649Y-45012332D01*
X78799293Y-45010083D01*
X79343332Y-45008266D01*
X79935996Y-45006892D01*
X80575516Y-45005974D01*
X81260121Y-45005524D01*
X81501080Y-45005479D01*
X86205083Y-45005146D01*
X86205083Y-51556861D01*
G37*
G36*
X83249369Y-85603801D02*
G01*
X83528570Y-85695507D01*
X83655400Y-85760161D01*
X83899148Y-85935951D01*
X84114972Y-86159771D01*
X84290771Y-86417073D01*
X84402141Y-86657942D01*
X84448546Y-86841034D01*
X84473322Y-87059182D01*
X84476102Y-87288165D01*
X84456515Y-87503762D01*
X84417582Y-87671982D01*
X84285737Y-87970841D01*
X84107181Y-88233427D01*
X83888144Y-88454243D01*
X83634857Y-88627795D01*
X83353552Y-88748589D01*
X83139009Y-88799511D01*
X82971602Y-88822575D01*
X82836898Y-88828759D01*
X82705110Y-88817348D01*
X82546450Y-88787627D01*
X82534271Y-88784995D01*
X82247010Y-88690742D01*
X81985054Y-88542527D01*
X81754523Y-88348019D01*
X81561538Y-88114888D01*
X81412217Y-87850803D01*
X81312681Y-87563434D01*
X81269050Y-87260451D01*
X81267567Y-87197522D01*
X81268519Y-87187865D01*
X81670521Y-87187865D01*
X81672649Y-87340267D01*
X81682036Y-87451167D01*
X81703187Y-87543553D01*
X81740606Y-87640413D01*
X81772973Y-87710734D01*
X81920854Y-87954335D01*
X82107593Y-88151140D01*
X82325851Y-88298100D01*
X82568287Y-88392165D01*
X82827563Y-88430285D01*
X83096339Y-88409410D01*
X83309946Y-88349433D01*
X83544044Y-88228511D01*
X83748932Y-88056168D01*
X83914914Y-87842514D01*
X84032295Y-87597655D01*
X84033029Y-87595549D01*
X84077690Y-87395854D01*
X84089369Y-87167988D01*
X84068689Y-86938889D01*
X84016270Y-86735499D01*
X84012964Y-86726838D01*
X83919371Y-86549698D01*
X83783014Y-86372191D01*
X83621765Y-86213831D01*
X83453495Y-86094136D01*
X83414845Y-86073718D01*
X83158510Y-85981930D01*
X82897399Y-85950296D01*
X82639882Y-85975774D01*
X82394330Y-86055324D01*
X82169114Y-86185903D01*
X81972605Y-86364470D01*
X81813173Y-86587983D01*
X81769985Y-86671381D01*
X81721870Y-86779644D01*
X81692277Y-86871316D01*
X81676816Y-86969186D01*
X81671101Y-87096039D01*
X81670521Y-87187865D01*
X81268519Y-87187865D01*
X81297013Y-86898807D01*
X81382833Y-86607006D01*
X81518706Y-86333208D01*
X81698312Y-86088505D01*
X81915330Y-85883986D01*
X82078245Y-85775116D01*
X82355251Y-85651793D01*
X82650748Y-85582058D01*
X82952774Y-85566022D01*
X83249369Y-85603801D01*
G37*
G36*
X69299338Y-120566500D02*
G01*
X69365054Y-120567266D01*
X69613330Y-120570865D01*
X69804953Y-120576470D01*
X69947814Y-120586479D01*
X70049809Y-120603291D01*
X70118829Y-120629306D01*
X70162768Y-120666924D01*
X70189521Y-120718542D01*
X70206980Y-120786560D01*
X70214314Y-120825392D01*
X70221780Y-120897302D01*
X70205101Y-120945491D01*
X70153062Y-120979530D01*
X70054449Y-121008984D01*
X69979098Y-121026089D01*
X69907829Y-121037162D01*
X69879408Y-121017663D01*
X69874208Y-120953267D01*
X69874206Y-120949515D01*
X69874206Y-120850127D01*
X69325540Y-120850127D01*
X68776874Y-120850127D01*
X68776874Y-121043774D01*
X68776874Y-121237420D01*
X69408709Y-121237420D01*
X70040544Y-121237420D01*
X70134884Y-121331761D01*
X70179801Y-121380303D01*
X70207601Y-121427407D01*
X70222376Y-121489810D01*
X70228219Y-121584250D01*
X70229225Y-121717536D01*
X70223724Y-121902901D01*
X70205035Y-122035055D01*
X70169877Y-122124568D01*
X70114973Y-122182013D01*
X70078912Y-122202095D01*
X70013131Y-122216634D01*
X69895754Y-122227546D01*
X69738821Y-122234945D01*
X69554372Y-122238943D01*
X69354444Y-122239652D01*
X69151077Y-122237187D01*
X68956311Y-122231658D01*
X68782183Y-122223180D01*
X68640733Y-122211865D01*
X68544001Y-122197825D01*
X68511020Y-122187409D01*
X68437081Y-122120869D01*
X68404103Y-122051535D01*
X68377620Y-121926308D01*
X68369398Y-121850484D01*
X68388236Y-121809614D01*
X68442931Y-121789248D01*
X68542282Y-121774939D01*
X68575159Y-121770610D01*
X68673334Y-121758947D01*
X68723623Y-121762176D01*
X68742040Y-121786050D01*
X68744600Y-121831469D01*
X68744600Y-121915184D01*
X69309403Y-121915184D01*
X69874206Y-121915184D01*
X69874206Y-121737674D01*
X69874206Y-121560165D01*
X69269060Y-121559689D01*
X69030236Y-121558317D01*
X68847458Y-121553261D01*
X68712242Y-121542477D01*
X68616105Y-121523920D01*
X68550566Y-121495547D01*
X68507140Y-121455313D01*
X68477345Y-121401174D01*
X68464020Y-121365677D01*
X68436890Y-121235583D01*
X68426943Y-121073201D01*
X68434181Y-120908459D01*
X68458602Y-120771289D01*
X68464020Y-120754145D01*
X68488092Y-120694102D01*
X68519244Y-120647806D01*
X68565412Y-120613609D01*
X68634535Y-120589866D01*
X68734551Y-120574930D01*
X68873398Y-120567155D01*
X69059015Y-120564893D01*
X69299338Y-120566500D01*
G37*
G36*
X69396161Y-125891785D02*
G01*
X69461877Y-125892552D01*
X69710154Y-125896151D01*
X69901776Y-125901756D01*
X70044638Y-125911765D01*
X70146632Y-125928577D01*
X70215652Y-125954592D01*
X70259592Y-125992209D01*
X70286344Y-126043828D01*
X70303803Y-126111846D01*
X70311137Y-126150678D01*
X70318604Y-126222588D01*
X70301925Y-126270777D01*
X70249886Y-126304815D01*
X70151273Y-126334270D01*
X70075921Y-126351375D01*
X70004653Y-126362447D01*
X69976231Y-126342949D01*
X69971032Y-126278553D01*
X69971029Y-126274800D01*
X69971029Y-126175413D01*
X69422363Y-126175413D01*
X68873698Y-126175413D01*
X68873698Y-126369059D01*
X68873698Y-126562706D01*
X69505532Y-126562706D01*
X70137367Y-126562706D01*
X70231708Y-126657047D01*
X70276625Y-126705589D01*
X70304424Y-126752693D01*
X70319199Y-126815096D01*
X70325042Y-126909536D01*
X70326048Y-127042822D01*
X70320547Y-127228187D01*
X70301858Y-127360341D01*
X70266701Y-127449854D01*
X70211796Y-127507299D01*
X70175736Y-127527381D01*
X70109954Y-127541920D01*
X69992577Y-127552832D01*
X69835645Y-127560231D01*
X69651195Y-127564229D01*
X69451267Y-127564938D01*
X69247901Y-127562472D01*
X69053134Y-127556944D01*
X68879006Y-127548466D01*
X68737557Y-127537151D01*
X68640824Y-127523111D01*
X68607844Y-127512695D01*
X68533904Y-127446155D01*
X68500926Y-127376820D01*
X68474443Y-127251594D01*
X68466221Y-127175770D01*
X68485059Y-127134900D01*
X68539754Y-127114534D01*
X68639105Y-127100225D01*
X68671982Y-127095896D01*
X68770157Y-127084233D01*
X68820446Y-127087462D01*
X68838864Y-127111336D01*
X68841423Y-127156755D01*
X68841423Y-127240470D01*
X69406226Y-127240470D01*
X69971029Y-127240470D01*
X69971029Y-127062960D01*
X69971029Y-126885451D01*
X69365883Y-126884975D01*
X69127060Y-126883603D01*
X68944281Y-126878547D01*
X68809065Y-126867763D01*
X68712929Y-126849206D01*
X68647389Y-126820833D01*
X68603963Y-126780599D01*
X68574169Y-126726459D01*
X68560843Y-126690963D01*
X68533713Y-126560869D01*
X68523767Y-126398487D01*
X68531004Y-126233745D01*
X68555426Y-126096575D01*
X68560843Y-126079431D01*
X68584916Y-126019388D01*
X68616067Y-125973092D01*
X68662235Y-125938895D01*
X68731359Y-125915152D01*
X68831375Y-125900216D01*
X68970222Y-125892440D01*
X69155838Y-125890179D01*
X69396161Y-125891785D01*
G37*
G36*
X82951434Y-128667389D02*
G01*
X83017150Y-128668155D01*
X83265427Y-128671755D01*
X83457049Y-128677359D01*
X83599911Y-128687368D01*
X83701905Y-128704181D01*
X83770925Y-128730196D01*
X83814865Y-128767813D01*
X83841617Y-128819431D01*
X83859076Y-128887449D01*
X83866410Y-128926281D01*
X83873877Y-128998191D01*
X83857198Y-129046381D01*
X83805159Y-129080419D01*
X83706546Y-129109874D01*
X83631195Y-129126978D01*
X83559926Y-129138051D01*
X83531504Y-129118552D01*
X83526305Y-129054156D01*
X83526303Y-129050404D01*
X83526303Y-128951016D01*
X82977637Y-128951016D01*
X82428971Y-128951016D01*
X82428971Y-129144663D01*
X82428971Y-129338310D01*
X83060805Y-129338310D01*
X83692640Y-129338310D01*
X83786981Y-129432651D01*
X83831898Y-129481193D01*
X83859697Y-129528297D01*
X83874472Y-129590700D01*
X83880315Y-129685140D01*
X83881322Y-129818425D01*
X83875821Y-130003791D01*
X83857131Y-130135944D01*
X83821974Y-130225457D01*
X83767070Y-130282903D01*
X83731009Y-130302985D01*
X83665227Y-130317523D01*
X83547851Y-130328436D01*
X83390918Y-130335834D01*
X83206468Y-130339832D01*
X83006541Y-130340542D01*
X82803174Y-130338076D01*
X82608407Y-130332548D01*
X82434280Y-130324070D01*
X82292830Y-130312754D01*
X82196097Y-130298715D01*
X82163117Y-130288298D01*
X82089178Y-130221758D01*
X82056200Y-130152424D01*
X82029716Y-130027197D01*
X82021494Y-129951373D01*
X82040332Y-129910503D01*
X82095028Y-129890138D01*
X82194378Y-129875828D01*
X82227255Y-129871500D01*
X82325430Y-129859837D01*
X82375720Y-129863066D01*
X82394137Y-129886939D01*
X82396696Y-129932359D01*
X82396696Y-130016073D01*
X82961499Y-130016073D01*
X83526303Y-130016073D01*
X83526303Y-129838564D01*
X83526303Y-129661054D01*
X82921156Y-129660579D01*
X82682333Y-129659206D01*
X82499554Y-129654150D01*
X82364338Y-129643366D01*
X82268202Y-129624810D01*
X82202662Y-129596437D01*
X82159237Y-129556202D01*
X82129442Y-129502063D01*
X82116117Y-129466566D01*
X82088986Y-129336473D01*
X82079040Y-129174090D01*
X82086277Y-129009349D01*
X82110699Y-128872178D01*
X82116117Y-128855034D01*
X82140189Y-128794992D01*
X82171340Y-128748696D01*
X82217509Y-128714499D01*
X82286632Y-128690756D01*
X82386648Y-128675820D01*
X82525495Y-128668044D01*
X82711111Y-128665783D01*
X82951434Y-128667389D01*
G37*
G36*
X75901461Y-156578980D02*
G01*
X76152911Y-156580429D01*
X76346220Y-156584190D01*
X76487766Y-156590625D01*
X76583927Y-156600097D01*
X76641083Y-156612967D01*
X76658642Y-156621954D01*
X76722252Y-156704086D01*
X76762825Y-156824638D01*
X76780545Y-156966217D01*
X76775597Y-157111432D01*
X76748163Y-157242889D01*
X76698429Y-157343196D01*
X76650570Y-157385497D01*
X76584909Y-157403827D01*
X76483606Y-157415227D01*
X76423354Y-157417090D01*
X76255171Y-157417090D01*
X76557960Y-157654679D01*
X76860748Y-157892269D01*
X77165205Y-157384816D01*
X77496479Y-157384816D01*
X77803114Y-157384816D01*
X78109749Y-157384816D01*
X77988982Y-157166963D01*
X77908735Y-157021603D01*
X77852669Y-156929501D01*
X77810899Y-156889088D01*
X77773540Y-156898793D01*
X77730706Y-156957047D01*
X77672513Y-157062281D01*
X77645334Y-157112397D01*
X77496479Y-157384816D01*
X77165205Y-157384816D01*
X77250183Y-157243180D01*
X77639618Y-156594091D01*
X77813974Y-156594091D01*
X77988330Y-156594091D01*
X78383532Y-157239580D01*
X78495305Y-157423024D01*
X78594956Y-157588264D01*
X78677763Y-157727330D01*
X78739003Y-157832251D01*
X78773953Y-157895058D01*
X78780345Y-157909276D01*
X78751997Y-157922250D01*
X78676896Y-157931035D01*
X78595705Y-157933481D01*
X78409452Y-157933481D01*
X78330114Y-157788246D01*
X78250776Y-157643011D01*
X77798205Y-157643011D01*
X77345633Y-157643011D01*
X77268586Y-157788246D01*
X77191539Y-157933481D01*
X76804904Y-157933481D01*
X76418270Y-157933481D01*
X76135451Y-157675286D01*
X76013234Y-157565047D01*
X75925550Y-157491625D01*
X75859946Y-157447575D01*
X75803971Y-157425454D01*
X75745174Y-157417817D01*
X75703571Y-157417090D01*
X75554511Y-157417090D01*
X75554511Y-157675286D01*
X75554511Y-157933481D01*
X75377001Y-157933481D01*
X75199492Y-157933481D01*
X75199492Y-157255718D01*
X75199492Y-157158894D01*
X75554511Y-157158894D01*
X75967624Y-157158894D01*
X76174585Y-157155771D01*
X76318619Y-157146325D01*
X76401050Y-157130443D01*
X76419466Y-157120165D01*
X76449290Y-157059814D01*
X76458196Y-156997522D01*
X76452851Y-156935554D01*
X76430575Y-156891723D01*
X76382003Y-156862948D01*
X76297769Y-156846150D01*
X76168509Y-156838246D01*
X75984859Y-156836158D01*
X75967624Y-156836150D01*
X75554511Y-156836150D01*
X75554511Y-156997522D01*
X75554511Y-157158894D01*
X75199492Y-157158894D01*
X75199492Y-156997522D01*
X75199492Y-156577954D01*
X75901461Y-156578980D01*
G37*
G36*
X83089593Y-106151784D02*
G01*
X83232426Y-106155592D01*
X83340182Y-106164088D01*
X83427589Y-106179031D01*
X83509378Y-106202177D01*
X83598647Y-106234658D01*
X83940973Y-106398140D01*
X84245126Y-106607813D01*
X84506814Y-106858214D01*
X84721742Y-107143882D01*
X84885619Y-107459356D01*
X84994150Y-107799174D01*
X85036348Y-108063537D01*
X85043899Y-108456026D01*
X84991589Y-108827215D01*
X84880274Y-109174671D01*
X84710811Y-109495960D01*
X84484055Y-109788647D01*
X84398572Y-109876810D01*
X84108528Y-110119690D01*
X83796363Y-110302102D01*
X83461245Y-110424336D01*
X83102338Y-110486683D01*
X82718811Y-110489432D01*
X82654327Y-110484290D01*
X82317491Y-110422160D01*
X81997832Y-110302584D01*
X81701392Y-110131700D01*
X81434212Y-109915642D01*
X81202332Y-109660546D01*
X81011794Y-109372549D01*
X80868639Y-109057786D01*
X80778908Y-108722392D01*
X80756677Y-108556860D01*
X80752577Y-108311499D01*
X81134765Y-108311499D01*
X81145387Y-108550738D01*
X81181701Y-108759151D01*
X81250374Y-108966166D01*
X81317632Y-109118361D01*
X81481459Y-109391833D01*
X81692624Y-109630330D01*
X81942122Y-109827410D01*
X82220947Y-109976631D01*
X82520093Y-110071551D01*
X82687167Y-110097988D01*
X82972510Y-110105796D01*
X83253351Y-110074000D01*
X83501630Y-110006469D01*
X83793786Y-109863954D01*
X84055980Y-109670425D01*
X84280482Y-109434365D01*
X84459561Y-109164255D01*
X84585488Y-108868581D01*
X84607410Y-108792987D01*
X84631267Y-108667633D01*
X84648999Y-108508020D01*
X84657449Y-108344369D01*
X84657748Y-108311499D01*
X84632312Y-107972211D01*
X84554132Y-107666924D01*
X84420407Y-107388743D01*
X84228333Y-107130769D01*
X84139517Y-107036658D01*
X83884350Y-106819024D01*
X83612786Y-106662521D01*
X83318505Y-106564523D01*
X82995189Y-106522405D01*
X82896951Y-106520267D01*
X82566599Y-106546459D01*
X82266897Y-106627003D01*
X81990770Y-106764849D01*
X81731142Y-106962945D01*
X81649683Y-107040245D01*
X81433954Y-107297257D01*
X81276663Y-107581245D01*
X81177495Y-107892986D01*
X81136137Y-108233256D01*
X81134765Y-108311499D01*
X80752577Y-108311499D01*
X80750114Y-108164101D01*
X80803324Y-107792619D01*
X80915407Y-107444971D01*
X81085460Y-107123713D01*
X81312583Y-106831400D01*
X81395329Y-106746188D01*
X81651719Y-106526446D01*
X81928244Y-106354171D01*
X82195254Y-106234658D01*
X82285888Y-106201725D01*
X82367650Y-106178726D01*
X82455271Y-106163903D01*
X82563479Y-106155497D01*
X82707006Y-106151751D01*
X82896951Y-106150905D01*
X83089593Y-106151784D01*
G37*
G36*
X83089593Y-111702991D02*
G01*
X83232426Y-111706799D01*
X83340182Y-111715296D01*
X83427589Y-111730238D01*
X83509378Y-111753384D01*
X83598647Y-111785865D01*
X83940973Y-111949347D01*
X84245126Y-112159020D01*
X84506814Y-112409421D01*
X84721742Y-112695089D01*
X84885619Y-113010563D01*
X84994150Y-113350381D01*
X85036348Y-113614744D01*
X85043899Y-114007233D01*
X84991589Y-114378422D01*
X84880274Y-114725878D01*
X84710811Y-115047167D01*
X84484055Y-115339855D01*
X84398572Y-115428018D01*
X84108528Y-115670897D01*
X83796363Y-115853309D01*
X83461245Y-115975543D01*
X83102338Y-116037890D01*
X82718811Y-116040639D01*
X82654327Y-116035497D01*
X82317491Y-115973367D01*
X81997832Y-115853792D01*
X81701392Y-115682907D01*
X81434212Y-115466849D01*
X81202332Y-115211753D01*
X81011794Y-114923756D01*
X80868639Y-114608993D01*
X80778908Y-114273599D01*
X80756677Y-114108068D01*
X80752577Y-113862706D01*
X81134765Y-113862706D01*
X81145387Y-114101945D01*
X81181701Y-114310358D01*
X81250374Y-114517373D01*
X81317632Y-114669568D01*
X81481459Y-114943040D01*
X81692624Y-115181537D01*
X81942122Y-115378617D01*
X82220947Y-115527838D01*
X82520093Y-115622758D01*
X82687167Y-115649195D01*
X82972510Y-115657003D01*
X83253351Y-115625207D01*
X83501630Y-115557676D01*
X83793786Y-115415162D01*
X84055980Y-115221632D01*
X84280482Y-114985572D01*
X84459561Y-114715463D01*
X84585488Y-114419788D01*
X84607410Y-114344194D01*
X84631267Y-114218840D01*
X84648999Y-114059227D01*
X84657449Y-113895576D01*
X84657748Y-113862706D01*
X84632312Y-113523418D01*
X84554132Y-113218131D01*
X84420407Y-112939950D01*
X84228333Y-112681976D01*
X84139517Y-112587865D01*
X83884350Y-112370231D01*
X83612786Y-112213728D01*
X83318505Y-112115731D01*
X82995189Y-112073612D01*
X82896951Y-112071474D01*
X82566599Y-112097666D01*
X82266897Y-112178210D01*
X81990770Y-112316056D01*
X81731142Y-112514152D01*
X81649683Y-112591453D01*
X81433954Y-112848464D01*
X81276663Y-113132452D01*
X81177495Y-113444193D01*
X81136137Y-113784463D01*
X81134765Y-113862706D01*
X80752577Y-113862706D01*
X80750114Y-113715308D01*
X80803324Y-113343826D01*
X80915407Y-112996178D01*
X81085460Y-112674920D01*
X81312583Y-112382608D01*
X81395329Y-112297395D01*
X81651719Y-112077653D01*
X81928244Y-111905378D01*
X82195254Y-111785865D01*
X82285888Y-111752932D01*
X82367650Y-111729934D01*
X82455271Y-111715110D01*
X82563479Y-111706704D01*
X82707006Y-111702958D01*
X82896951Y-111702112D01*
X83089593Y-111702991D01*
G37*
G36*
X83089593Y-117254198D02*
G01*
X83232426Y-117258006D01*
X83340182Y-117266503D01*
X83427589Y-117281445D01*
X83509378Y-117304591D01*
X83598647Y-117337072D01*
X83940973Y-117500554D01*
X84245126Y-117710227D01*
X84506814Y-117960628D01*
X84721742Y-118246296D01*
X84885619Y-118561770D01*
X84994150Y-118901588D01*
X85036348Y-119165951D01*
X85043899Y-119558440D01*
X84991589Y-119929629D01*
X84880274Y-120277085D01*
X84710811Y-120598374D01*
X84484055Y-120891062D01*
X84398572Y-120979225D01*
X84108528Y-121222104D01*
X83796363Y-121404516D01*
X83461245Y-121526750D01*
X83102338Y-121589097D01*
X82718811Y-121591846D01*
X82654327Y-121586704D01*
X82317491Y-121524574D01*
X81997832Y-121404999D01*
X81701392Y-121234114D01*
X81434212Y-121018056D01*
X81202332Y-120762961D01*
X81011794Y-120474963D01*
X80868639Y-120160200D01*
X80778908Y-119824806D01*
X80756677Y-119659275D01*
X80752577Y-119413913D01*
X81134765Y-119413913D01*
X81145387Y-119653152D01*
X81181701Y-119861566D01*
X81250374Y-120068580D01*
X81317632Y-120220775D01*
X81481459Y-120494247D01*
X81692624Y-120732744D01*
X81942122Y-120929824D01*
X82220947Y-121079045D01*
X82520093Y-121173965D01*
X82687167Y-121200402D01*
X82972510Y-121208210D01*
X83253351Y-121176414D01*
X83501630Y-121108883D01*
X83793786Y-120966369D01*
X84055980Y-120772840D01*
X84280482Y-120536779D01*
X84459561Y-120266670D01*
X84585488Y-119970995D01*
X84607410Y-119895401D01*
X84631267Y-119770047D01*
X84648999Y-119610434D01*
X84657449Y-119446783D01*
X84657748Y-119413913D01*
X84632312Y-119074625D01*
X84554132Y-118769338D01*
X84420407Y-118491157D01*
X84228333Y-118233183D01*
X84139517Y-118139072D01*
X83884350Y-117921438D01*
X83612786Y-117764935D01*
X83318505Y-117666938D01*
X82995189Y-117624819D01*
X82896951Y-117622681D01*
X82566599Y-117648873D01*
X82266897Y-117729418D01*
X81990770Y-117867263D01*
X81731142Y-118065359D01*
X81649683Y-118142660D01*
X81433954Y-118399671D01*
X81276663Y-118683659D01*
X81177495Y-118995400D01*
X81136137Y-119335670D01*
X81134765Y-119413913D01*
X80752577Y-119413913D01*
X80750114Y-119266515D01*
X80803324Y-118895033D01*
X80915407Y-118547386D01*
X81085460Y-118226128D01*
X81312583Y-117933815D01*
X81395329Y-117848602D01*
X81651719Y-117628860D01*
X81928244Y-117456586D01*
X82195254Y-117337072D01*
X82285888Y-117304139D01*
X82367650Y-117281141D01*
X82455271Y-117266317D01*
X82563479Y-117257912D01*
X82707006Y-117254165D01*
X82896951Y-117253319D01*
X83089593Y-117254198D01*
G37*
G36*
X83089593Y-122805405D02*
G01*
X83232426Y-122809213D01*
X83340182Y-122817710D01*
X83427589Y-122832652D01*
X83509378Y-122855798D01*
X83598647Y-122888279D01*
X83940973Y-123051761D01*
X84245126Y-123261434D01*
X84506814Y-123511835D01*
X84721742Y-123797504D01*
X84885619Y-124112977D01*
X84994150Y-124452795D01*
X85036348Y-124717158D01*
X85043899Y-125109647D01*
X84991589Y-125480836D01*
X84880274Y-125828293D01*
X84710811Y-126149581D01*
X84484055Y-126442269D01*
X84398572Y-126530432D01*
X84108528Y-126773312D01*
X83796363Y-126955723D01*
X83461245Y-127077957D01*
X83102338Y-127140304D01*
X82718811Y-127143053D01*
X82654327Y-127137911D01*
X82317491Y-127075781D01*
X81997832Y-126956206D01*
X81701392Y-126785321D01*
X81434212Y-126569263D01*
X81202332Y-126314168D01*
X81011794Y-126026170D01*
X80868639Y-125711407D01*
X80778908Y-125376013D01*
X80756677Y-125210482D01*
X80752577Y-124965120D01*
X81134765Y-124965120D01*
X81145387Y-125204360D01*
X81181701Y-125412773D01*
X81250374Y-125619788D01*
X81317632Y-125771982D01*
X81481459Y-126045455D01*
X81692624Y-126283952D01*
X81942122Y-126481031D01*
X82220947Y-126630252D01*
X82520093Y-126725172D01*
X82687167Y-126751609D01*
X82972510Y-126759417D01*
X83253351Y-126727622D01*
X83501630Y-126660090D01*
X83793786Y-126517576D01*
X84055980Y-126324047D01*
X84280482Y-126087986D01*
X84459561Y-125817877D01*
X84585488Y-125522202D01*
X84607410Y-125446608D01*
X84631267Y-125321255D01*
X84648999Y-125161641D01*
X84657449Y-124997991D01*
X84657748Y-124965120D01*
X84632312Y-124625832D01*
X84554132Y-124320546D01*
X84420407Y-124042364D01*
X84228333Y-123784390D01*
X84139517Y-123690279D01*
X83884350Y-123472645D01*
X83612786Y-123316143D01*
X83318505Y-123218145D01*
X82995189Y-123176026D01*
X82896951Y-123173888D01*
X82566599Y-123200081D01*
X82266897Y-123280625D01*
X81990770Y-123418470D01*
X81731142Y-123616566D01*
X81649683Y-123693867D01*
X81433954Y-123950878D01*
X81276663Y-124234866D01*
X81177495Y-124546607D01*
X81136137Y-124886877D01*
X81134765Y-124965120D01*
X80752577Y-124965120D01*
X80750114Y-124817722D01*
X80803324Y-124446240D01*
X80915407Y-124098593D01*
X81085460Y-123777335D01*
X81312583Y-123485022D01*
X81395329Y-123399809D01*
X81651719Y-123180067D01*
X81928244Y-123007793D01*
X82195254Y-122888279D01*
X82285888Y-122855347D01*
X82367650Y-122832348D01*
X82455271Y-122817525D01*
X82563479Y-122809119D01*
X82707006Y-122805372D01*
X82896951Y-122804526D01*
X83089593Y-122805405D01*
G37*
G36*
X83089593Y-89304515D02*
G01*
X83232426Y-89308324D01*
X83340182Y-89316820D01*
X83427589Y-89331763D01*
X83509378Y-89354909D01*
X83598647Y-89387389D01*
X83940973Y-89550872D01*
X84245126Y-89760544D01*
X84506814Y-90010946D01*
X84721742Y-90296614D01*
X84885619Y-90612088D01*
X84994150Y-90951906D01*
X85036348Y-91216268D01*
X85043899Y-91608757D01*
X84991589Y-91979947D01*
X84880274Y-92327403D01*
X84710811Y-92648692D01*
X84484055Y-92941379D01*
X84398572Y-93029542D01*
X84108528Y-93272422D01*
X83796363Y-93454834D01*
X83461245Y-93577068D01*
X83102338Y-93639414D01*
X82718811Y-93642164D01*
X82654327Y-93637022D01*
X82317491Y-93574892D01*
X81997832Y-93455316D01*
X81701392Y-93284432D01*
X81434212Y-93068374D01*
X81202332Y-92813278D01*
X81011794Y-92525281D01*
X80868639Y-92210517D01*
X80778908Y-91875124D01*
X80756677Y-91709592D01*
X80751953Y-91426885D01*
X81136754Y-91426885D01*
X81143477Y-91643962D01*
X81165220Y-91842126D01*
X81186568Y-91945719D01*
X81296760Y-92244421D01*
X81459362Y-92517202D01*
X81666665Y-92757357D01*
X81910960Y-92958183D01*
X82184539Y-93112975D01*
X82479693Y-93215031D01*
X82687167Y-93250719D01*
X82972510Y-93258528D01*
X83253351Y-93226732D01*
X83501630Y-93159201D01*
X83793668Y-93016753D01*
X84055783Y-92823326D01*
X84280234Y-92587414D01*
X84459281Y-92317512D01*
X84585184Y-92022115D01*
X84607333Y-91945719D01*
X84638114Y-91775713D01*
X84654418Y-91570966D01*
X84655840Y-91357461D01*
X84641972Y-91161179D01*
X84621492Y-91041732D01*
X84514892Y-90731279D01*
X84353323Y-90446043D01*
X84143865Y-90193460D01*
X83893599Y-89980968D01*
X83609608Y-89816002D01*
X83367141Y-89724489D01*
X83229791Y-89696334D01*
X83054885Y-89678260D01*
X82896951Y-89672998D01*
X82566599Y-89699191D01*
X82266897Y-89779735D01*
X81990770Y-89917581D01*
X81731142Y-90115677D01*
X81649683Y-90192977D01*
X81455684Y-90423386D01*
X81299479Y-90685326D01*
X81192034Y-90959330D01*
X81170311Y-91043816D01*
X81145536Y-91217851D01*
X81136754Y-91426885D01*
X80751953Y-91426885D01*
X80750114Y-91316832D01*
X80803324Y-90945351D01*
X80915407Y-90597703D01*
X81085460Y-90276445D01*
X81312583Y-89984132D01*
X81395329Y-89898920D01*
X81651719Y-89679178D01*
X81928244Y-89506903D01*
X82195254Y-89387389D01*
X82285888Y-89354457D01*
X82367650Y-89331458D01*
X82455271Y-89316635D01*
X82563479Y-89308229D01*
X82707006Y-89304482D01*
X82896951Y-89303637D01*
X83089593Y-89304515D01*
G37*
G36*
X83089593Y-95049369D02*
G01*
X83232426Y-95053178D01*
X83340182Y-95061674D01*
X83427589Y-95076616D01*
X83509378Y-95099763D01*
X83598647Y-95132243D01*
X83940973Y-95295726D01*
X84245126Y-95505398D01*
X84506814Y-95755800D01*
X84721742Y-96041468D01*
X84885619Y-96356942D01*
X84994150Y-96696760D01*
X85036348Y-96961122D01*
X85043899Y-97353611D01*
X84991589Y-97724801D01*
X84880274Y-98072257D01*
X84710811Y-98393546D01*
X84484055Y-98686233D01*
X84398572Y-98774396D01*
X84108528Y-99017276D01*
X83796363Y-99199688D01*
X83461245Y-99321922D01*
X83102338Y-99384268D01*
X82718811Y-99387018D01*
X82654327Y-99381875D01*
X82317491Y-99319745D01*
X81997832Y-99200170D01*
X81701392Y-99029286D01*
X81434212Y-98813228D01*
X81202332Y-98558132D01*
X81011794Y-98270135D01*
X80868639Y-97955371D01*
X80778908Y-97619978D01*
X80756677Y-97454446D01*
X80751953Y-97171739D01*
X81136754Y-97171739D01*
X81143477Y-97388816D01*
X81165220Y-97586980D01*
X81186568Y-97690573D01*
X81296760Y-97989275D01*
X81459362Y-98262056D01*
X81666665Y-98502211D01*
X81910960Y-98703037D01*
X82184539Y-98857829D01*
X82479693Y-98959885D01*
X82687167Y-98995573D01*
X82972510Y-99003381D01*
X83253351Y-98971586D01*
X83501630Y-98904055D01*
X83793668Y-98761607D01*
X84055783Y-98568180D01*
X84280234Y-98332268D01*
X84459281Y-98062366D01*
X84585184Y-97766969D01*
X84607333Y-97690573D01*
X84638114Y-97520566D01*
X84654418Y-97315820D01*
X84655840Y-97102315D01*
X84641972Y-96906033D01*
X84621492Y-96786586D01*
X84514892Y-96476133D01*
X84353323Y-96190897D01*
X84143865Y-95938314D01*
X83893599Y-95725822D01*
X83609608Y-95560856D01*
X83367141Y-95469342D01*
X83229791Y-95441188D01*
X83054885Y-95423114D01*
X82896951Y-95417852D01*
X82566599Y-95444045D01*
X82266897Y-95524589D01*
X81990770Y-95662434D01*
X81731142Y-95860531D01*
X81649683Y-95937831D01*
X81455684Y-96168240D01*
X81299479Y-96430179D01*
X81192034Y-96704184D01*
X81170311Y-96788670D01*
X81145536Y-96962705D01*
X81136754Y-97171739D01*
X80751953Y-97171739D01*
X80750114Y-97061686D01*
X80803324Y-96690205D01*
X80915407Y-96342557D01*
X81085460Y-96021299D01*
X81312583Y-95728986D01*
X81395329Y-95643774D01*
X81651719Y-95424032D01*
X81928244Y-95251757D01*
X82195254Y-95132243D01*
X82285888Y-95099311D01*
X82367650Y-95076312D01*
X82455271Y-95061489D01*
X82563479Y-95053083D01*
X82707006Y-95049336D01*
X82896951Y-95048491D01*
X83089593Y-95049369D01*
G37*
G36*
X83089593Y-100600576D02*
G01*
X83232426Y-100604385D01*
X83340182Y-100612881D01*
X83427589Y-100627824D01*
X83509378Y-100650970D01*
X83598647Y-100683450D01*
X83940973Y-100846933D01*
X84245126Y-101056605D01*
X84506814Y-101307007D01*
X84721742Y-101592675D01*
X84885619Y-101908149D01*
X84994150Y-102247967D01*
X85036348Y-102512329D01*
X85043899Y-102904818D01*
X84991589Y-103276008D01*
X84880274Y-103623464D01*
X84710811Y-103944753D01*
X84484055Y-104237440D01*
X84398572Y-104325603D01*
X84108528Y-104568483D01*
X83796363Y-104750895D01*
X83461245Y-104873129D01*
X83102338Y-104935475D01*
X82718811Y-104938225D01*
X82654327Y-104933083D01*
X82317491Y-104870953D01*
X81997832Y-104751377D01*
X81701392Y-104580493D01*
X81434212Y-104364435D01*
X81202332Y-104109339D01*
X81011794Y-103821342D01*
X80868639Y-103506578D01*
X80778908Y-103171185D01*
X80756677Y-103005653D01*
X80751953Y-102722946D01*
X81136754Y-102722946D01*
X81143477Y-102940023D01*
X81165220Y-103138187D01*
X81186568Y-103241780D01*
X81296760Y-103540482D01*
X81459362Y-103813263D01*
X81666665Y-104053418D01*
X81910960Y-104254244D01*
X82184539Y-104409036D01*
X82479693Y-104511092D01*
X82687167Y-104546780D01*
X82972510Y-104554589D01*
X83253351Y-104522793D01*
X83501630Y-104455262D01*
X83793668Y-104312814D01*
X84055783Y-104119387D01*
X84280234Y-103883475D01*
X84459281Y-103613573D01*
X84585184Y-103318176D01*
X84607333Y-103241780D01*
X84638114Y-103071774D01*
X84654418Y-102867027D01*
X84655840Y-102653522D01*
X84641972Y-102457240D01*
X84621492Y-102337793D01*
X84514892Y-102027340D01*
X84353323Y-101742104D01*
X84143865Y-101489521D01*
X83893599Y-101277029D01*
X83609608Y-101112063D01*
X83367141Y-101020549D01*
X83229791Y-100992395D01*
X83054885Y-100974321D01*
X82896951Y-100969059D01*
X82566599Y-100995252D01*
X82266897Y-101075796D01*
X81990770Y-101213642D01*
X81731142Y-101411738D01*
X81649683Y-101489038D01*
X81455684Y-101719447D01*
X81299479Y-101981387D01*
X81192034Y-102255391D01*
X81170311Y-102339877D01*
X81145536Y-102513912D01*
X81136754Y-102722946D01*
X80751953Y-102722946D01*
X80750114Y-102612893D01*
X80803324Y-102241412D01*
X80915407Y-101893764D01*
X81085460Y-101572506D01*
X81312583Y-101280193D01*
X81395329Y-101194981D01*
X81651719Y-100975239D01*
X81928244Y-100802964D01*
X82195254Y-100683450D01*
X82285888Y-100650518D01*
X82367650Y-100627519D01*
X82455271Y-100612696D01*
X82563479Y-100604290D01*
X82707006Y-100600543D01*
X82896951Y-100599698D01*
X83089593Y-100600576D01*
G37*
G36*
X75757136Y-133766969D02*
G01*
X77605758Y-133776048D01*
X77766221Y-133858473D01*
X77902073Y-133949202D01*
X77997972Y-134068174D01*
X78007370Y-134084395D01*
X78040865Y-134149634D01*
X78064237Y-134214968D01*
X78079756Y-134294577D01*
X78089696Y-134402642D01*
X78096329Y-134553344D01*
X78099364Y-134658527D01*
X78100445Y-134905107D01*
X78086294Y-135097880D01*
X78052623Y-135246656D01*
X77995142Y-135361244D01*
X77909562Y-135451450D01*
X77791592Y-135527086D01*
X77700360Y-135570939D01*
X77539390Y-135642299D01*
X77636214Y-135673941D01*
X77823279Y-135763846D01*
X77970243Y-135900759D01*
X78072980Y-136067535D01*
X78103311Y-136168748D01*
X78124753Y-136316263D01*
X78137086Y-136492415D01*
X78140087Y-136679541D01*
X78133537Y-136859977D01*
X78117214Y-137016060D01*
X78090898Y-137130127D01*
X78086420Y-137141697D01*
X77980941Y-137312986D01*
X77823701Y-137453797D01*
X77654012Y-137544170D01*
X77614186Y-137559810D01*
X77574578Y-137573056D01*
X77529663Y-137584140D01*
X77473913Y-137593294D01*
X77401805Y-137600747D01*
X77307810Y-137606732D01*
X77186404Y-137611480D01*
X77032061Y-137615222D01*
X76839254Y-137618190D01*
X76602458Y-137620614D01*
X76316146Y-137622726D01*
X75974793Y-137624758D01*
X75691677Y-137626301D01*
X73908513Y-137635893D01*
X73908513Y-136922808D01*
X74778198Y-136922808D01*
X75868324Y-136922628D01*
X76184287Y-136921511D01*
X76461552Y-136918366D01*
X76694980Y-136913341D01*
X76879437Y-136906581D01*
X77009785Y-136898232D01*
X77080888Y-136888440D01*
X77082057Y-136888125D01*
X77180683Y-136841368D01*
X77246836Y-136760390D01*
X77283506Y-136637608D01*
X77293683Y-136465443D01*
X77289919Y-136361023D01*
X77273413Y-136201541D01*
X77239851Y-136094129D01*
X77180251Y-136026814D01*
X77085635Y-135987625D01*
X76997402Y-135971032D01*
X76932044Y-135966558D01*
X76811177Y-135963050D01*
X76643837Y-135960584D01*
X76439056Y-135959235D01*
X76205871Y-135959080D01*
X75953314Y-135960195D01*
X75828844Y-135961194D01*
X74796061Y-135970711D01*
X74787130Y-136446760D01*
X74778198Y-136922808D01*
X73908513Y-136922808D01*
X73908513Y-135696891D01*
X73908513Y-135309085D01*
X74778102Y-135309085D01*
X75868276Y-135308905D01*
X76170917Y-135307834D01*
X76440890Y-135304840D01*
X76672053Y-135300094D01*
X76858267Y-135293766D01*
X76993389Y-135286028D01*
X77071278Y-135277050D01*
X77079099Y-135275218D01*
X77166373Y-135238139D01*
X77226462Y-135189809D01*
X77232403Y-135180697D01*
X77247444Y-135121318D01*
X77258825Y-135016838D01*
X77264665Y-134886681D01*
X77265057Y-134843227D01*
X77258942Y-134676448D01*
X77235875Y-134562170D01*
X77188775Y-134489102D01*
X77110563Y-134445955D01*
X77001119Y-134422415D01*
X76934806Y-134417803D01*
X76813025Y-134414169D01*
X76644849Y-134411594D01*
X76439354Y-134410159D01*
X76205613Y-134409944D01*
X75952701Y-134411029D01*
X75828844Y-134412020D01*
X74796061Y-134421537D01*
X74787082Y-134865311D01*
X74778102Y-135309085D01*
X73908513Y-135309085D01*
X73908513Y-133757890D01*
X75757136Y-133766969D01*
G37*
G36*
X82803362Y-135510800D02*
G01*
X83251368Y-135960368D01*
X83663116Y-136374762D01*
X84037619Y-136752970D01*
X84373891Y-137093981D01*
X84670945Y-137396782D01*
X84927795Y-137660361D01*
X85143453Y-137883706D01*
X85316934Y-138065805D01*
X85447252Y-138205645D01*
X85533418Y-138302216D01*
X85573110Y-138352374D01*
X85776451Y-138725366D01*
X85929988Y-139137584D01*
X85953269Y-139219567D01*
X86000031Y-139460147D01*
X86024421Y-139738281D01*
X86026474Y-140030986D01*
X86006226Y-140315281D01*
X85963712Y-140568184D01*
X85951129Y-140618234D01*
X85809170Y-141025333D01*
X85612066Y-141399252D01*
X85358819Y-141741665D01*
X85151693Y-141959604D01*
X84823830Y-142235139D01*
X84479156Y-142449194D01*
X84113410Y-142603463D01*
X83722331Y-142699640D01*
X83301660Y-142739420D01*
X83187421Y-142740736D01*
X82787650Y-142715364D01*
X82416380Y-142640301D01*
X82060972Y-142511618D01*
X81708784Y-142325386D01*
X81573698Y-142239065D01*
X81514915Y-142192083D01*
X81413677Y-142101851D01*
X81272822Y-141971105D01*
X81095188Y-141802584D01*
X80883613Y-141599027D01*
X80640936Y-141363171D01*
X80369994Y-141097756D01*
X80073627Y-140805520D01*
X79754671Y-140489200D01*
X79587898Y-140323151D01*
X77795745Y-138536531D01*
X77272205Y-138536531D01*
X76748666Y-138536531D01*
X76748666Y-139347811D01*
X76748666Y-140159090D01*
X77127891Y-139683677D01*
X77507116Y-139208263D01*
X77516301Y-139552586D01*
X77525486Y-139896910D01*
X77137076Y-140382703D01*
X76748666Y-140868497D01*
X76748666Y-142373027D01*
X76748666Y-143877557D01*
X77708538Y-144837829D01*
X78668410Y-145798102D01*
X78507044Y-145959468D01*
X78345678Y-146120834D01*
X77321251Y-145096031D01*
X76296823Y-144071228D01*
X76296823Y-142468760D01*
X76296823Y-140866291D01*
X75933736Y-140415443D01*
X75800373Y-140249226D01*
X75666238Y-140080956D01*
X75542711Y-139924987D01*
X75441174Y-139795671D01*
X75393139Y-139733721D01*
X75215629Y-139502849D01*
X75206844Y-140061782D01*
X75198058Y-140620716D01*
X74827965Y-140989759D01*
X74457872Y-141358802D01*
X74295834Y-141199200D01*
X74133795Y-141039598D01*
X74441648Y-140730585D01*
X74749502Y-140421573D01*
X74740507Y-139960205D01*
X74731512Y-139498836D01*
X74352287Y-139974198D01*
X73973062Y-140449561D01*
X73973150Y-140098192D01*
X73973239Y-139746823D01*
X74441130Y-139157192D01*
X74573483Y-138989977D01*
X74691316Y-138840290D01*
X74789047Y-138715289D01*
X74861096Y-138622132D01*
X74901880Y-138567977D01*
X74909022Y-138557168D01*
X74878381Y-138552976D01*
X74792935Y-138547359D01*
X74662402Y-138540797D01*
X74561655Y-138536531D01*
X75004623Y-138536531D01*
X75465145Y-139113764D01*
X75610326Y-139296103D01*
X75753700Y-139476830D01*
X75886325Y-139644627D01*
X75999262Y-139788175D01*
X76083570Y-139896156D01*
X76102485Y-139920625D01*
X76181487Y-140022047D01*
X76244372Y-140100562D01*
X76281848Y-140144674D01*
X76288063Y-140150254D01*
X76290457Y-140119420D01*
X76292603Y-140032679D01*
X76294404Y-139898673D01*
X76295769Y-139726044D01*
X76296602Y-139523433D01*
X76296823Y-139343392D01*
X76296823Y-138536531D01*
X75650723Y-138536531D01*
X75004623Y-138536531D01*
X74561655Y-138536531D01*
X74496498Y-138533772D01*
X74304939Y-138526764D01*
X74271601Y-138525645D01*
X73959213Y-138511668D01*
X73698263Y-138490715D01*
X73475791Y-138460197D01*
X73278836Y-138417523D01*
X73094436Y-138360104D01*
X72909631Y-138285349D01*
X72790093Y-138229611D01*
X72426835Y-138018317D01*
X72100475Y-137757319D01*
X71815951Y-137452759D01*
X71578203Y-137110782D01*
X71392170Y-136737531D01*
X71262792Y-136339152D01*
X71259565Y-136325730D01*
X71230628Y-136193523D01*
X71212145Y-136075355D01*
X71202785Y-135952324D01*
X71201215Y-135805524D01*
X71204448Y-135680241D01*
X71667717Y-135680241D01*
X71668713Y-135874981D01*
X71672940Y-136021076D01*
X71682255Y-136134416D01*
X71698517Y-136230889D01*
X71723583Y-136326386D01*
X71754507Y-136422554D01*
X71877225Y-136725061D01*
X72034437Y-136994076D01*
X72238008Y-137248464D01*
X72343207Y-137358508D01*
X72626539Y-137606400D01*
X72926711Y-137797052D01*
X73252766Y-137934702D01*
X73613750Y-138023591D01*
X73823476Y-138052503D01*
X73909620Y-138058173D01*
X74053543Y-138063528D01*
X74248475Y-138068472D01*
X74487647Y-138072909D01*
X74764290Y-138076744D01*
X75071632Y-138079879D01*
X75402906Y-138082220D01*
X75751341Y-138083669D01*
X76054130Y-138084129D01*
X77989962Y-138084688D01*
X79846379Y-139935877D01*
X80137342Y-140225405D01*
X80418106Y-140503593D01*
X80684904Y-140766779D01*
X80933970Y-141011304D01*
X81161537Y-141233505D01*
X81363838Y-141429721D01*
X81537109Y-141596291D01*
X81677581Y-141729554D01*
X81781488Y-141825848D01*
X81845065Y-141881513D01*
X81858118Y-141891421D01*
X82196462Y-142081079D01*
X82557641Y-142213131D01*
X82933517Y-142285674D01*
X83315948Y-142296806D01*
X83512449Y-142278008D01*
X83892742Y-142194147D01*
X84248791Y-142053994D01*
X84574695Y-141861780D01*
X84864551Y-141621733D01*
X85112456Y-141338084D01*
X85312509Y-141015061D01*
X85333311Y-140973253D01*
X85433864Y-140748753D01*
X85503111Y-140546468D01*
X85545944Y-140344239D01*
X85567259Y-140119908D01*
X85572110Y-139892058D01*
X85570511Y-139714498D01*
X85564141Y-139580941D01*
X85549963Y-139470868D01*
X85524942Y-139363755D01*
X85486040Y-139239082D01*
X85467306Y-139183770D01*
X85407361Y-139024357D01*
X85337446Y-138861987D01*
X85269558Y-138723886D01*
X85246837Y-138683515D01*
X85216093Y-138639629D01*
X85163048Y-138574773D01*
X85085731Y-138486916D01*
X84982173Y-138374027D01*
X84850402Y-138234072D01*
X84688450Y-138065021D01*
X84494346Y-137864841D01*
X84266119Y-137631501D01*
X84001800Y-137362969D01*
X83699419Y-137057213D01*
X83357005Y-136712201D01*
X82972588Y-136325902D01*
X82545353Y-135897440D01*
X79959975Y-133306760D01*
X76748666Y-133315483D01*
X73537357Y-133324206D01*
X73279161Y-133412135D01*
X72974884Y-133536649D01*
X72705166Y-133694924D01*
X72450617Y-133899178D01*
X72343207Y-134001974D01*
X72115952Y-134255879D01*
X71940179Y-134516264D01*
X71804023Y-134801996D01*
X71754507Y-134937929D01*
X71720126Y-135045766D01*
X71696189Y-135140554D01*
X71680839Y-135238184D01*
X71672216Y-135354543D01*
X71668465Y-135505523D01*
X71667717Y-135680241D01*
X71204448Y-135680241D01*
X71206104Y-135616051D01*
X71207289Y-135583418D01*
X71221131Y-135328816D01*
X71244609Y-135119135D01*
X71282274Y-134934945D01*
X71338675Y-134756819D01*
X71418363Y-134565329D01*
X71473001Y-134448860D01*
X71680518Y-134090552D01*
X71938095Y-133766847D01*
X72238885Y-133483288D01*
X72576037Y-133245417D01*
X72942703Y-133058775D01*
X73332033Y-132928906D01*
X73359848Y-132922110D01*
X73406188Y-132911451D01*
X73453170Y-132902015D01*
X73504825Y-132893728D01*
X73565183Y-132886516D01*
X73638273Y-132880303D01*
X73728126Y-132875014D01*
X73838773Y-132870576D01*
X73974242Y-132866912D01*
X74138565Y-132863947D01*
X74335772Y-132861608D01*
X74569893Y-132859819D01*
X74844958Y-132858506D01*
X75164997Y-132857592D01*
X75534040Y-132857005D01*
X75956118Y-132856668D01*
X76435261Y-132856507D01*
X76894357Y-132856452D01*
X80154533Y-132856226D01*
X82803362Y-135510800D01*
G37*
G36*
X74635090Y-67533120D02*
G01*
X75102668Y-67999864D01*
X75102668Y-71126949D01*
X75102668Y-74254034D01*
X75255972Y-74058722D01*
X75325699Y-73970120D01*
X75425918Y-73843084D01*
X75547028Y-73689767D01*
X75679430Y-73522322D01*
X75804638Y-73364124D01*
X76200000Y-72864840D01*
X76200000Y-70852095D01*
X76200000Y-68839350D01*
X76999522Y-68040308D01*
X77799044Y-67241266D01*
X77958946Y-67403608D01*
X78118847Y-67565951D01*
X77385345Y-68299974D01*
X76651843Y-69033997D01*
X76651843Y-70949823D01*
X76651843Y-72865649D01*
X77039136Y-73350046D01*
X77426430Y-73834443D01*
X77426430Y-74189367D01*
X77426430Y-74544291D01*
X77068898Y-74096510D01*
X76951423Y-73949741D01*
X76846747Y-73819636D01*
X76761974Y-73714974D01*
X76704211Y-73644534D01*
X76681604Y-73618068D01*
X76672420Y-73639392D01*
X76664709Y-73720541D01*
X76658644Y-73856807D01*
X76654403Y-74043479D01*
X76652161Y-74275847D01*
X76651843Y-74416861D01*
X76651843Y-75246315D01*
X80113278Y-75246541D01*
X80661490Y-75246606D01*
X81149045Y-75246772D01*
X81579837Y-75247106D01*
X81957756Y-75247678D01*
X82286697Y-75248555D01*
X82570550Y-75249805D01*
X82813210Y-75251499D01*
X83018568Y-75253703D01*
X83190516Y-75256486D01*
X83332948Y-75259917D01*
X83449755Y-75264064D01*
X83544830Y-75268996D01*
X83622065Y-75274780D01*
X83685353Y-75281486D01*
X83738587Y-75289181D01*
X83785658Y-75297934D01*
X83830459Y-75307814D01*
X83849047Y-75312199D01*
X84239983Y-75437983D01*
X84608606Y-75620974D01*
X84948206Y-75855744D01*
X85252070Y-76136864D01*
X85513486Y-76458907D01*
X85725744Y-76816443D01*
X85736790Y-76838949D01*
X85866491Y-77144645D01*
X85952136Y-77444178D01*
X85998610Y-77759482D01*
X86010984Y-78070330D01*
X85995194Y-78418018D01*
X85944570Y-78730460D01*
X85854226Y-79029592D01*
X85736790Y-79301711D01*
X85523594Y-79668730D01*
X85260861Y-79996830D01*
X84953146Y-80282313D01*
X84605005Y-80521480D01*
X84220992Y-80710634D01*
X83847642Y-80835276D01*
X83574714Y-80907511D01*
X78814231Y-80913005D01*
X78260017Y-80913480D01*
X77720401Y-80913624D01*
X77199220Y-80913449D01*
X76700309Y-80912971D01*
X76227506Y-80912202D01*
X75784647Y-80911158D01*
X75375568Y-80909852D01*
X75004104Y-80908299D01*
X74674093Y-80906512D01*
X74389371Y-80904505D01*
X74153773Y-80902293D01*
X73971137Y-80899890D01*
X73845298Y-80897310D01*
X73780092Y-80894567D01*
X73779416Y-80894509D01*
X73362383Y-80826526D01*
X72965594Y-80699474D01*
X72594496Y-80517113D01*
X72254537Y-80283203D01*
X71951165Y-80001505D01*
X71689827Y-79675780D01*
X71475972Y-79309788D01*
X71472036Y-79301711D01*
X71353030Y-79029643D01*
X71271411Y-78772893D01*
X71223169Y-78511345D01*
X71204292Y-78224881D01*
X71206135Y-78070330D01*
X71667717Y-78070330D01*
X71668713Y-78265070D01*
X71672940Y-78411165D01*
X71682255Y-78524505D01*
X71698517Y-78620978D01*
X71723583Y-78716475D01*
X71754507Y-78812643D01*
X71814169Y-78969631D01*
X71888235Y-79136124D01*
X71960991Y-79276881D01*
X71963151Y-79280617D01*
X72076160Y-79445116D01*
X72228602Y-79625337D01*
X72403980Y-79804783D01*
X72585794Y-79966953D01*
X72757546Y-80095350D01*
X72811187Y-80128653D01*
X73063586Y-80251571D01*
X73350490Y-80352098D01*
X73643214Y-80420999D01*
X73779416Y-80440346D01*
X73848568Y-80444230D01*
X73977688Y-80447844D01*
X74162195Y-80451186D01*
X74397508Y-80454255D01*
X74679048Y-80457050D01*
X75002234Y-80459570D01*
X75362485Y-80461815D01*
X75755220Y-80463782D01*
X76175859Y-80465471D01*
X76619821Y-80466881D01*
X77082526Y-80468011D01*
X77559394Y-80468859D01*
X78045843Y-80469425D01*
X78537294Y-80469708D01*
X79029165Y-80469706D01*
X79516876Y-80469419D01*
X79995847Y-80468844D01*
X80461496Y-80467982D01*
X80909245Y-80466832D01*
X81334510Y-80465391D01*
X81732714Y-80463659D01*
X82099274Y-80461636D01*
X82429610Y-80459319D01*
X82719142Y-80456708D01*
X82963289Y-80453802D01*
X83157471Y-80450599D01*
X83297106Y-80447100D01*
X83377615Y-80443301D01*
X83385419Y-80442592D01*
X83768706Y-80377953D01*
X84112247Y-80266812D01*
X84425085Y-80104930D01*
X84716264Y-79888065D01*
X84865687Y-79748597D01*
X85092943Y-79494693D01*
X85268716Y-79234308D01*
X85404872Y-78948576D01*
X85454388Y-78812643D01*
X85488769Y-78704805D01*
X85512705Y-78610017D01*
X85528056Y-78512387D01*
X85536678Y-78396028D01*
X85540430Y-78245049D01*
X85541178Y-78070330D01*
X85540182Y-77875590D01*
X85535955Y-77729495D01*
X85526639Y-77616156D01*
X85510378Y-77519682D01*
X85485312Y-77424186D01*
X85454388Y-77328018D01*
X85331670Y-77025510D01*
X85174458Y-76756496D01*
X84970887Y-76502107D01*
X84865687Y-76392063D01*
X84611724Y-76164774D01*
X84350763Y-75988613D01*
X84063412Y-75851362D01*
X83929733Y-75802223D01*
X83671538Y-75714295D01*
X78604447Y-75714295D01*
X73537357Y-75714295D01*
X73279161Y-75802223D01*
X72974884Y-75926738D01*
X72705166Y-76085013D01*
X72450617Y-76289267D01*
X72343207Y-76392063D01*
X72115952Y-76645968D01*
X71940179Y-76906353D01*
X71804023Y-77192084D01*
X71754507Y-77328018D01*
X71720126Y-77435855D01*
X71696189Y-77530643D01*
X71680839Y-77628273D01*
X71672216Y-77744632D01*
X71668465Y-77895612D01*
X71667717Y-78070330D01*
X71206135Y-78070330D01*
X71207289Y-77973507D01*
X71221131Y-77718905D01*
X71244609Y-77509224D01*
X71282274Y-77325034D01*
X71338675Y-77146908D01*
X71418363Y-76955418D01*
X71473001Y-76838949D01*
X71685476Y-76471331D01*
X71948274Y-76142353D01*
X72256998Y-75856413D01*
X72607252Y-75617910D01*
X72790093Y-75520961D01*
X72991375Y-75429664D01*
X73179571Y-75360207D01*
X73368739Y-75309928D01*
X73572937Y-75276164D01*
X73806223Y-75256254D01*
X74082656Y-75247535D01*
X74239327Y-75246541D01*
X74428951Y-75245495D01*
X74594253Y-75242720D01*
X74725255Y-75238537D01*
X74811977Y-75233269D01*
X74844441Y-75227236D01*
X74844473Y-75227039D01*
X74844055Y-75226397D01*
X74909022Y-75226397D01*
X74939685Y-75232451D01*
X75025234Y-75237764D01*
X75156008Y-75242038D01*
X75322344Y-75244975D01*
X75514582Y-75246277D01*
X75554511Y-75246315D01*
X76200000Y-75246315D01*
X76200000Y-74423316D01*
X76199574Y-74200471D01*
X76198373Y-74000526D01*
X76196517Y-73832039D01*
X76194124Y-73703566D01*
X76191311Y-73623664D01*
X76188624Y-73600317D01*
X76165016Y-73623959D01*
X76112510Y-73686704D01*
X76041287Y-73776278D01*
X76021281Y-73802033D01*
X75955365Y-73886547D01*
X75857423Y-74011158D01*
X75735653Y-74165481D01*
X75598255Y-74339132D01*
X75453428Y-74521726D01*
X75387168Y-74605114D01*
X75253092Y-74774543D01*
X75133533Y-74927165D01*
X75034040Y-75055768D01*
X74960161Y-75153143D01*
X74917447Y-75212080D01*
X74909022Y-75226397D01*
X74844055Y-75226397D01*
X74825201Y-75197466D01*
X74771062Y-75124681D01*
X74687570Y-75015826D01*
X74580239Y-74878045D01*
X74454583Y-74718484D01*
X74359257Y-74598390D01*
X73874041Y-73989018D01*
X73883209Y-73646417D01*
X73892376Y-73303816D01*
X74271601Y-73779230D01*
X74650826Y-74254643D01*
X74650826Y-71224943D01*
X74650826Y-68195243D01*
X74247011Y-67790529D01*
X73843195Y-67385815D01*
X74005353Y-67226095D01*
X74167512Y-67066375D01*
X74635090Y-67533120D01*
G37*
G36*
X83220447Y-84082126D02*
G01*
X83659764Y-84162033D01*
X84071225Y-84298876D01*
X84451592Y-84489918D01*
X84797627Y-84732426D01*
X85106093Y-85023664D01*
X85373752Y-85360897D01*
X85597366Y-85741391D01*
X85773697Y-86162410D01*
X85808268Y-86268043D01*
X85898475Y-86558513D01*
X85907681Y-105826366D01*
X85908357Y-107343603D01*
X85908903Y-108796652D01*
X85909320Y-110185876D01*
X85909607Y-111511636D01*
X85909763Y-112774292D01*
X85909788Y-113974207D01*
X85909681Y-115111742D01*
X85909442Y-116187258D01*
X85909071Y-117201117D01*
X85908567Y-118153680D01*
X85907929Y-119045310D01*
X85907158Y-119876366D01*
X85906253Y-120647211D01*
X85905213Y-121358206D01*
X85904037Y-122009712D01*
X85902727Y-122602092D01*
X85901280Y-123135706D01*
X85899696Y-123610916D01*
X85897976Y-124028083D01*
X85896118Y-124387570D01*
X85894123Y-124689736D01*
X85891989Y-124934944D01*
X85889716Y-125123556D01*
X85887305Y-125255932D01*
X85884753Y-125332434D01*
X85883405Y-125349998D01*
X85856809Y-125498466D01*
X85814301Y-125677008D01*
X85763346Y-125855530D01*
X85741219Y-125923272D01*
X85571143Y-126323062D01*
X85348346Y-126688636D01*
X85077104Y-127016078D01*
X84761693Y-127301470D01*
X84406387Y-127540897D01*
X84015463Y-127730441D01*
X83630656Y-127856720D01*
X83444327Y-127893019D01*
X83216362Y-127919299D01*
X82969048Y-127934509D01*
X82724671Y-127937598D01*
X82505520Y-127927514D01*
X82396696Y-127914903D01*
X81983055Y-127819699D01*
X81589811Y-127666790D01*
X81222773Y-127461069D01*
X80887747Y-127207425D01*
X80590540Y-126910750D01*
X80336958Y-126575934D01*
X80132809Y-126207867D01*
X80014013Y-125908078D01*
X79964568Y-125745422D01*
X79920138Y-125575285D01*
X79887939Y-125426165D01*
X79880273Y-125379982D01*
X79877798Y-125330324D01*
X79875416Y-125216467D01*
X79873127Y-125038757D01*
X79870933Y-124797543D01*
X79868833Y-124493174D01*
X79866829Y-124125998D01*
X79864921Y-123696363D01*
X79863109Y-123204618D01*
X79861395Y-122651111D01*
X79859778Y-122036190D01*
X79858259Y-121360204D01*
X79856839Y-120623501D01*
X79855519Y-119826429D01*
X79854299Y-118969337D01*
X79853179Y-118052573D01*
X79852160Y-117076485D01*
X79851244Y-116041423D01*
X79850429Y-114947733D01*
X79849718Y-113795765D01*
X79849110Y-112585867D01*
X79848607Y-111318387D01*
X79848208Y-109993674D01*
X79847914Y-108612075D01*
X79847726Y-107173940D01*
X79847653Y-106003875D01*
X80314994Y-106003875D01*
X80314999Y-107342633D01*
X80315020Y-108618376D01*
X80315059Y-109832638D01*
X80315121Y-110986952D01*
X80315212Y-112082853D01*
X80315335Y-113121874D01*
X80315494Y-114105549D01*
X80315696Y-115035412D01*
X80315943Y-115912997D01*
X80316240Y-116739838D01*
X80316593Y-117517468D01*
X80317005Y-118247421D01*
X80317481Y-118931232D01*
X80318025Y-119570433D01*
X80318642Y-120166560D01*
X80319337Y-120721145D01*
X80320113Y-121235722D01*
X80320976Y-121711827D01*
X80321930Y-122150991D01*
X80322979Y-122554749D01*
X80324128Y-122924635D01*
X80325381Y-123262183D01*
X80326743Y-123568927D01*
X80328219Y-123846400D01*
X80329813Y-124096136D01*
X80331528Y-124319670D01*
X80333371Y-124518534D01*
X80335345Y-124694263D01*
X80337455Y-124848391D01*
X80339706Y-124982451D01*
X80342101Y-125097978D01*
X80344645Y-125196505D01*
X80347344Y-125279566D01*
X80350201Y-125348694D01*
X80353220Y-125405424D01*
X80356407Y-125451290D01*
X80359766Y-125487825D01*
X80363301Y-125516564D01*
X80367017Y-125539039D01*
X80370919Y-125556786D01*
X80372338Y-125562198D01*
X80501713Y-125926427D01*
X80682237Y-126270466D01*
X80906590Y-126583783D01*
X81167454Y-126855844D01*
X81396188Y-127035804D01*
X81547792Y-127130005D01*
X81724126Y-127225274D01*
X81899797Y-127308741D01*
X82049409Y-127367537D01*
X82053303Y-127368809D01*
X82360260Y-127442789D01*
X82698914Y-127480387D01*
X83047277Y-127481063D01*
X83383364Y-127444280D01*
X83563209Y-127405777D01*
X83933124Y-127277130D01*
X84275649Y-127093021D01*
X84585736Y-126858545D01*
X84858336Y-126578800D01*
X85088402Y-126258882D01*
X85270886Y-125903886D01*
X85389289Y-125562198D01*
X85393256Y-125545752D01*
X85397037Y-125525118D01*
X85400635Y-125498761D01*
X85404056Y-125465148D01*
X85407303Y-125422745D01*
X85410381Y-125370018D01*
X85413294Y-125305432D01*
X85416048Y-125227455D01*
X85418646Y-125134553D01*
X85421094Y-125025190D01*
X85423395Y-124897835D01*
X85425554Y-124750953D01*
X85427575Y-124583009D01*
X85429464Y-124392471D01*
X85431224Y-124177804D01*
X85432860Y-123937475D01*
X85434376Y-123669950D01*
X85435778Y-123373694D01*
X85437069Y-123047174D01*
X85438255Y-122688857D01*
X85439338Y-122297207D01*
X85440325Y-121870693D01*
X85441220Y-121407778D01*
X85442026Y-120906931D01*
X85442749Y-120366617D01*
X85443393Y-119785301D01*
X85443962Y-119161451D01*
X85444462Y-118493533D01*
X85444896Y-117780012D01*
X85445268Y-117019355D01*
X85445585Y-116210028D01*
X85445849Y-115350496D01*
X85446066Y-114439227D01*
X85446240Y-113474687D01*
X85446376Y-112455341D01*
X85446477Y-111379655D01*
X85446549Y-110246097D01*
X85446596Y-109053131D01*
X85446622Y-107799225D01*
X85446632Y-106482844D01*
X85446633Y-106003875D01*
X85446627Y-104665117D01*
X85446607Y-103389374D01*
X85446568Y-102175113D01*
X85446505Y-101020798D01*
X85446415Y-99924898D01*
X85446292Y-98885877D01*
X85446132Y-97902202D01*
X85445931Y-96972338D01*
X85445684Y-96094754D01*
X85445386Y-95267913D01*
X85445034Y-94490283D01*
X85444622Y-93760330D01*
X85444146Y-93076519D01*
X85443602Y-92437317D01*
X85442985Y-91841191D01*
X85442290Y-91286606D01*
X85441514Y-90772028D01*
X85440651Y-90295924D01*
X85439697Y-89856760D01*
X85438648Y-89453001D01*
X85437499Y-89083115D01*
X85436246Y-88745567D01*
X85434883Y-88438823D01*
X85433408Y-88161350D01*
X85431814Y-87911614D01*
X85430098Y-87688081D01*
X85428255Y-87489216D01*
X85426281Y-87313487D01*
X85424171Y-87159359D01*
X85421921Y-87025299D01*
X85419526Y-86909772D01*
X85416981Y-86811246D01*
X85414283Y-86728185D01*
X85411426Y-86659056D01*
X85408406Y-86602326D01*
X85405219Y-86556460D01*
X85401861Y-86519925D01*
X85398325Y-86491187D01*
X85394609Y-86468711D01*
X85390708Y-86450965D01*
X85389289Y-86445553D01*
X85252434Y-86060398D01*
X85063761Y-85708040D01*
X84828008Y-85392861D01*
X84549914Y-85119247D01*
X84234217Y-84891579D01*
X83885658Y-84714242D01*
X83508975Y-84591618D01*
X83349109Y-84558454D01*
X83084728Y-84521699D01*
X82847391Y-84512024D01*
X82605550Y-84529431D01*
X82412517Y-84558454D01*
X82022861Y-84657980D01*
X81661049Y-84813670D01*
X81331417Y-85021576D01*
X81038297Y-85277749D01*
X80786023Y-85578238D01*
X80578928Y-85919094D01*
X80421345Y-86296369D01*
X80387948Y-86403622D01*
X80314994Y-86655336D01*
X80314994Y-106003875D01*
X79847653Y-106003875D01*
X79847653Y-106000034D01*
X79847591Y-104657816D01*
X79847505Y-103378603D01*
X79847409Y-102160853D01*
X79847318Y-101003021D01*
X79847244Y-99903565D01*
X79847202Y-98860942D01*
X79847206Y-97873608D01*
X79847270Y-96940020D01*
X79847408Y-96058634D01*
X79847633Y-95227908D01*
X79847960Y-94446297D01*
X79848402Y-93712259D01*
X79848973Y-93024251D01*
X79849687Y-92380729D01*
X79850559Y-91780149D01*
X79851601Y-91220969D01*
X79852828Y-90701646D01*
X79854255Y-90220635D01*
X79855893Y-89776394D01*
X79857759Y-89367379D01*
X79859865Y-88992047D01*
X79862225Y-88648855D01*
X79864854Y-88336260D01*
X79867765Y-88052718D01*
X79870972Y-87796685D01*
X79874489Y-87566620D01*
X79878330Y-87360977D01*
X79882508Y-87178215D01*
X79887039Y-87016789D01*
X79891935Y-86875157D01*
X79897211Y-86751774D01*
X79902336Y-86655336D01*
X79902880Y-86645099D01*
X79908957Y-86553587D01*
X79915454Y-86475696D01*
X79922387Y-86409881D01*
X79929769Y-86354600D01*
X79937614Y-86308309D01*
X79945936Y-86269466D01*
X79954749Y-86236526D01*
X79964066Y-86207947D01*
X79973902Y-86182185D01*
X79984271Y-86157697D01*
X79995186Y-86132940D01*
X80006661Y-86106370D01*
X80018710Y-86076444D01*
X80027368Y-86053027D01*
X80200211Y-85659659D01*
X80423702Y-85301771D01*
X80692554Y-84982624D01*
X81001477Y-84705485D01*
X81345185Y-84473615D01*
X81718391Y-84290279D01*
X82115806Y-84158741D01*
X82532144Y-84082264D01*
X82962115Y-84064112D01*
X83220447Y-84082126D01*
G37*
G36*
X70556170Y-91884884D02*
G01*
X70720141Y-91889027D01*
X70848612Y-91897560D01*
X70956095Y-91911817D01*
X71057103Y-91933129D01*
X71149047Y-91957885D01*
X71568884Y-92110815D01*
X71955175Y-92317392D01*
X72304401Y-92574126D01*
X72613045Y-92877523D01*
X72877588Y-93224094D01*
X73094512Y-93610346D01*
X73260299Y-94032787D01*
X73269500Y-94062325D01*
X73343710Y-94304384D01*
X73352506Y-110619123D01*
X73353199Y-111856562D01*
X73353897Y-113031125D01*
X73354580Y-114144487D01*
X73355231Y-115198321D01*
X73355830Y-116194301D01*
X73356359Y-117134100D01*
X73356799Y-118019393D01*
X73357132Y-118851853D01*
X73357338Y-119633154D01*
X73357399Y-120364969D01*
X73357297Y-121048973D01*
X73357012Y-121686838D01*
X73356526Y-122280239D01*
X73355820Y-122830849D01*
X73354876Y-123340343D01*
X73353675Y-123810393D01*
X73352198Y-124242673D01*
X73350427Y-124638858D01*
X73348342Y-125000621D01*
X73345925Y-125329635D01*
X73343158Y-125627575D01*
X73340022Y-125896113D01*
X73336497Y-126136924D01*
X73332566Y-126351682D01*
X73328209Y-126542060D01*
X73323408Y-126709732D01*
X73318145Y-126856371D01*
X73312400Y-126983652D01*
X73306155Y-127093247D01*
X73299391Y-127186832D01*
X73292089Y-127266078D01*
X73284232Y-127332661D01*
X73275799Y-127388254D01*
X73266772Y-127434530D01*
X73257134Y-127473164D01*
X73246864Y-127505828D01*
X73235945Y-127534197D01*
X73224357Y-127559945D01*
X73212082Y-127584745D01*
X73199101Y-127610270D01*
X73185396Y-127638195D01*
X73170947Y-127670193D01*
X73161807Y-127692312D01*
X72999994Y-128026747D01*
X72788257Y-128353134D01*
X72539020Y-128655563D01*
X72264703Y-128918125D01*
X72112371Y-129036408D01*
X71890158Y-129176010D01*
X71630444Y-129308866D01*
X71360021Y-129422498D01*
X71109794Y-129503350D01*
X70902420Y-129544127D01*
X70654123Y-129571475D01*
X70387270Y-129584645D01*
X70124228Y-129582888D01*
X69887367Y-129565458D01*
X69772040Y-129548107D01*
X69347915Y-129435455D01*
X68949318Y-129263968D01*
X68579294Y-129035317D01*
X68240886Y-128751174D01*
X68145804Y-128655172D01*
X67867710Y-128318217D01*
X67642806Y-127950908D01*
X67474712Y-127560111D01*
X67374605Y-127192058D01*
X67370715Y-127168702D01*
X67367029Y-127137545D01*
X67363542Y-127096926D01*
X67360250Y-127045187D01*
X67357150Y-126980668D01*
X67354236Y-126901711D01*
X67351504Y-126806657D01*
X67348951Y-126693845D01*
X67346572Y-126561617D01*
X67344362Y-126408314D01*
X67342318Y-126232276D01*
X67340434Y-126031845D01*
X67338708Y-125805361D01*
X67337134Y-125551166D01*
X67335708Y-125267599D01*
X67334426Y-124953001D01*
X67333284Y-124605715D01*
X67332277Y-124224079D01*
X67331401Y-123806436D01*
X67330652Y-123351126D01*
X67330026Y-122856489D01*
X67329518Y-122320868D01*
X67329124Y-121742601D01*
X67328839Y-121120032D01*
X67328660Y-120451499D01*
X67328583Y-119735344D01*
X67328602Y-118969908D01*
X67328713Y-118153532D01*
X67328913Y-117284556D01*
X67329197Y-116361322D01*
X67329561Y-115382170D01*
X67330000Y-114345440D01*
X67330511Y-113249475D01*
X67330579Y-113113429D01*
X67776570Y-113113429D01*
X67776578Y-114210049D01*
X67776609Y-115247189D01*
X67776667Y-116226538D01*
X67776761Y-117149785D01*
X67776897Y-118018621D01*
X67777082Y-118834734D01*
X67777321Y-119599813D01*
X67777622Y-120315550D01*
X67777992Y-120983632D01*
X67778437Y-121605750D01*
X67778964Y-122183593D01*
X67779579Y-122718851D01*
X67780289Y-123213212D01*
X67781101Y-123668367D01*
X67782021Y-124086005D01*
X67783056Y-124467815D01*
X67784214Y-124815487D01*
X67785499Y-125130711D01*
X67786919Y-125415176D01*
X67788481Y-125670571D01*
X67790192Y-125898586D01*
X67792057Y-126100910D01*
X67794084Y-126279233D01*
X67796280Y-126435245D01*
X67798650Y-126570635D01*
X67801202Y-126687092D01*
X67803942Y-126786306D01*
X67806877Y-126869966D01*
X67810014Y-126939762D01*
X67813358Y-126997383D01*
X67816918Y-127044520D01*
X67820699Y-127082860D01*
X67824709Y-127114095D01*
X67828953Y-127139913D01*
X67833439Y-127162003D01*
X67838173Y-127182056D01*
X67841428Y-127194964D01*
X67971910Y-127581119D01*
X68155945Y-127935177D01*
X68388834Y-128252851D01*
X68665876Y-128529851D01*
X68982374Y-128761889D01*
X69333626Y-128944676D01*
X69714934Y-129073922D01*
X69954892Y-129123778D01*
X70067168Y-129132863D01*
X70224620Y-129134003D01*
X70408509Y-129128276D01*
X70600093Y-129116758D01*
X70780634Y-129100527D01*
X70931393Y-129080658D01*
X71018785Y-129062644D01*
X71396749Y-128926641D01*
X71744242Y-128736349D01*
X72056430Y-128496715D01*
X72328479Y-128212691D01*
X72555556Y-127889225D01*
X72732825Y-127531268D01*
X72842943Y-127194964D01*
X72847844Y-127175330D01*
X72852492Y-127154771D01*
X72856895Y-127131598D01*
X72861058Y-127104119D01*
X72864989Y-127070647D01*
X72868694Y-127029492D01*
X72872179Y-126978964D01*
X72875452Y-126917374D01*
X72878519Y-126843032D01*
X72881387Y-126754249D01*
X72884062Y-126649335D01*
X72886551Y-126526600D01*
X72888861Y-126384356D01*
X72890998Y-126220913D01*
X72892969Y-126034581D01*
X72894781Y-125823671D01*
X72896440Y-125586493D01*
X72897953Y-125321358D01*
X72899326Y-125026576D01*
X72900567Y-124700458D01*
X72901682Y-124341315D01*
X72902677Y-123947456D01*
X72903560Y-123517192D01*
X72904336Y-123048835D01*
X72905013Y-122540693D01*
X72905597Y-121991079D01*
X72906095Y-121398302D01*
X72906514Y-120760673D01*
X72906859Y-120076502D01*
X72907139Y-119344100D01*
X72907359Y-118561777D01*
X72907526Y-117727845D01*
X72907646Y-116840612D01*
X72907728Y-115898391D01*
X72907776Y-114899491D01*
X72907798Y-113842223D01*
X72907800Y-112724898D01*
X72907790Y-111545825D01*
X72907779Y-110734990D01*
X72907758Y-109513939D01*
X72907727Y-108355749D01*
X72907679Y-107258728D01*
X72907608Y-106221188D01*
X72907507Y-105241439D01*
X72907369Y-104317792D01*
X72907190Y-103448556D01*
X72906961Y-102632044D01*
X72906677Y-101866564D01*
X72906331Y-101150429D01*
X72905917Y-100481947D01*
X72905428Y-99859430D01*
X72904858Y-99281189D01*
X72904201Y-98745534D01*
X72903450Y-98250774D01*
X72902599Y-97795222D01*
X72901641Y-97377188D01*
X72900571Y-96994981D01*
X72899380Y-96646913D01*
X72898064Y-96331294D01*
X72896616Y-96046434D01*
X72895029Y-95790645D01*
X72893297Y-95562236D01*
X72891414Y-95359519D01*
X72889373Y-95180803D01*
X72887167Y-95024399D01*
X72884791Y-94888619D01*
X72882238Y-94771771D01*
X72879501Y-94672168D01*
X72876574Y-94588119D01*
X72873451Y-94517935D01*
X72870125Y-94459926D01*
X72866590Y-94412403D01*
X72862840Y-94373677D01*
X72858868Y-94342058D01*
X72854667Y-94315857D01*
X72850232Y-94293383D01*
X72845555Y-94272949D01*
X72845353Y-94272109D01*
X72720901Y-93890160D01*
X72540450Y-93535682D01*
X72308765Y-93214368D01*
X72030609Y-92931909D01*
X71710747Y-92693997D01*
X71374968Y-92515474D01*
X71057103Y-92406584D01*
X70707423Y-92341300D01*
X70341710Y-92319627D01*
X69975746Y-92341569D01*
X69625314Y-92407129D01*
X69309403Y-92514908D01*
X69139872Y-92601003D01*
X68952437Y-92715618D01*
X68766181Y-92845416D01*
X68600189Y-92977060D01*
X68473544Y-93097212D01*
X68468920Y-93102307D01*
X68226129Y-93405276D01*
X68040146Y-93714921D01*
X67903611Y-94044912D01*
X67839018Y-94272109D01*
X67834331Y-94292495D01*
X67829886Y-94314848D01*
X67825675Y-94340859D01*
X67821694Y-94372216D01*
X67817934Y-94410610D01*
X67814390Y-94457728D01*
X67811056Y-94515262D01*
X67807925Y-94584900D01*
X67804990Y-94668333D01*
X67802245Y-94767248D01*
X67799684Y-94883336D01*
X67797301Y-95018287D01*
X67795088Y-95173789D01*
X67793040Y-95351533D01*
X67791150Y-95553207D01*
X67789412Y-95780502D01*
X67787819Y-96035106D01*
X67786365Y-96318709D01*
X67785043Y-96633001D01*
X67783848Y-96979671D01*
X67782773Y-97360408D01*
X67781810Y-97776903D01*
X67780955Y-98230843D01*
X67780200Y-98723920D01*
X67779539Y-99257822D01*
X67778966Y-99834239D01*
X67778474Y-100454860D01*
X67778057Y-101121375D01*
X67777708Y-101835473D01*
X67777421Y-102598844D01*
X67777190Y-103413177D01*
X67777008Y-104280161D01*
X67776869Y-105201487D01*
X67776767Y-106178843D01*
X67776694Y-107213919D01*
X67776646Y-108308405D01*
X67776614Y-109463990D01*
X67776593Y-110682363D01*
X67776592Y-110734990D01*
X67776577Y-111955639D01*
X67776570Y-113113429D01*
X67330579Y-113113429D01*
X67331088Y-112092614D01*
X67331728Y-110873198D01*
X67331865Y-110619123D01*
X67340661Y-94304384D01*
X67414871Y-94062325D01*
X67577103Y-93637582D01*
X67790708Y-93248794D01*
X68052167Y-92899453D01*
X68357964Y-92593051D01*
X68704578Y-92333079D01*
X69088494Y-92123028D01*
X69506191Y-91966391D01*
X69535324Y-91957885D01*
X69642278Y-91929501D01*
X69743328Y-91909310D01*
X69852987Y-91895978D01*
X69985768Y-91888174D01*
X70156184Y-91884564D01*
X70342186Y-91883799D01*
X70556170Y-91884884D01*
G37*
D14*
X73700000Y-40350000D03*
X73700000Y-162850000D03*
%LPD*%
M02*
