%TF.GenerationSoftware,KiCad,Pcbnew,8.0.2*%
%TF.CreationDate,2024-05-01T23:14:13+02:00*%
%TF.ProjectId,PetRockPanel,50657452-6f63-46b5-9061-6e656c2e6b69,rev?*%
%TF.SameCoordinates,Original*%
%TF.FileFunction,Drillmap*%
%TF.FilePolarity,Positive*%
%FSLAX45Y45*%
G04 Gerber Fmt 4.5, Leading zero omitted, Abs format (unit mm)*
G04 Created by KiCad (PCBNEW 8.0.2) date 2024-05-01 23:14:13*
%MOMM*%
%LPD*%
G01*
G04 APERTURE LIST*
%ADD10C,0.100000*%
%ADD11C,0.200000*%
%ADD12C,0.600000*%
G04 APERTURE END LIST*
D10*
X6620000Y-3735000D02*
X8620000Y-3735000D01*
X8620000Y-16585000D01*
X6620000Y-16585000D01*
X6620000Y-3735000D01*
D11*
D12*
X6845377Y-6161760D02*
X7445377Y-6761760D01*
X7445377Y-6161760D02*
X6845377Y-6761760D01*
X6872960Y-14068780D02*
X7472960Y-14668780D01*
X7472960Y-14068780D02*
X6872960Y-14668780D01*
X7769086Y-6164300D02*
X8369086Y-6764300D01*
X8369086Y-6164300D02*
X7769086Y-6764300D01*
X7812266Y-14548840D02*
X8412266Y-15148840D01*
X8412266Y-14548840D02*
X7812266Y-15148840D01*
D11*
X6875777Y-16901484D02*
X6875777Y-16701484D01*
X6875777Y-16701484D02*
X6923396Y-16701484D01*
X6923396Y-16701484D02*
X6951967Y-16711008D01*
X6951967Y-16711008D02*
X6971015Y-16730055D01*
X6971015Y-16730055D02*
X6980539Y-16749103D01*
X6980539Y-16749103D02*
X6990062Y-16787198D01*
X6990062Y-16787198D02*
X6990062Y-16815770D01*
X6990062Y-16815770D02*
X6980539Y-16853865D01*
X6980539Y-16853865D02*
X6971015Y-16872912D01*
X6971015Y-16872912D02*
X6951967Y-16891960D01*
X6951967Y-16891960D02*
X6923396Y-16901484D01*
X6923396Y-16901484D02*
X6875777Y-16901484D01*
X7075777Y-16901484D02*
X7075777Y-16768150D01*
X7075777Y-16806246D02*
X7085301Y-16787198D01*
X7085301Y-16787198D02*
X7094824Y-16777674D01*
X7094824Y-16777674D02*
X7113872Y-16768150D01*
X7113872Y-16768150D02*
X7132920Y-16768150D01*
X7199586Y-16901484D02*
X7199586Y-16768150D01*
X7199586Y-16701484D02*
X7190062Y-16711008D01*
X7190062Y-16711008D02*
X7199586Y-16720531D01*
X7199586Y-16720531D02*
X7209110Y-16711008D01*
X7209110Y-16711008D02*
X7199586Y-16701484D01*
X7199586Y-16701484D02*
X7199586Y-16720531D01*
X7323396Y-16901484D02*
X7304348Y-16891960D01*
X7304348Y-16891960D02*
X7294824Y-16872912D01*
X7294824Y-16872912D02*
X7294824Y-16701484D01*
X7428158Y-16901484D02*
X7409110Y-16891960D01*
X7409110Y-16891960D02*
X7399586Y-16872912D01*
X7399586Y-16872912D02*
X7399586Y-16701484D01*
X7656729Y-16901484D02*
X7656729Y-16701484D01*
X7656729Y-16701484D02*
X7723396Y-16844341D01*
X7723396Y-16844341D02*
X7790062Y-16701484D01*
X7790062Y-16701484D02*
X7790062Y-16901484D01*
X7971015Y-16901484D02*
X7971015Y-16796722D01*
X7971015Y-16796722D02*
X7961491Y-16777674D01*
X7961491Y-16777674D02*
X7942443Y-16768150D01*
X7942443Y-16768150D02*
X7904348Y-16768150D01*
X7904348Y-16768150D02*
X7885301Y-16777674D01*
X7971015Y-16891960D02*
X7951967Y-16901484D01*
X7951967Y-16901484D02*
X7904348Y-16901484D01*
X7904348Y-16901484D02*
X7885301Y-16891960D01*
X7885301Y-16891960D02*
X7875777Y-16872912D01*
X7875777Y-16872912D02*
X7875777Y-16853865D01*
X7875777Y-16853865D02*
X7885301Y-16834817D01*
X7885301Y-16834817D02*
X7904348Y-16825293D01*
X7904348Y-16825293D02*
X7951967Y-16825293D01*
X7951967Y-16825293D02*
X7971015Y-16815770D01*
X8066253Y-16768150D02*
X8066253Y-16968150D01*
X8066253Y-16777674D02*
X8085301Y-16768150D01*
X8085301Y-16768150D02*
X8123396Y-16768150D01*
X8123396Y-16768150D02*
X8142443Y-16777674D01*
X8142443Y-16777674D02*
X8151967Y-16787198D01*
X8151967Y-16787198D02*
X8161491Y-16806246D01*
X8161491Y-16806246D02*
X8161491Y-16863389D01*
X8161491Y-16863389D02*
X8151967Y-16882436D01*
X8151967Y-16882436D02*
X8142443Y-16891960D01*
X8142443Y-16891960D02*
X8123396Y-16901484D01*
X8123396Y-16901484D02*
X8085301Y-16901484D01*
X8085301Y-16901484D02*
X8066253Y-16891960D01*
X8247205Y-16882436D02*
X8256729Y-16891960D01*
X8256729Y-16891960D02*
X8247205Y-16901484D01*
X8247205Y-16901484D02*
X8237682Y-16891960D01*
X8237682Y-16891960D02*
X8247205Y-16882436D01*
X8247205Y-16882436D02*
X8247205Y-16901484D01*
X8247205Y-16777674D02*
X8256729Y-16787198D01*
X8256729Y-16787198D02*
X8247205Y-16796722D01*
X8247205Y-16796722D02*
X8237682Y-16787198D01*
X8237682Y-16787198D02*
X8247205Y-16777674D01*
X8247205Y-16777674D02*
X8247205Y-16796722D01*
X6415000Y-17130000D02*
X6615000Y-17330000D01*
X6615000Y-17130000D02*
X6415000Y-17330000D01*
X6961491Y-17121484D02*
X6923396Y-17121484D01*
X6923396Y-17121484D02*
X6904348Y-17131008D01*
X6904348Y-17131008D02*
X6894824Y-17140531D01*
X6894824Y-17140531D02*
X6875777Y-17169103D01*
X6875777Y-17169103D02*
X6866253Y-17207198D01*
X6866253Y-17207198D02*
X6866253Y-17283389D01*
X6866253Y-17283389D02*
X6875777Y-17302436D01*
X6875777Y-17302436D02*
X6885301Y-17311960D01*
X6885301Y-17311960D02*
X6904348Y-17321484D01*
X6904348Y-17321484D02*
X6942443Y-17321484D01*
X6942443Y-17321484D02*
X6961491Y-17311960D01*
X6961491Y-17311960D02*
X6971015Y-17302436D01*
X6971015Y-17302436D02*
X6980539Y-17283389D01*
X6980539Y-17283389D02*
X6980539Y-17235770D01*
X6980539Y-17235770D02*
X6971015Y-17216722D01*
X6971015Y-17216722D02*
X6961491Y-17207198D01*
X6961491Y-17207198D02*
X6942443Y-17197674D01*
X6942443Y-17197674D02*
X6904348Y-17197674D01*
X6904348Y-17197674D02*
X6885301Y-17207198D01*
X6885301Y-17207198D02*
X6875777Y-17216722D01*
X6875777Y-17216722D02*
X6866253Y-17235770D01*
X7066253Y-17302436D02*
X7075777Y-17311960D01*
X7075777Y-17311960D02*
X7066253Y-17321484D01*
X7066253Y-17321484D02*
X7056729Y-17311960D01*
X7056729Y-17311960D02*
X7066253Y-17302436D01*
X7066253Y-17302436D02*
X7066253Y-17321484D01*
X7199586Y-17121484D02*
X7218634Y-17121484D01*
X7218634Y-17121484D02*
X7237682Y-17131008D01*
X7237682Y-17131008D02*
X7247205Y-17140531D01*
X7247205Y-17140531D02*
X7256729Y-17159579D01*
X7256729Y-17159579D02*
X7266253Y-17197674D01*
X7266253Y-17197674D02*
X7266253Y-17245293D01*
X7266253Y-17245293D02*
X7256729Y-17283389D01*
X7256729Y-17283389D02*
X7247205Y-17302436D01*
X7247205Y-17302436D02*
X7237682Y-17311960D01*
X7237682Y-17311960D02*
X7218634Y-17321484D01*
X7218634Y-17321484D02*
X7199586Y-17321484D01*
X7199586Y-17321484D02*
X7180539Y-17311960D01*
X7180539Y-17311960D02*
X7171015Y-17302436D01*
X7171015Y-17302436D02*
X7161491Y-17283389D01*
X7161491Y-17283389D02*
X7151967Y-17245293D01*
X7151967Y-17245293D02*
X7151967Y-17197674D01*
X7151967Y-17197674D02*
X7161491Y-17159579D01*
X7161491Y-17159579D02*
X7171015Y-17140531D01*
X7171015Y-17140531D02*
X7180539Y-17131008D01*
X7180539Y-17131008D02*
X7199586Y-17121484D01*
X7390062Y-17121484D02*
X7409110Y-17121484D01*
X7409110Y-17121484D02*
X7428158Y-17131008D01*
X7428158Y-17131008D02*
X7437682Y-17140531D01*
X7437682Y-17140531D02*
X7447205Y-17159579D01*
X7447205Y-17159579D02*
X7456729Y-17197674D01*
X7456729Y-17197674D02*
X7456729Y-17245293D01*
X7456729Y-17245293D02*
X7447205Y-17283389D01*
X7447205Y-17283389D02*
X7437682Y-17302436D01*
X7437682Y-17302436D02*
X7428158Y-17311960D01*
X7428158Y-17311960D02*
X7409110Y-17321484D01*
X7409110Y-17321484D02*
X7390062Y-17321484D01*
X7390062Y-17321484D02*
X7371015Y-17311960D01*
X7371015Y-17311960D02*
X7361491Y-17302436D01*
X7361491Y-17302436D02*
X7351967Y-17283389D01*
X7351967Y-17283389D02*
X7342443Y-17245293D01*
X7342443Y-17245293D02*
X7342443Y-17197674D01*
X7342443Y-17197674D02*
X7351967Y-17159579D01*
X7351967Y-17159579D02*
X7361491Y-17140531D01*
X7361491Y-17140531D02*
X7371015Y-17131008D01*
X7371015Y-17131008D02*
X7390062Y-17121484D01*
X7580539Y-17121484D02*
X7599586Y-17121484D01*
X7599586Y-17121484D02*
X7618634Y-17131008D01*
X7618634Y-17131008D02*
X7628158Y-17140531D01*
X7628158Y-17140531D02*
X7637682Y-17159579D01*
X7637682Y-17159579D02*
X7647205Y-17197674D01*
X7647205Y-17197674D02*
X7647205Y-17245293D01*
X7647205Y-17245293D02*
X7637682Y-17283389D01*
X7637682Y-17283389D02*
X7628158Y-17302436D01*
X7628158Y-17302436D02*
X7618634Y-17311960D01*
X7618634Y-17311960D02*
X7599586Y-17321484D01*
X7599586Y-17321484D02*
X7580539Y-17321484D01*
X7580539Y-17321484D02*
X7561491Y-17311960D01*
X7561491Y-17311960D02*
X7551967Y-17302436D01*
X7551967Y-17302436D02*
X7542443Y-17283389D01*
X7542443Y-17283389D02*
X7532920Y-17245293D01*
X7532920Y-17245293D02*
X7532920Y-17197674D01*
X7532920Y-17197674D02*
X7542443Y-17159579D01*
X7542443Y-17159579D02*
X7551967Y-17140531D01*
X7551967Y-17140531D02*
X7561491Y-17131008D01*
X7561491Y-17131008D02*
X7580539Y-17121484D01*
X7732920Y-17321484D02*
X7732920Y-17188150D01*
X7732920Y-17207198D02*
X7742443Y-17197674D01*
X7742443Y-17197674D02*
X7761491Y-17188150D01*
X7761491Y-17188150D02*
X7790063Y-17188150D01*
X7790063Y-17188150D02*
X7809110Y-17197674D01*
X7809110Y-17197674D02*
X7818634Y-17216722D01*
X7818634Y-17216722D02*
X7818634Y-17321484D01*
X7818634Y-17216722D02*
X7828158Y-17197674D01*
X7828158Y-17197674D02*
X7847205Y-17188150D01*
X7847205Y-17188150D02*
X7875777Y-17188150D01*
X7875777Y-17188150D02*
X7894824Y-17197674D01*
X7894824Y-17197674D02*
X7904348Y-17216722D01*
X7904348Y-17216722D02*
X7904348Y-17321484D01*
X7999586Y-17321484D02*
X7999586Y-17188150D01*
X7999586Y-17207198D02*
X8009110Y-17197674D01*
X8009110Y-17197674D02*
X8028158Y-17188150D01*
X8028158Y-17188150D02*
X8056729Y-17188150D01*
X8056729Y-17188150D02*
X8075777Y-17197674D01*
X8075777Y-17197674D02*
X8085301Y-17216722D01*
X8085301Y-17216722D02*
X8085301Y-17321484D01*
X8085301Y-17216722D02*
X8094824Y-17197674D01*
X8094824Y-17197674D02*
X8113872Y-17188150D01*
X8113872Y-17188150D02*
X8142443Y-17188150D01*
X8142443Y-17188150D02*
X8161491Y-17197674D01*
X8161491Y-17197674D02*
X8171015Y-17216722D01*
X8171015Y-17216722D02*
X8171015Y-17321484D01*
X8561491Y-17111960D02*
X8390063Y-17369103D01*
X8818634Y-17121484D02*
X8837682Y-17121484D01*
X8837682Y-17121484D02*
X8856729Y-17131008D01*
X8856729Y-17131008D02*
X8866253Y-17140531D01*
X8866253Y-17140531D02*
X8875777Y-17159579D01*
X8875777Y-17159579D02*
X8885301Y-17197674D01*
X8885301Y-17197674D02*
X8885301Y-17245293D01*
X8885301Y-17245293D02*
X8875777Y-17283389D01*
X8875777Y-17283389D02*
X8866253Y-17302436D01*
X8866253Y-17302436D02*
X8856729Y-17311960D01*
X8856729Y-17311960D02*
X8837682Y-17321484D01*
X8837682Y-17321484D02*
X8818634Y-17321484D01*
X8818634Y-17321484D02*
X8799587Y-17311960D01*
X8799587Y-17311960D02*
X8790063Y-17302436D01*
X8790063Y-17302436D02*
X8780539Y-17283389D01*
X8780539Y-17283389D02*
X8771015Y-17245293D01*
X8771015Y-17245293D02*
X8771015Y-17197674D01*
X8771015Y-17197674D02*
X8780539Y-17159579D01*
X8780539Y-17159579D02*
X8790063Y-17140531D01*
X8790063Y-17140531D02*
X8799587Y-17131008D01*
X8799587Y-17131008D02*
X8818634Y-17121484D01*
X8971015Y-17302436D02*
X8980539Y-17311960D01*
X8980539Y-17311960D02*
X8971015Y-17321484D01*
X8971015Y-17321484D02*
X8961491Y-17311960D01*
X8961491Y-17311960D02*
X8971015Y-17302436D01*
X8971015Y-17302436D02*
X8971015Y-17321484D01*
X9056729Y-17140531D02*
X9066253Y-17131008D01*
X9066253Y-17131008D02*
X9085301Y-17121484D01*
X9085301Y-17121484D02*
X9132920Y-17121484D01*
X9132920Y-17121484D02*
X9151968Y-17131008D01*
X9151968Y-17131008D02*
X9161491Y-17140531D01*
X9161491Y-17140531D02*
X9171015Y-17159579D01*
X9171015Y-17159579D02*
X9171015Y-17178627D01*
X9171015Y-17178627D02*
X9161491Y-17207198D01*
X9161491Y-17207198D02*
X9047206Y-17321484D01*
X9047206Y-17321484D02*
X9171015Y-17321484D01*
X9237682Y-17121484D02*
X9361491Y-17121484D01*
X9361491Y-17121484D02*
X9294825Y-17197674D01*
X9294825Y-17197674D02*
X9323396Y-17197674D01*
X9323396Y-17197674D02*
X9342444Y-17207198D01*
X9342444Y-17207198D02*
X9351968Y-17216722D01*
X9351968Y-17216722D02*
X9361491Y-17235770D01*
X9361491Y-17235770D02*
X9361491Y-17283389D01*
X9361491Y-17283389D02*
X9351968Y-17302436D01*
X9351968Y-17302436D02*
X9342444Y-17311960D01*
X9342444Y-17311960D02*
X9323396Y-17321484D01*
X9323396Y-17321484D02*
X9266253Y-17321484D01*
X9266253Y-17321484D02*
X9247206Y-17311960D01*
X9247206Y-17311960D02*
X9237682Y-17302436D01*
X9532920Y-17121484D02*
X9494825Y-17121484D01*
X9494825Y-17121484D02*
X9475777Y-17131008D01*
X9475777Y-17131008D02*
X9466253Y-17140531D01*
X9466253Y-17140531D02*
X9447206Y-17169103D01*
X9447206Y-17169103D02*
X9437682Y-17207198D01*
X9437682Y-17207198D02*
X9437682Y-17283389D01*
X9437682Y-17283389D02*
X9447206Y-17302436D01*
X9447206Y-17302436D02*
X9456729Y-17311960D01*
X9456729Y-17311960D02*
X9475777Y-17321484D01*
X9475777Y-17321484D02*
X9513872Y-17321484D01*
X9513872Y-17321484D02*
X9532920Y-17311960D01*
X9532920Y-17311960D02*
X9542444Y-17302436D01*
X9542444Y-17302436D02*
X9551968Y-17283389D01*
X9551968Y-17283389D02*
X9551968Y-17235770D01*
X9551968Y-17235770D02*
X9542444Y-17216722D01*
X9542444Y-17216722D02*
X9532920Y-17207198D01*
X9532920Y-17207198D02*
X9513872Y-17197674D01*
X9513872Y-17197674D02*
X9475777Y-17197674D01*
X9475777Y-17197674D02*
X9456729Y-17207198D01*
X9456729Y-17207198D02*
X9447206Y-17216722D01*
X9447206Y-17216722D02*
X9437682Y-17235770D01*
X9628158Y-17140531D02*
X9637682Y-17131008D01*
X9637682Y-17131008D02*
X9656729Y-17121484D01*
X9656729Y-17121484D02*
X9704349Y-17121484D01*
X9704349Y-17121484D02*
X9723396Y-17131008D01*
X9723396Y-17131008D02*
X9732920Y-17140531D01*
X9732920Y-17140531D02*
X9742444Y-17159579D01*
X9742444Y-17159579D02*
X9742444Y-17178627D01*
X9742444Y-17178627D02*
X9732920Y-17207198D01*
X9732920Y-17207198D02*
X9618634Y-17321484D01*
X9618634Y-17321484D02*
X9742444Y-17321484D01*
X9818634Y-17121484D02*
X9818634Y-17159579D01*
X9894825Y-17121484D02*
X9894825Y-17159579D01*
X10190063Y-17397674D02*
X10180539Y-17388150D01*
X10180539Y-17388150D02*
X10161491Y-17359579D01*
X10161491Y-17359579D02*
X10151968Y-17340531D01*
X10151968Y-17340531D02*
X10142444Y-17311960D01*
X10142444Y-17311960D02*
X10132920Y-17264341D01*
X10132920Y-17264341D02*
X10132920Y-17226246D01*
X10132920Y-17226246D02*
X10142444Y-17178627D01*
X10142444Y-17178627D02*
X10151968Y-17150055D01*
X10151968Y-17150055D02*
X10161491Y-17131008D01*
X10161491Y-17131008D02*
X10180539Y-17102436D01*
X10180539Y-17102436D02*
X10190063Y-17092912D01*
X10351968Y-17188150D02*
X10351968Y-17321484D01*
X10304349Y-17111960D02*
X10256730Y-17254817D01*
X10256730Y-17254817D02*
X10380539Y-17254817D01*
X10609111Y-17321484D02*
X10609111Y-17121484D01*
X10694825Y-17321484D02*
X10694825Y-17216722D01*
X10694825Y-17216722D02*
X10685301Y-17197674D01*
X10685301Y-17197674D02*
X10666253Y-17188150D01*
X10666253Y-17188150D02*
X10637682Y-17188150D01*
X10637682Y-17188150D02*
X10618634Y-17197674D01*
X10618634Y-17197674D02*
X10609111Y-17207198D01*
X10818634Y-17321484D02*
X10799587Y-17311960D01*
X10799587Y-17311960D02*
X10790063Y-17302436D01*
X10790063Y-17302436D02*
X10780539Y-17283389D01*
X10780539Y-17283389D02*
X10780539Y-17226246D01*
X10780539Y-17226246D02*
X10790063Y-17207198D01*
X10790063Y-17207198D02*
X10799587Y-17197674D01*
X10799587Y-17197674D02*
X10818634Y-17188150D01*
X10818634Y-17188150D02*
X10847206Y-17188150D01*
X10847206Y-17188150D02*
X10866253Y-17197674D01*
X10866253Y-17197674D02*
X10875777Y-17207198D01*
X10875777Y-17207198D02*
X10885301Y-17226246D01*
X10885301Y-17226246D02*
X10885301Y-17283389D01*
X10885301Y-17283389D02*
X10875777Y-17302436D01*
X10875777Y-17302436D02*
X10866253Y-17311960D01*
X10866253Y-17311960D02*
X10847206Y-17321484D01*
X10847206Y-17321484D02*
X10818634Y-17321484D01*
X10999587Y-17321484D02*
X10980539Y-17311960D01*
X10980539Y-17311960D02*
X10971015Y-17292912D01*
X10971015Y-17292912D02*
X10971015Y-17121484D01*
X11151968Y-17311960D02*
X11132920Y-17321484D01*
X11132920Y-17321484D02*
X11094825Y-17321484D01*
X11094825Y-17321484D02*
X11075777Y-17311960D01*
X11075777Y-17311960D02*
X11066253Y-17292912D01*
X11066253Y-17292912D02*
X11066253Y-17216722D01*
X11066253Y-17216722D02*
X11075777Y-17197674D01*
X11075777Y-17197674D02*
X11094825Y-17188150D01*
X11094825Y-17188150D02*
X11132920Y-17188150D01*
X11132920Y-17188150D02*
X11151968Y-17197674D01*
X11151968Y-17197674D02*
X11161492Y-17216722D01*
X11161492Y-17216722D02*
X11161492Y-17235770D01*
X11161492Y-17235770D02*
X11066253Y-17254817D01*
X11237682Y-17311960D02*
X11256730Y-17321484D01*
X11256730Y-17321484D02*
X11294825Y-17321484D01*
X11294825Y-17321484D02*
X11313872Y-17311960D01*
X11313872Y-17311960D02*
X11323396Y-17292912D01*
X11323396Y-17292912D02*
X11323396Y-17283389D01*
X11323396Y-17283389D02*
X11313872Y-17264341D01*
X11313872Y-17264341D02*
X11294825Y-17254817D01*
X11294825Y-17254817D02*
X11266253Y-17254817D01*
X11266253Y-17254817D02*
X11247206Y-17245293D01*
X11247206Y-17245293D02*
X11237682Y-17226246D01*
X11237682Y-17226246D02*
X11237682Y-17216722D01*
X11237682Y-17216722D02*
X11247206Y-17197674D01*
X11247206Y-17197674D02*
X11266253Y-17188150D01*
X11266253Y-17188150D02*
X11294825Y-17188150D01*
X11294825Y-17188150D02*
X11313872Y-17197674D01*
X11390063Y-17397674D02*
X11399587Y-17388150D01*
X11399587Y-17388150D02*
X11418634Y-17359579D01*
X11418634Y-17359579D02*
X11428158Y-17340531D01*
X11428158Y-17340531D02*
X11437682Y-17311960D01*
X11437682Y-17311960D02*
X11447206Y-17264341D01*
X11447206Y-17264341D02*
X11447206Y-17226246D01*
X11447206Y-17226246D02*
X11437682Y-17178627D01*
X11437682Y-17178627D02*
X11428158Y-17150055D01*
X11428158Y-17150055D02*
X11418634Y-17131008D01*
X11418634Y-17131008D02*
X11399587Y-17102436D01*
X11399587Y-17102436D02*
X11390063Y-17092912D01*
X11751968Y-17397674D02*
X11742444Y-17388150D01*
X11742444Y-17388150D02*
X11723396Y-17359579D01*
X11723396Y-17359579D02*
X11713872Y-17340531D01*
X11713872Y-17340531D02*
X11704349Y-17311960D01*
X11704349Y-17311960D02*
X11694825Y-17264341D01*
X11694825Y-17264341D02*
X11694825Y-17226246D01*
X11694825Y-17226246D02*
X11704349Y-17178627D01*
X11704349Y-17178627D02*
X11713872Y-17150055D01*
X11713872Y-17150055D02*
X11723396Y-17131008D01*
X11723396Y-17131008D02*
X11742444Y-17102436D01*
X11742444Y-17102436D02*
X11751968Y-17092912D01*
X11828158Y-17188150D02*
X11828158Y-17321484D01*
X11828158Y-17207198D02*
X11837682Y-17197674D01*
X11837682Y-17197674D02*
X11856730Y-17188150D01*
X11856730Y-17188150D02*
X11885301Y-17188150D01*
X11885301Y-17188150D02*
X11904349Y-17197674D01*
X11904349Y-17197674D02*
X11913872Y-17216722D01*
X11913872Y-17216722D02*
X11913872Y-17321484D01*
X12037682Y-17321484D02*
X12018634Y-17311960D01*
X12018634Y-17311960D02*
X12009111Y-17302436D01*
X12009111Y-17302436D02*
X11999587Y-17283389D01*
X11999587Y-17283389D02*
X11999587Y-17226246D01*
X11999587Y-17226246D02*
X12009111Y-17207198D01*
X12009111Y-17207198D02*
X12018634Y-17197674D01*
X12018634Y-17197674D02*
X12037682Y-17188150D01*
X12037682Y-17188150D02*
X12066253Y-17188150D01*
X12066253Y-17188150D02*
X12085301Y-17197674D01*
X12085301Y-17197674D02*
X12094825Y-17207198D01*
X12094825Y-17207198D02*
X12104349Y-17226246D01*
X12104349Y-17226246D02*
X12104349Y-17283389D01*
X12104349Y-17283389D02*
X12094825Y-17302436D01*
X12094825Y-17302436D02*
X12085301Y-17311960D01*
X12085301Y-17311960D02*
X12066253Y-17321484D01*
X12066253Y-17321484D02*
X12037682Y-17321484D01*
X12161492Y-17188150D02*
X12237682Y-17188150D01*
X12190063Y-17121484D02*
X12190063Y-17292912D01*
X12190063Y-17292912D02*
X12199587Y-17311960D01*
X12199587Y-17311960D02*
X12218634Y-17321484D01*
X12218634Y-17321484D02*
X12237682Y-17321484D01*
X12456730Y-17188150D02*
X12456730Y-17388150D01*
X12456730Y-17197674D02*
X12475777Y-17188150D01*
X12475777Y-17188150D02*
X12513873Y-17188150D01*
X12513873Y-17188150D02*
X12532920Y-17197674D01*
X12532920Y-17197674D02*
X12542444Y-17207198D01*
X12542444Y-17207198D02*
X12551968Y-17226246D01*
X12551968Y-17226246D02*
X12551968Y-17283389D01*
X12551968Y-17283389D02*
X12542444Y-17302436D01*
X12542444Y-17302436D02*
X12532920Y-17311960D01*
X12532920Y-17311960D02*
X12513873Y-17321484D01*
X12513873Y-17321484D02*
X12475777Y-17321484D01*
X12475777Y-17321484D02*
X12456730Y-17311960D01*
X12666253Y-17321484D02*
X12647206Y-17311960D01*
X12647206Y-17311960D02*
X12637682Y-17292912D01*
X12637682Y-17292912D02*
X12637682Y-17121484D01*
X12828158Y-17321484D02*
X12828158Y-17216722D01*
X12828158Y-17216722D02*
X12818634Y-17197674D01*
X12818634Y-17197674D02*
X12799587Y-17188150D01*
X12799587Y-17188150D02*
X12761492Y-17188150D01*
X12761492Y-17188150D02*
X12742444Y-17197674D01*
X12828158Y-17311960D02*
X12809111Y-17321484D01*
X12809111Y-17321484D02*
X12761492Y-17321484D01*
X12761492Y-17321484D02*
X12742444Y-17311960D01*
X12742444Y-17311960D02*
X12732920Y-17292912D01*
X12732920Y-17292912D02*
X12732920Y-17273865D01*
X12732920Y-17273865D02*
X12742444Y-17254817D01*
X12742444Y-17254817D02*
X12761492Y-17245293D01*
X12761492Y-17245293D02*
X12809111Y-17245293D01*
X12809111Y-17245293D02*
X12828158Y-17235770D01*
X12894825Y-17188150D02*
X12971015Y-17188150D01*
X12923396Y-17121484D02*
X12923396Y-17292912D01*
X12923396Y-17292912D02*
X12932920Y-17311960D01*
X12932920Y-17311960D02*
X12951968Y-17321484D01*
X12951968Y-17321484D02*
X12971015Y-17321484D01*
X13113873Y-17311960D02*
X13094825Y-17321484D01*
X13094825Y-17321484D02*
X13056730Y-17321484D01*
X13056730Y-17321484D02*
X13037682Y-17311960D01*
X13037682Y-17311960D02*
X13028158Y-17292912D01*
X13028158Y-17292912D02*
X13028158Y-17216722D01*
X13028158Y-17216722D02*
X13037682Y-17197674D01*
X13037682Y-17197674D02*
X13056730Y-17188150D01*
X13056730Y-17188150D02*
X13094825Y-17188150D01*
X13094825Y-17188150D02*
X13113873Y-17197674D01*
X13113873Y-17197674D02*
X13123396Y-17216722D01*
X13123396Y-17216722D02*
X13123396Y-17235770D01*
X13123396Y-17235770D02*
X13028158Y-17254817D01*
X13294825Y-17321484D02*
X13294825Y-17121484D01*
X13294825Y-17311960D02*
X13275777Y-17321484D01*
X13275777Y-17321484D02*
X13237682Y-17321484D01*
X13237682Y-17321484D02*
X13218634Y-17311960D01*
X13218634Y-17311960D02*
X13209111Y-17302436D01*
X13209111Y-17302436D02*
X13199587Y-17283389D01*
X13199587Y-17283389D02*
X13199587Y-17226246D01*
X13199587Y-17226246D02*
X13209111Y-17207198D01*
X13209111Y-17207198D02*
X13218634Y-17197674D01*
X13218634Y-17197674D02*
X13237682Y-17188150D01*
X13237682Y-17188150D02*
X13275777Y-17188150D01*
X13275777Y-17188150D02*
X13294825Y-17197674D01*
X13371015Y-17397674D02*
X13380539Y-17388150D01*
X13380539Y-17388150D02*
X13399587Y-17359579D01*
X13399587Y-17359579D02*
X13409111Y-17340531D01*
X13409111Y-17340531D02*
X13418634Y-17311960D01*
X13418634Y-17311960D02*
X13428158Y-17264341D01*
X13428158Y-17264341D02*
X13428158Y-17226246D01*
X13428158Y-17226246D02*
X13418634Y-17178627D01*
X13418634Y-17178627D02*
X13409111Y-17150055D01*
X13409111Y-17150055D02*
X13399587Y-17131008D01*
X13399587Y-17131008D02*
X13380539Y-17102436D01*
X13380539Y-17102436D02*
X13371015Y-17092912D01*
M02*
