G04 #@! TF.GenerationSoftware,KiCad,Pcbnew,8.0.2*
G04 #@! TF.CreationDate,2024-05-01T23:13:20+02:00*
G04 #@! TF.ProjectId,PetRockPanel,50657452-6f63-46b5-9061-6e656c2e6b69,rev?*
G04 #@! TF.SameCoordinates,Original*
G04 #@! TF.FileFunction,Legend,Bot*
G04 #@! TF.FilePolarity,Positive*
%FSLAX46Y46*%
G04 Gerber Fmt 4.6, Leading zero omitted, Abs format (unit mm)*
G04 Created by KiCad (PCBNEW 8.0.2) date 2024-05-01 23:13:20*
%MOMM*%
%LPD*%
G01*
G04 APERTURE LIST*
%ADD10C,0.150000*%
%ADD11C,0.000000*%
%ADD12C,4.000000*%
G04 APERTURE END LIST*
D10*
X76670819Y-92941713D02*
X76670819Y-93132189D01*
X76670819Y-93132189D02*
X76718438Y-93227427D01*
X76718438Y-93227427D02*
X76813676Y-93322665D01*
X76813676Y-93322665D02*
X77004152Y-93370284D01*
X77004152Y-93370284D02*
X77337485Y-93370284D01*
X77337485Y-93370284D02*
X77527961Y-93322665D01*
X77527961Y-93322665D02*
X77623200Y-93227427D01*
X77623200Y-93227427D02*
X77670819Y-93132189D01*
X77670819Y-93132189D02*
X77670819Y-92941713D01*
X77670819Y-92941713D02*
X77623200Y-92846475D01*
X77623200Y-92846475D02*
X77527961Y-92751237D01*
X77527961Y-92751237D02*
X77337485Y-92703618D01*
X77337485Y-92703618D02*
X77004152Y-92703618D01*
X77004152Y-92703618D02*
X76813676Y-92751237D01*
X76813676Y-92751237D02*
X76718438Y-92846475D01*
X76718438Y-92846475D02*
X76670819Y-92941713D01*
X77670819Y-93798856D02*
X77004152Y-93798856D01*
X77194628Y-93798856D02*
X77099390Y-93846475D01*
X77099390Y-93846475D02*
X77051771Y-93894094D01*
X77051771Y-93894094D02*
X77004152Y-93989332D01*
X77004152Y-93989332D02*
X77004152Y-94084570D01*
X77670819Y-94417904D02*
X77004152Y-94417904D01*
X76670819Y-94417904D02*
X76718438Y-94370285D01*
X76718438Y-94370285D02*
X76766057Y-94417904D01*
X76766057Y-94417904D02*
X76718438Y-94465523D01*
X76718438Y-94465523D02*
X76670819Y-94417904D01*
X76670819Y-94417904D02*
X76766057Y-94417904D01*
X77004152Y-95322665D02*
X77813676Y-95322665D01*
X77813676Y-95322665D02*
X77908914Y-95275046D01*
X77908914Y-95275046D02*
X77956533Y-95227427D01*
X77956533Y-95227427D02*
X78004152Y-95132189D01*
X78004152Y-95132189D02*
X78004152Y-94989332D01*
X78004152Y-94989332D02*
X77956533Y-94894094D01*
X77623200Y-95322665D02*
X77670819Y-95227427D01*
X77670819Y-95227427D02*
X77670819Y-95036951D01*
X77670819Y-95036951D02*
X77623200Y-94941713D01*
X77623200Y-94941713D02*
X77575580Y-94894094D01*
X77575580Y-94894094D02*
X77480342Y-94846475D01*
X77480342Y-94846475D02*
X77194628Y-94846475D01*
X77194628Y-94846475D02*
X77099390Y-94894094D01*
X77099390Y-94894094D02*
X77051771Y-94941713D01*
X77051771Y-94941713D02*
X77004152Y-95036951D01*
X77004152Y-95036951D02*
X77004152Y-95227427D01*
X77004152Y-95227427D02*
X77051771Y-95322665D01*
X77670819Y-95798856D02*
X77004152Y-95798856D01*
X76670819Y-95798856D02*
X76718438Y-95751237D01*
X76718438Y-95751237D02*
X76766057Y-95798856D01*
X76766057Y-95798856D02*
X76718438Y-95846475D01*
X76718438Y-95846475D02*
X76670819Y-95798856D01*
X76670819Y-95798856D02*
X76766057Y-95798856D01*
X77004152Y-96275046D02*
X77670819Y-96275046D01*
X77099390Y-96275046D02*
X77051771Y-96322665D01*
X77051771Y-96322665D02*
X77004152Y-96417903D01*
X77004152Y-96417903D02*
X77004152Y-96560760D01*
X77004152Y-96560760D02*
X77051771Y-96655998D01*
X77051771Y-96655998D02*
X77147009Y-96703617D01*
X77147009Y-96703617D02*
X77670819Y-96703617D01*
X77670819Y-97608379D02*
X77147009Y-97608379D01*
X77147009Y-97608379D02*
X77051771Y-97560760D01*
X77051771Y-97560760D02*
X77004152Y-97465522D01*
X77004152Y-97465522D02*
X77004152Y-97275046D01*
X77004152Y-97275046D02*
X77051771Y-97179808D01*
X77623200Y-97608379D02*
X77670819Y-97513141D01*
X77670819Y-97513141D02*
X77670819Y-97275046D01*
X77670819Y-97275046D02*
X77623200Y-97179808D01*
X77623200Y-97179808D02*
X77527961Y-97132189D01*
X77527961Y-97132189D02*
X77432723Y-97132189D01*
X77432723Y-97132189D02*
X77337485Y-97179808D01*
X77337485Y-97179808D02*
X77289866Y-97275046D01*
X77289866Y-97275046D02*
X77289866Y-97513141D01*
X77289866Y-97513141D02*
X77242247Y-97608379D01*
X77670819Y-98227427D02*
X77623200Y-98132189D01*
X77623200Y-98132189D02*
X77527961Y-98084570D01*
X77527961Y-98084570D02*
X76670819Y-98084570D01*
X77670819Y-99370285D02*
X76670819Y-99370285D01*
X76670819Y-99370285D02*
X76670819Y-99608380D01*
X76670819Y-99608380D02*
X76718438Y-99751237D01*
X76718438Y-99751237D02*
X76813676Y-99846475D01*
X76813676Y-99846475D02*
X76908914Y-99894094D01*
X76908914Y-99894094D02*
X77099390Y-99941713D01*
X77099390Y-99941713D02*
X77242247Y-99941713D01*
X77242247Y-99941713D02*
X77432723Y-99894094D01*
X77432723Y-99894094D02*
X77527961Y-99846475D01*
X77527961Y-99846475D02*
X77623200Y-99751237D01*
X77623200Y-99751237D02*
X77670819Y-99608380D01*
X77670819Y-99608380D02*
X77670819Y-99370285D01*
X77623200Y-100751237D02*
X77670819Y-100655999D01*
X77670819Y-100655999D02*
X77670819Y-100465523D01*
X77670819Y-100465523D02*
X77623200Y-100370285D01*
X77623200Y-100370285D02*
X77527961Y-100322666D01*
X77527961Y-100322666D02*
X77147009Y-100322666D01*
X77147009Y-100322666D02*
X77051771Y-100370285D01*
X77051771Y-100370285D02*
X77004152Y-100465523D01*
X77004152Y-100465523D02*
X77004152Y-100655999D01*
X77004152Y-100655999D02*
X77051771Y-100751237D01*
X77051771Y-100751237D02*
X77147009Y-100798856D01*
X77147009Y-100798856D02*
X77242247Y-100798856D01*
X77242247Y-100798856D02*
X77337485Y-100322666D01*
X77623200Y-101179809D02*
X77670819Y-101275047D01*
X77670819Y-101275047D02*
X77670819Y-101465523D01*
X77670819Y-101465523D02*
X77623200Y-101560761D01*
X77623200Y-101560761D02*
X77527961Y-101608380D01*
X77527961Y-101608380D02*
X77480342Y-101608380D01*
X77480342Y-101608380D02*
X77385104Y-101560761D01*
X77385104Y-101560761D02*
X77337485Y-101465523D01*
X77337485Y-101465523D02*
X77337485Y-101322666D01*
X77337485Y-101322666D02*
X77289866Y-101227428D01*
X77289866Y-101227428D02*
X77194628Y-101179809D01*
X77194628Y-101179809D02*
X77147009Y-101179809D01*
X77147009Y-101179809D02*
X77051771Y-101227428D01*
X77051771Y-101227428D02*
X77004152Y-101322666D01*
X77004152Y-101322666D02*
X77004152Y-101465523D01*
X77004152Y-101465523D02*
X77051771Y-101560761D01*
X77670819Y-102036952D02*
X77004152Y-102036952D01*
X76670819Y-102036952D02*
X76718438Y-101989333D01*
X76718438Y-101989333D02*
X76766057Y-102036952D01*
X76766057Y-102036952D02*
X76718438Y-102084571D01*
X76718438Y-102084571D02*
X76670819Y-102036952D01*
X76670819Y-102036952D02*
X76766057Y-102036952D01*
X77004152Y-102941713D02*
X77813676Y-102941713D01*
X77813676Y-102941713D02*
X77908914Y-102894094D01*
X77908914Y-102894094D02*
X77956533Y-102846475D01*
X77956533Y-102846475D02*
X78004152Y-102751237D01*
X78004152Y-102751237D02*
X78004152Y-102608380D01*
X78004152Y-102608380D02*
X77956533Y-102513142D01*
X77623200Y-102941713D02*
X77670819Y-102846475D01*
X77670819Y-102846475D02*
X77670819Y-102655999D01*
X77670819Y-102655999D02*
X77623200Y-102560761D01*
X77623200Y-102560761D02*
X77575580Y-102513142D01*
X77575580Y-102513142D02*
X77480342Y-102465523D01*
X77480342Y-102465523D02*
X77194628Y-102465523D01*
X77194628Y-102465523D02*
X77099390Y-102513142D01*
X77099390Y-102513142D02*
X77051771Y-102560761D01*
X77051771Y-102560761D02*
X77004152Y-102655999D01*
X77004152Y-102655999D02*
X77004152Y-102846475D01*
X77004152Y-102846475D02*
X77051771Y-102941713D01*
X77004152Y-103417904D02*
X77670819Y-103417904D01*
X77099390Y-103417904D02*
X77051771Y-103465523D01*
X77051771Y-103465523D02*
X77004152Y-103560761D01*
X77004152Y-103560761D02*
X77004152Y-103703618D01*
X77004152Y-103703618D02*
X77051771Y-103798856D01*
X77051771Y-103798856D02*
X77147009Y-103846475D01*
X77147009Y-103846475D02*
X77670819Y-103846475D01*
X77670819Y-105084571D02*
X76670819Y-105084571D01*
X77051771Y-105084571D02*
X77004152Y-105179809D01*
X77004152Y-105179809D02*
X77004152Y-105370285D01*
X77004152Y-105370285D02*
X77051771Y-105465523D01*
X77051771Y-105465523D02*
X77099390Y-105513142D01*
X77099390Y-105513142D02*
X77194628Y-105560761D01*
X77194628Y-105560761D02*
X77480342Y-105560761D01*
X77480342Y-105560761D02*
X77575580Y-105513142D01*
X77575580Y-105513142D02*
X77623200Y-105465523D01*
X77623200Y-105465523D02*
X77670819Y-105370285D01*
X77670819Y-105370285D02*
X77670819Y-105179809D01*
X77670819Y-105179809D02*
X77623200Y-105084571D01*
X77004152Y-105894095D02*
X77670819Y-106132190D01*
X77004152Y-106370285D02*
X77670819Y-106132190D01*
X77670819Y-106132190D02*
X77908914Y-106036952D01*
X77908914Y-106036952D02*
X77956533Y-105989333D01*
X77956533Y-105989333D02*
X78004152Y-105894095D01*
X77575580Y-106751238D02*
X77623200Y-106798857D01*
X77623200Y-106798857D02*
X77670819Y-106751238D01*
X77670819Y-106751238D02*
X77623200Y-106703619D01*
X77623200Y-106703619D02*
X77575580Y-106751238D01*
X77575580Y-106751238D02*
X77670819Y-106751238D01*
X77051771Y-106751238D02*
X77099390Y-106798857D01*
X77099390Y-106798857D02*
X77147009Y-106751238D01*
X77147009Y-106751238D02*
X77099390Y-106703619D01*
X77099390Y-106703619D02*
X77051771Y-106751238D01*
X77051771Y-106751238D02*
X77147009Y-106751238D01*
X76670819Y-108275047D02*
X77385104Y-108275047D01*
X77385104Y-108275047D02*
X77527961Y-108227428D01*
X77527961Y-108227428D02*
X77623200Y-108132190D01*
X77623200Y-108132190D02*
X77670819Y-107989333D01*
X77670819Y-107989333D02*
X77670819Y-107894095D01*
X77670819Y-108894095D02*
X77623200Y-108798857D01*
X77623200Y-108798857D02*
X77575580Y-108751238D01*
X77575580Y-108751238D02*
X77480342Y-108703619D01*
X77480342Y-108703619D02*
X77194628Y-108703619D01*
X77194628Y-108703619D02*
X77099390Y-108751238D01*
X77099390Y-108751238D02*
X77051771Y-108798857D01*
X77051771Y-108798857D02*
X77004152Y-108894095D01*
X77004152Y-108894095D02*
X77004152Y-109036952D01*
X77004152Y-109036952D02*
X77051771Y-109132190D01*
X77051771Y-109132190D02*
X77099390Y-109179809D01*
X77099390Y-109179809D02*
X77194628Y-109227428D01*
X77194628Y-109227428D02*
X77480342Y-109227428D01*
X77480342Y-109227428D02*
X77575580Y-109179809D01*
X77575580Y-109179809D02*
X77623200Y-109132190D01*
X77623200Y-109132190D02*
X77670819Y-109036952D01*
X77670819Y-109036952D02*
X77670819Y-108894095D01*
X77004152Y-109656000D02*
X77670819Y-109656000D01*
X77099390Y-109656000D02*
X77051771Y-109703619D01*
X77051771Y-109703619D02*
X77004152Y-109798857D01*
X77004152Y-109798857D02*
X77004152Y-109941714D01*
X77004152Y-109941714D02*
X77051771Y-110036952D01*
X77051771Y-110036952D02*
X77147009Y-110084571D01*
X77147009Y-110084571D02*
X77670819Y-110084571D01*
X77670819Y-110989333D02*
X77147009Y-110989333D01*
X77147009Y-110989333D02*
X77051771Y-110941714D01*
X77051771Y-110941714D02*
X77004152Y-110846476D01*
X77004152Y-110846476D02*
X77004152Y-110656000D01*
X77004152Y-110656000D02*
X77051771Y-110560762D01*
X77623200Y-110989333D02*
X77670819Y-110894095D01*
X77670819Y-110894095D02*
X77670819Y-110656000D01*
X77670819Y-110656000D02*
X77623200Y-110560762D01*
X77623200Y-110560762D02*
X77527961Y-110513143D01*
X77527961Y-110513143D02*
X77432723Y-110513143D01*
X77432723Y-110513143D02*
X77337485Y-110560762D01*
X77337485Y-110560762D02*
X77289866Y-110656000D01*
X77289866Y-110656000D02*
X77289866Y-110894095D01*
X77289866Y-110894095D02*
X77242247Y-110989333D01*
X77670819Y-111465524D02*
X76670819Y-111465524D01*
X77670819Y-111894095D02*
X77147009Y-111894095D01*
X77147009Y-111894095D02*
X77051771Y-111846476D01*
X77051771Y-111846476D02*
X77004152Y-111751238D01*
X77004152Y-111751238D02*
X77004152Y-111608381D01*
X77004152Y-111608381D02*
X77051771Y-111513143D01*
X77051771Y-111513143D02*
X77099390Y-111465524D01*
X77623200Y-113084572D02*
X77670819Y-113227429D01*
X77670819Y-113227429D02*
X77670819Y-113465524D01*
X77670819Y-113465524D02*
X77623200Y-113560762D01*
X77623200Y-113560762D02*
X77575580Y-113608381D01*
X77575580Y-113608381D02*
X77480342Y-113656000D01*
X77480342Y-113656000D02*
X77385104Y-113656000D01*
X77385104Y-113656000D02*
X77289866Y-113608381D01*
X77289866Y-113608381D02*
X77242247Y-113560762D01*
X77242247Y-113560762D02*
X77194628Y-113465524D01*
X77194628Y-113465524D02*
X77147009Y-113275048D01*
X77147009Y-113275048D02*
X77099390Y-113179810D01*
X77099390Y-113179810D02*
X77051771Y-113132191D01*
X77051771Y-113132191D02*
X76956533Y-113084572D01*
X76956533Y-113084572D02*
X76861295Y-113084572D01*
X76861295Y-113084572D02*
X76766057Y-113132191D01*
X76766057Y-113132191D02*
X76718438Y-113179810D01*
X76718438Y-113179810D02*
X76670819Y-113275048D01*
X76670819Y-113275048D02*
X76670819Y-113513143D01*
X76670819Y-113513143D02*
X76718438Y-113656000D01*
X77623200Y-114465524D02*
X77670819Y-114370286D01*
X77670819Y-114370286D02*
X77670819Y-114179810D01*
X77670819Y-114179810D02*
X77623200Y-114084572D01*
X77623200Y-114084572D02*
X77527961Y-114036953D01*
X77527961Y-114036953D02*
X77147009Y-114036953D01*
X77147009Y-114036953D02*
X77051771Y-114084572D01*
X77051771Y-114084572D02*
X77004152Y-114179810D01*
X77004152Y-114179810D02*
X77004152Y-114370286D01*
X77004152Y-114370286D02*
X77051771Y-114465524D01*
X77051771Y-114465524D02*
X77147009Y-114513143D01*
X77147009Y-114513143D02*
X77242247Y-114513143D01*
X77242247Y-114513143D02*
X77337485Y-114036953D01*
X77004152Y-114941715D02*
X77670819Y-114941715D01*
X77099390Y-114941715D02*
X77051771Y-114989334D01*
X77051771Y-114989334D02*
X77004152Y-115084572D01*
X77004152Y-115084572D02*
X77004152Y-115227429D01*
X77004152Y-115227429D02*
X77051771Y-115322667D01*
X77051771Y-115322667D02*
X77147009Y-115370286D01*
X77147009Y-115370286D02*
X77670819Y-115370286D01*
X77004152Y-115751239D02*
X77004152Y-116275048D01*
X77004152Y-116275048D02*
X77670819Y-115751239D01*
X77670819Y-115751239D02*
X77670819Y-116275048D01*
X77623200Y-117036953D02*
X77670819Y-116941715D01*
X77670819Y-116941715D02*
X77670819Y-116751239D01*
X77670819Y-116751239D02*
X77623200Y-116656001D01*
X77623200Y-116656001D02*
X77527961Y-116608382D01*
X77527961Y-116608382D02*
X77147009Y-116608382D01*
X77147009Y-116608382D02*
X77051771Y-116656001D01*
X77051771Y-116656001D02*
X77004152Y-116751239D01*
X77004152Y-116751239D02*
X77004152Y-116941715D01*
X77004152Y-116941715D02*
X77051771Y-117036953D01*
X77051771Y-117036953D02*
X77147009Y-117084572D01*
X77147009Y-117084572D02*
X77242247Y-117084572D01*
X77242247Y-117084572D02*
X77337485Y-116608382D01*
X77670819Y-117656001D02*
X77623200Y-117560763D01*
X77623200Y-117560763D02*
X77527961Y-117513144D01*
X77527961Y-117513144D02*
X76670819Y-117513144D01*
X67526819Y-75644951D02*
X68241104Y-75644951D01*
X68241104Y-75644951D02*
X68383961Y-75597332D01*
X68383961Y-75597332D02*
X68479200Y-75502094D01*
X68479200Y-75502094D02*
X68526819Y-75359237D01*
X68526819Y-75359237D02*
X68526819Y-75263999D01*
X68526819Y-76597332D02*
X68526819Y-76121142D01*
X68526819Y-76121142D02*
X67526819Y-76121142D01*
X68431580Y-77502094D02*
X68479200Y-77454475D01*
X68479200Y-77454475D02*
X68526819Y-77311618D01*
X68526819Y-77311618D02*
X68526819Y-77216380D01*
X68526819Y-77216380D02*
X68479200Y-77073523D01*
X68479200Y-77073523D02*
X68383961Y-76978285D01*
X68383961Y-76978285D02*
X68288723Y-76930666D01*
X68288723Y-76930666D02*
X68098247Y-76883047D01*
X68098247Y-76883047D02*
X67955390Y-76883047D01*
X67955390Y-76883047D02*
X67764914Y-76930666D01*
X67764914Y-76930666D02*
X67669676Y-76978285D01*
X67669676Y-76978285D02*
X67574438Y-77073523D01*
X67574438Y-77073523D02*
X67526819Y-77216380D01*
X67526819Y-77216380D02*
X67526819Y-77311618D01*
X67526819Y-77311618D02*
X67574438Y-77454475D01*
X67574438Y-77454475D02*
X67622057Y-77502094D01*
X67526819Y-78216380D02*
X68241104Y-78216380D01*
X68241104Y-78216380D02*
X68383961Y-78168761D01*
X68383961Y-78168761D02*
X68479200Y-78073523D01*
X68479200Y-78073523D02*
X68526819Y-77930666D01*
X68526819Y-77930666D02*
X68526819Y-77835428D01*
X68526819Y-79168761D02*
X68526819Y-78692571D01*
X68526819Y-78692571D02*
X67526819Y-78692571D01*
X68431580Y-80073523D02*
X68479200Y-80025904D01*
X68479200Y-80025904D02*
X68526819Y-79883047D01*
X68526819Y-79883047D02*
X68526819Y-79787809D01*
X68526819Y-79787809D02*
X68479200Y-79644952D01*
X68479200Y-79644952D02*
X68383961Y-79549714D01*
X68383961Y-79549714D02*
X68288723Y-79502095D01*
X68288723Y-79502095D02*
X68098247Y-79454476D01*
X68098247Y-79454476D02*
X67955390Y-79454476D01*
X67955390Y-79454476D02*
X67764914Y-79502095D01*
X67764914Y-79502095D02*
X67669676Y-79549714D01*
X67669676Y-79549714D02*
X67574438Y-79644952D01*
X67574438Y-79644952D02*
X67526819Y-79787809D01*
X67526819Y-79787809D02*
X67526819Y-79883047D01*
X67526819Y-79883047D02*
X67574438Y-80025904D01*
X67574438Y-80025904D02*
X67622057Y-80073523D01*
X67526819Y-80787809D02*
X68241104Y-80787809D01*
X68241104Y-80787809D02*
X68383961Y-80740190D01*
X68383961Y-80740190D02*
X68479200Y-80644952D01*
X68479200Y-80644952D02*
X68526819Y-80502095D01*
X68526819Y-80502095D02*
X68526819Y-80406857D01*
X68526819Y-81740190D02*
X68526819Y-81264000D01*
X68526819Y-81264000D02*
X67526819Y-81264000D01*
X68431580Y-82644952D02*
X68479200Y-82597333D01*
X68479200Y-82597333D02*
X68526819Y-82454476D01*
X68526819Y-82454476D02*
X68526819Y-82359238D01*
X68526819Y-82359238D02*
X68479200Y-82216381D01*
X68479200Y-82216381D02*
X68383961Y-82121143D01*
X68383961Y-82121143D02*
X68288723Y-82073524D01*
X68288723Y-82073524D02*
X68098247Y-82025905D01*
X68098247Y-82025905D02*
X67955390Y-82025905D01*
X67955390Y-82025905D02*
X67764914Y-82073524D01*
X67764914Y-82073524D02*
X67669676Y-82121143D01*
X67669676Y-82121143D02*
X67574438Y-82216381D01*
X67574438Y-82216381D02*
X67526819Y-82359238D01*
X67526819Y-82359238D02*
X67526819Y-82454476D01*
X67526819Y-82454476D02*
X67574438Y-82597333D01*
X67574438Y-82597333D02*
X67622057Y-82644952D01*
X67526819Y-83359238D02*
X68241104Y-83359238D01*
X68241104Y-83359238D02*
X68383961Y-83311619D01*
X68383961Y-83311619D02*
X68479200Y-83216381D01*
X68479200Y-83216381D02*
X68526819Y-83073524D01*
X68526819Y-83073524D02*
X68526819Y-82978286D01*
X68526819Y-84311619D02*
X68526819Y-83835429D01*
X68526819Y-83835429D02*
X67526819Y-83835429D01*
X68431580Y-85216381D02*
X68479200Y-85168762D01*
X68479200Y-85168762D02*
X68526819Y-85025905D01*
X68526819Y-85025905D02*
X68526819Y-84930667D01*
X68526819Y-84930667D02*
X68479200Y-84787810D01*
X68479200Y-84787810D02*
X68383961Y-84692572D01*
X68383961Y-84692572D02*
X68288723Y-84644953D01*
X68288723Y-84644953D02*
X68098247Y-84597334D01*
X68098247Y-84597334D02*
X67955390Y-84597334D01*
X67955390Y-84597334D02*
X67764914Y-84644953D01*
X67764914Y-84644953D02*
X67669676Y-84692572D01*
X67669676Y-84692572D02*
X67574438Y-84787810D01*
X67574438Y-84787810D02*
X67526819Y-84930667D01*
X67526819Y-84930667D02*
X67526819Y-85025905D01*
X67526819Y-85025905D02*
X67574438Y-85168762D01*
X67574438Y-85168762D02*
X67622057Y-85216381D01*
X78909104Y-97386665D02*
X78909104Y-97862855D01*
X79194819Y-97291427D02*
X78194819Y-97624760D01*
X78194819Y-97624760D02*
X79194819Y-97958093D01*
X79194819Y-98434284D02*
X79147200Y-98339046D01*
X79147200Y-98339046D02*
X79051961Y-98291427D01*
X79051961Y-98291427D02*
X78194819Y-98291427D01*
X78528152Y-98672380D02*
X78528152Y-99053332D01*
X78194819Y-98815237D02*
X79051961Y-98815237D01*
X79051961Y-98815237D02*
X79147200Y-98862856D01*
X79147200Y-98862856D02*
X79194819Y-98958094D01*
X79194819Y-98958094D02*
X79194819Y-99053332D01*
X79194819Y-100148571D02*
X78194819Y-100148571D01*
X78194819Y-100148571D02*
X78194819Y-100529523D01*
X78194819Y-100529523D02*
X78242438Y-100624761D01*
X78242438Y-100624761D02*
X78290057Y-100672380D01*
X78290057Y-100672380D02*
X78385295Y-100719999D01*
X78385295Y-100719999D02*
X78528152Y-100719999D01*
X78528152Y-100719999D02*
X78623390Y-100672380D01*
X78623390Y-100672380D02*
X78671009Y-100624761D01*
X78671009Y-100624761D02*
X78718628Y-100529523D01*
X78718628Y-100529523D02*
X78718628Y-100148571D01*
X79194819Y-101577142D02*
X78671009Y-101577142D01*
X78671009Y-101577142D02*
X78575771Y-101529523D01*
X78575771Y-101529523D02*
X78528152Y-101434285D01*
X78528152Y-101434285D02*
X78528152Y-101243809D01*
X78528152Y-101243809D02*
X78575771Y-101148571D01*
X79147200Y-101577142D02*
X79194819Y-101481904D01*
X79194819Y-101481904D02*
X79194819Y-101243809D01*
X79194819Y-101243809D02*
X79147200Y-101148571D01*
X79147200Y-101148571D02*
X79051961Y-101100952D01*
X79051961Y-101100952D02*
X78956723Y-101100952D01*
X78956723Y-101100952D02*
X78861485Y-101148571D01*
X78861485Y-101148571D02*
X78813866Y-101243809D01*
X78813866Y-101243809D02*
X78813866Y-101481904D01*
X78813866Y-101481904D02*
X78766247Y-101577142D01*
X78528152Y-102053333D02*
X79194819Y-102053333D01*
X78623390Y-102053333D02*
X78575771Y-102100952D01*
X78575771Y-102100952D02*
X78528152Y-102196190D01*
X78528152Y-102196190D02*
X78528152Y-102339047D01*
X78528152Y-102339047D02*
X78575771Y-102434285D01*
X78575771Y-102434285D02*
X78671009Y-102481904D01*
X78671009Y-102481904D02*
X79194819Y-102481904D01*
X79147200Y-103339047D02*
X79194819Y-103243809D01*
X79194819Y-103243809D02*
X79194819Y-103053333D01*
X79194819Y-103053333D02*
X79147200Y-102958095D01*
X79147200Y-102958095D02*
X79051961Y-102910476D01*
X79051961Y-102910476D02*
X78671009Y-102910476D01*
X78671009Y-102910476D02*
X78575771Y-102958095D01*
X78575771Y-102958095D02*
X78528152Y-103053333D01*
X78528152Y-103053333D02*
X78528152Y-103243809D01*
X78528152Y-103243809D02*
X78575771Y-103339047D01*
X78575771Y-103339047D02*
X78671009Y-103386666D01*
X78671009Y-103386666D02*
X78766247Y-103386666D01*
X78766247Y-103386666D02*
X78861485Y-102910476D01*
X79194819Y-103958095D02*
X79147200Y-103862857D01*
X79147200Y-103862857D02*
X79051961Y-103815238D01*
X79051961Y-103815238D02*
X78194819Y-103815238D01*
X79194819Y-105100953D02*
X78194819Y-105100953D01*
X78575771Y-105100953D02*
X78528152Y-105196191D01*
X78528152Y-105196191D02*
X78528152Y-105386667D01*
X78528152Y-105386667D02*
X78575771Y-105481905D01*
X78575771Y-105481905D02*
X78623390Y-105529524D01*
X78623390Y-105529524D02*
X78718628Y-105577143D01*
X78718628Y-105577143D02*
X79004342Y-105577143D01*
X79004342Y-105577143D02*
X79099580Y-105529524D01*
X79099580Y-105529524D02*
X79147200Y-105481905D01*
X79147200Y-105481905D02*
X79194819Y-105386667D01*
X79194819Y-105386667D02*
X79194819Y-105196191D01*
X79194819Y-105196191D02*
X79147200Y-105100953D01*
X78528152Y-105910477D02*
X79194819Y-106148572D01*
X78528152Y-106386667D02*
X79194819Y-106148572D01*
X79194819Y-106148572D02*
X79432914Y-106053334D01*
X79432914Y-106053334D02*
X79480533Y-106005715D01*
X79480533Y-106005715D02*
X79528152Y-105910477D01*
X79099580Y-106767620D02*
X79147200Y-106815239D01*
X79147200Y-106815239D02*
X79194819Y-106767620D01*
X79194819Y-106767620D02*
X79147200Y-106720001D01*
X79147200Y-106720001D02*
X79099580Y-106767620D01*
X79099580Y-106767620D02*
X79194819Y-106767620D01*
X78575771Y-106767620D02*
X78623390Y-106815239D01*
X78623390Y-106815239D02*
X78671009Y-106767620D01*
X78671009Y-106767620D02*
X78623390Y-106720001D01*
X78623390Y-106720001D02*
X78575771Y-106767620D01*
X78575771Y-106767620D02*
X78671009Y-106767620D01*
X78909104Y-107958096D02*
X78909104Y-108434286D01*
X79194819Y-107862858D02*
X78194819Y-108196191D01*
X78194819Y-108196191D02*
X79194819Y-108529524D01*
X78528152Y-108767620D02*
X79194819Y-109005715D01*
X79194819Y-109005715D02*
X78528152Y-109243810D01*
X79194819Y-110053334D02*
X78671009Y-110053334D01*
X78671009Y-110053334D02*
X78575771Y-110005715D01*
X78575771Y-110005715D02*
X78528152Y-109910477D01*
X78528152Y-109910477D02*
X78528152Y-109720001D01*
X78528152Y-109720001D02*
X78575771Y-109624763D01*
X79147200Y-110053334D02*
X79194819Y-109958096D01*
X79194819Y-109958096D02*
X79194819Y-109720001D01*
X79194819Y-109720001D02*
X79147200Y-109624763D01*
X79147200Y-109624763D02*
X79051961Y-109577144D01*
X79051961Y-109577144D02*
X78956723Y-109577144D01*
X78956723Y-109577144D02*
X78861485Y-109624763D01*
X78861485Y-109624763D02*
X78813866Y-109720001D01*
X78813866Y-109720001D02*
X78813866Y-109958096D01*
X78813866Y-109958096D02*
X78766247Y-110053334D01*
X79194819Y-110672382D02*
X79147200Y-110577144D01*
X79147200Y-110577144D02*
X79051961Y-110529525D01*
X79051961Y-110529525D02*
X78194819Y-110529525D01*
X79194819Y-111196192D02*
X79147200Y-111100954D01*
X79147200Y-111100954D02*
X79099580Y-111053335D01*
X79099580Y-111053335D02*
X79004342Y-111005716D01*
X79004342Y-111005716D02*
X78718628Y-111005716D01*
X78718628Y-111005716D02*
X78623390Y-111053335D01*
X78623390Y-111053335D02*
X78575771Y-111100954D01*
X78575771Y-111100954D02*
X78528152Y-111196192D01*
X78528152Y-111196192D02*
X78528152Y-111339049D01*
X78528152Y-111339049D02*
X78575771Y-111434287D01*
X78575771Y-111434287D02*
X78623390Y-111481906D01*
X78623390Y-111481906D02*
X78718628Y-111529525D01*
X78718628Y-111529525D02*
X79004342Y-111529525D01*
X79004342Y-111529525D02*
X79099580Y-111481906D01*
X79099580Y-111481906D02*
X79147200Y-111434287D01*
X79147200Y-111434287D02*
X79194819Y-111339049D01*
X79194819Y-111339049D02*
X79194819Y-111196192D01*
X78528152Y-111958097D02*
X79194819Y-111958097D01*
X78623390Y-111958097D02*
X78575771Y-112005716D01*
X78575771Y-112005716D02*
X78528152Y-112100954D01*
X78528152Y-112100954D02*
X78528152Y-112243811D01*
X78528152Y-112243811D02*
X78575771Y-112339049D01*
X78575771Y-112339049D02*
X78671009Y-112386668D01*
X78671009Y-112386668D02*
X79194819Y-112386668D01*
X79194819Y-113624764D02*
X78194819Y-113624764D01*
X78671009Y-113624764D02*
X78671009Y-114196192D01*
X79194819Y-114196192D02*
X78194819Y-114196192D01*
X79194819Y-115100954D02*
X78671009Y-115100954D01*
X78671009Y-115100954D02*
X78575771Y-115053335D01*
X78575771Y-115053335D02*
X78528152Y-114958097D01*
X78528152Y-114958097D02*
X78528152Y-114767621D01*
X78528152Y-114767621D02*
X78575771Y-114672383D01*
X79147200Y-115100954D02*
X79194819Y-115005716D01*
X79194819Y-115005716D02*
X79194819Y-114767621D01*
X79194819Y-114767621D02*
X79147200Y-114672383D01*
X79147200Y-114672383D02*
X79051961Y-114624764D01*
X79051961Y-114624764D02*
X78956723Y-114624764D01*
X78956723Y-114624764D02*
X78861485Y-114672383D01*
X78861485Y-114672383D02*
X78813866Y-114767621D01*
X78813866Y-114767621D02*
X78813866Y-115005716D01*
X78813866Y-115005716D02*
X78766247Y-115100954D01*
X79194819Y-115577145D02*
X78528152Y-115577145D01*
X78718628Y-115577145D02*
X78623390Y-115624764D01*
X78623390Y-115624764D02*
X78575771Y-115672383D01*
X78575771Y-115672383D02*
X78528152Y-115767621D01*
X78528152Y-115767621D02*
X78528152Y-115862859D01*
X79194819Y-116196193D02*
X78528152Y-116196193D01*
X78623390Y-116196193D02*
X78575771Y-116243812D01*
X78575771Y-116243812D02*
X78528152Y-116339050D01*
X78528152Y-116339050D02*
X78528152Y-116481907D01*
X78528152Y-116481907D02*
X78575771Y-116577145D01*
X78575771Y-116577145D02*
X78671009Y-116624764D01*
X78671009Y-116624764D02*
X79194819Y-116624764D01*
X78671009Y-116624764D02*
X78575771Y-116672383D01*
X78575771Y-116672383D02*
X78528152Y-116767621D01*
X78528152Y-116767621D02*
X78528152Y-116910478D01*
X78528152Y-116910478D02*
X78575771Y-117005717D01*
X78575771Y-117005717D02*
X78671009Y-117053336D01*
X78671009Y-117053336D02*
X79194819Y-117053336D01*
X79194819Y-117672383D02*
X79147200Y-117577145D01*
X79147200Y-117577145D02*
X79099580Y-117529526D01*
X79099580Y-117529526D02*
X79004342Y-117481907D01*
X79004342Y-117481907D02*
X78718628Y-117481907D01*
X78718628Y-117481907D02*
X78623390Y-117529526D01*
X78623390Y-117529526D02*
X78575771Y-117577145D01*
X78575771Y-117577145D02*
X78528152Y-117672383D01*
X78528152Y-117672383D02*
X78528152Y-117815240D01*
X78528152Y-117815240D02*
X78575771Y-117910478D01*
X78575771Y-117910478D02*
X78623390Y-117958097D01*
X78623390Y-117958097D02*
X78718628Y-118005716D01*
X78718628Y-118005716D02*
X79004342Y-118005716D01*
X79004342Y-118005716D02*
X79099580Y-117958097D01*
X79099580Y-117958097D02*
X79147200Y-117910478D01*
X79147200Y-117910478D02*
X79194819Y-117815240D01*
X79194819Y-117815240D02*
X79194819Y-117672383D01*
X78528152Y-118434288D02*
X79194819Y-118434288D01*
X78623390Y-118434288D02*
X78575771Y-118481907D01*
X78575771Y-118481907D02*
X78528152Y-118577145D01*
X78528152Y-118577145D02*
X78528152Y-118720002D01*
X78528152Y-118720002D02*
X78575771Y-118815240D01*
X78575771Y-118815240D02*
X78671009Y-118862859D01*
X78671009Y-118862859D02*
X79194819Y-118862859D01*
X79194819Y-119339050D02*
X78528152Y-119339050D01*
X78194819Y-119339050D02*
X78242438Y-119291431D01*
X78242438Y-119291431D02*
X78290057Y-119339050D01*
X78290057Y-119339050D02*
X78242438Y-119386669D01*
X78242438Y-119386669D02*
X78194819Y-119339050D01*
X78194819Y-119339050D02*
X78290057Y-119339050D01*
X79147200Y-120243811D02*
X79194819Y-120148573D01*
X79194819Y-120148573D02*
X79194819Y-119958097D01*
X79194819Y-119958097D02*
X79147200Y-119862859D01*
X79147200Y-119862859D02*
X79099580Y-119815240D01*
X79099580Y-119815240D02*
X79004342Y-119767621D01*
X79004342Y-119767621D02*
X78718628Y-119767621D01*
X78718628Y-119767621D02*
X78623390Y-119815240D01*
X78623390Y-119815240D02*
X78575771Y-119862859D01*
X78575771Y-119862859D02*
X78528152Y-119958097D01*
X78528152Y-119958097D02*
X78528152Y-120148573D01*
X78528152Y-120148573D02*
X78575771Y-120243811D01*
X79147200Y-120624764D02*
X79194819Y-120720002D01*
X79194819Y-120720002D02*
X79194819Y-120910478D01*
X79194819Y-120910478D02*
X79147200Y-121005716D01*
X79147200Y-121005716D02*
X79051961Y-121053335D01*
X79051961Y-121053335D02*
X79004342Y-121053335D01*
X79004342Y-121053335D02*
X78909104Y-121005716D01*
X78909104Y-121005716D02*
X78861485Y-120910478D01*
X78861485Y-120910478D02*
X78861485Y-120767621D01*
X78861485Y-120767621D02*
X78813866Y-120672383D01*
X78813866Y-120672383D02*
X78718628Y-120624764D01*
X78718628Y-120624764D02*
X78671009Y-120624764D01*
X78671009Y-120624764D02*
X78575771Y-120672383D01*
X78575771Y-120672383D02*
X78528152Y-120767621D01*
X78528152Y-120767621D02*
X78528152Y-120910478D01*
X78528152Y-120910478D02*
X78575771Y-121005716D01*
X75130819Y-100211808D02*
X74130819Y-100211808D01*
X74130819Y-100211808D02*
X74130819Y-100592760D01*
X74130819Y-100592760D02*
X74178438Y-100687998D01*
X74178438Y-100687998D02*
X74226057Y-100735617D01*
X74226057Y-100735617D02*
X74321295Y-100783236D01*
X74321295Y-100783236D02*
X74464152Y-100783236D01*
X74464152Y-100783236D02*
X74559390Y-100735617D01*
X74559390Y-100735617D02*
X74607009Y-100687998D01*
X74607009Y-100687998D02*
X74654628Y-100592760D01*
X74654628Y-100592760D02*
X74654628Y-100211808D01*
X75083200Y-101592760D02*
X75130819Y-101497522D01*
X75130819Y-101497522D02*
X75130819Y-101307046D01*
X75130819Y-101307046D02*
X75083200Y-101211808D01*
X75083200Y-101211808D02*
X74987961Y-101164189D01*
X74987961Y-101164189D02*
X74607009Y-101164189D01*
X74607009Y-101164189D02*
X74511771Y-101211808D01*
X74511771Y-101211808D02*
X74464152Y-101307046D01*
X74464152Y-101307046D02*
X74464152Y-101497522D01*
X74464152Y-101497522D02*
X74511771Y-101592760D01*
X74511771Y-101592760D02*
X74607009Y-101640379D01*
X74607009Y-101640379D02*
X74702247Y-101640379D01*
X74702247Y-101640379D02*
X74797485Y-101164189D01*
X74464152Y-101926094D02*
X74464152Y-102307046D01*
X74130819Y-102068951D02*
X74987961Y-102068951D01*
X74987961Y-102068951D02*
X75083200Y-102116570D01*
X75083200Y-102116570D02*
X75130819Y-102211808D01*
X75130819Y-102211808D02*
X75130819Y-102307046D01*
X75130819Y-103973713D02*
X74654628Y-103640380D01*
X75130819Y-103402285D02*
X74130819Y-103402285D01*
X74130819Y-103402285D02*
X74130819Y-103783237D01*
X74130819Y-103783237D02*
X74178438Y-103878475D01*
X74178438Y-103878475D02*
X74226057Y-103926094D01*
X74226057Y-103926094D02*
X74321295Y-103973713D01*
X74321295Y-103973713D02*
X74464152Y-103973713D01*
X74464152Y-103973713D02*
X74559390Y-103926094D01*
X74559390Y-103926094D02*
X74607009Y-103878475D01*
X74607009Y-103878475D02*
X74654628Y-103783237D01*
X74654628Y-103783237D02*
X74654628Y-103402285D01*
X75130819Y-104545142D02*
X75083200Y-104449904D01*
X75083200Y-104449904D02*
X75035580Y-104402285D01*
X75035580Y-104402285D02*
X74940342Y-104354666D01*
X74940342Y-104354666D02*
X74654628Y-104354666D01*
X74654628Y-104354666D02*
X74559390Y-104402285D01*
X74559390Y-104402285D02*
X74511771Y-104449904D01*
X74511771Y-104449904D02*
X74464152Y-104545142D01*
X74464152Y-104545142D02*
X74464152Y-104687999D01*
X74464152Y-104687999D02*
X74511771Y-104783237D01*
X74511771Y-104783237D02*
X74559390Y-104830856D01*
X74559390Y-104830856D02*
X74654628Y-104878475D01*
X74654628Y-104878475D02*
X74940342Y-104878475D01*
X74940342Y-104878475D02*
X75035580Y-104830856D01*
X75035580Y-104830856D02*
X75083200Y-104783237D01*
X75083200Y-104783237D02*
X75130819Y-104687999D01*
X75130819Y-104687999D02*
X75130819Y-104545142D01*
X75083200Y-105735618D02*
X75130819Y-105640380D01*
X75130819Y-105640380D02*
X75130819Y-105449904D01*
X75130819Y-105449904D02*
X75083200Y-105354666D01*
X75083200Y-105354666D02*
X75035580Y-105307047D01*
X75035580Y-105307047D02*
X74940342Y-105259428D01*
X74940342Y-105259428D02*
X74654628Y-105259428D01*
X74654628Y-105259428D02*
X74559390Y-105307047D01*
X74559390Y-105307047D02*
X74511771Y-105354666D01*
X74511771Y-105354666D02*
X74464152Y-105449904D01*
X74464152Y-105449904D02*
X74464152Y-105640380D01*
X74464152Y-105640380D02*
X74511771Y-105735618D01*
X75130819Y-106164190D02*
X74130819Y-106164190D01*
X74749866Y-106259428D02*
X75130819Y-106545142D01*
X74464152Y-106545142D02*
X74845104Y-106164190D01*
X74845104Y-107688000D02*
X74845104Y-108164190D01*
X75130819Y-107592762D02*
X74130819Y-107926095D01*
X74130819Y-107926095D02*
X75130819Y-108259428D01*
X75130819Y-108735619D02*
X75083200Y-108640381D01*
X75083200Y-108640381D02*
X74987961Y-108592762D01*
X74987961Y-108592762D02*
X74130819Y-108592762D01*
X74464152Y-108973715D02*
X74464152Y-109354667D01*
X74130819Y-109116572D02*
X74987961Y-109116572D01*
X74987961Y-109116572D02*
X75083200Y-109164191D01*
X75083200Y-109164191D02*
X75130819Y-109259429D01*
X75130819Y-109259429D02*
X75130819Y-109354667D01*
X75130819Y-110449906D02*
X74130819Y-110449906D01*
X74130819Y-110449906D02*
X74130819Y-110830858D01*
X74130819Y-110830858D02*
X74178438Y-110926096D01*
X74178438Y-110926096D02*
X74226057Y-110973715D01*
X74226057Y-110973715D02*
X74321295Y-111021334D01*
X74321295Y-111021334D02*
X74464152Y-111021334D01*
X74464152Y-111021334D02*
X74559390Y-110973715D01*
X74559390Y-110973715D02*
X74607009Y-110926096D01*
X74607009Y-110926096D02*
X74654628Y-110830858D01*
X74654628Y-110830858D02*
X74654628Y-110449906D01*
X75130819Y-111878477D02*
X74607009Y-111878477D01*
X74607009Y-111878477D02*
X74511771Y-111830858D01*
X74511771Y-111830858D02*
X74464152Y-111735620D01*
X74464152Y-111735620D02*
X74464152Y-111545144D01*
X74464152Y-111545144D02*
X74511771Y-111449906D01*
X75083200Y-111878477D02*
X75130819Y-111783239D01*
X75130819Y-111783239D02*
X75130819Y-111545144D01*
X75130819Y-111545144D02*
X75083200Y-111449906D01*
X75083200Y-111449906D02*
X74987961Y-111402287D01*
X74987961Y-111402287D02*
X74892723Y-111402287D01*
X74892723Y-111402287D02*
X74797485Y-111449906D01*
X74797485Y-111449906D02*
X74749866Y-111545144D01*
X74749866Y-111545144D02*
X74749866Y-111783239D01*
X74749866Y-111783239D02*
X74702247Y-111878477D01*
X74464152Y-112354668D02*
X75130819Y-112354668D01*
X74559390Y-112354668D02*
X74511771Y-112402287D01*
X74511771Y-112402287D02*
X74464152Y-112497525D01*
X74464152Y-112497525D02*
X74464152Y-112640382D01*
X74464152Y-112640382D02*
X74511771Y-112735620D01*
X74511771Y-112735620D02*
X74607009Y-112783239D01*
X74607009Y-112783239D02*
X75130819Y-112783239D01*
X75083200Y-113640382D02*
X75130819Y-113545144D01*
X75130819Y-113545144D02*
X75130819Y-113354668D01*
X75130819Y-113354668D02*
X75083200Y-113259430D01*
X75083200Y-113259430D02*
X74987961Y-113211811D01*
X74987961Y-113211811D02*
X74607009Y-113211811D01*
X74607009Y-113211811D02*
X74511771Y-113259430D01*
X74511771Y-113259430D02*
X74464152Y-113354668D01*
X74464152Y-113354668D02*
X74464152Y-113545144D01*
X74464152Y-113545144D02*
X74511771Y-113640382D01*
X74511771Y-113640382D02*
X74607009Y-113688001D01*
X74607009Y-113688001D02*
X74702247Y-113688001D01*
X74702247Y-113688001D02*
X74797485Y-113211811D01*
X75130819Y-114259430D02*
X75083200Y-114164192D01*
X75083200Y-114164192D02*
X74987961Y-114116573D01*
X74987961Y-114116573D02*
X74130819Y-114116573D01*
%LPC*%
D11*
G36*
X83588224Y-75793360D02*
G01*
X83953623Y-75883073D01*
X84294286Y-76028472D01*
X84604744Y-76226186D01*
X84879530Y-76472842D01*
X85113174Y-76765067D01*
X85270825Y-77037547D01*
X85381209Y-77286209D01*
X85453751Y-77515727D01*
X85494326Y-77751561D01*
X85508809Y-78019175D01*
X85509099Y-78070330D01*
X85498517Y-78345986D01*
X85462853Y-78585479D01*
X85396235Y-78814270D01*
X85292787Y-79057820D01*
X85270825Y-79103113D01*
X85074577Y-79430708D01*
X84830594Y-79717092D01*
X84543955Y-79958167D01*
X84219736Y-80149835D01*
X83863017Y-80288000D01*
X83771267Y-80313217D01*
X83494212Y-80361359D01*
X83190388Y-80376786D01*
X82887613Y-80359527D01*
X82622618Y-80311942D01*
X82258659Y-80186051D01*
X81928518Y-80006491D01*
X81635458Y-79776451D01*
X81382743Y-79499123D01*
X81173636Y-79177695D01*
X81011400Y-78815358D01*
X80972167Y-78698545D01*
X80919168Y-78458693D01*
X80894018Y-78184842D01*
X80896716Y-77901223D01*
X80927264Y-77632068D01*
X80972167Y-77442116D01*
X81119390Y-77068650D01*
X81313586Y-76735832D01*
X81550712Y-76446706D01*
X81826725Y-76204314D01*
X82137582Y-76011700D01*
X82479241Y-75871905D01*
X82847657Y-75787972D01*
X83203558Y-75762706D01*
X83588224Y-75793360D01*
G37*
G36*
X83157720Y-84308644D02*
G01*
X83404601Y-84334015D01*
X83593866Y-84372221D01*
X84006918Y-84516886D01*
X84382331Y-84713275D01*
X84717611Y-84958967D01*
X85010263Y-85251544D01*
X85257792Y-85588585D01*
X85457703Y-85967673D01*
X85581898Y-86300317D01*
X85672554Y-86590788D01*
X85672554Y-106003875D01*
X85672554Y-125416963D01*
X85583505Y-125700868D01*
X85422954Y-126113588D01*
X85214182Y-126485557D01*
X84959758Y-126814280D01*
X84662254Y-127097262D01*
X84324241Y-127332005D01*
X83948289Y-127516015D01*
X83593866Y-127632496D01*
X83370011Y-127676019D01*
X83109320Y-127702923D01*
X82836513Y-127712331D01*
X82576311Y-127703368D01*
X82359080Y-127676242D01*
X81943099Y-127566039D01*
X81559255Y-127400970D01*
X81210584Y-127183784D01*
X80900124Y-126917233D01*
X80630912Y-126604068D01*
X80405984Y-126247038D01*
X80228377Y-125848895D01*
X80178122Y-125700868D01*
X80089073Y-125416963D01*
X80089073Y-106003875D01*
X80089073Y-86590788D01*
X80179953Y-86300317D01*
X80338574Y-85895569D01*
X80548084Y-85527013D01*
X80804679Y-85198356D01*
X81104553Y-84913308D01*
X81443902Y-84675576D01*
X81818923Y-84488871D01*
X82154638Y-84375292D01*
X82366129Y-84333498D01*
X82617678Y-84308430D01*
X82888477Y-84300130D01*
X83157720Y-84308644D01*
G37*
G36*
X83473255Y-137628514D02*
G01*
X83704756Y-137659587D01*
X83922421Y-137717793D01*
X84150611Y-137808743D01*
X84267709Y-137864045D01*
X84406228Y-137937371D01*
X84526941Y-138015916D01*
X84647674Y-138113084D01*
X84786256Y-138242280D01*
X84836218Y-138291516D01*
X84972582Y-138431108D01*
X85073792Y-138546948D01*
X85153537Y-138657482D01*
X85225511Y-138781155D01*
X85281609Y-138891550D01*
X85352466Y-139049365D01*
X85416649Y-139215861D01*
X85464446Y-139364849D01*
X85479058Y-139424079D01*
X85514695Y-139682264D01*
X85523940Y-139967519D01*
X85506791Y-140248007D01*
X85479058Y-140424587D01*
X85425042Y-140611571D01*
X85339659Y-140824923D01*
X85233795Y-141042212D01*
X85118335Y-141241004D01*
X85009234Y-141392821D01*
X84762859Y-141644476D01*
X84474835Y-141862763D01*
X84160621Y-142037752D01*
X83835681Y-142159512D01*
X83800635Y-142169049D01*
X83672248Y-142194019D01*
X83505672Y-142214491D01*
X83322078Y-142229105D01*
X83142635Y-142236500D01*
X82988514Y-142235313D01*
X82896951Y-142227156D01*
X82519002Y-142135744D01*
X82167944Y-141989442D01*
X81848922Y-141792841D01*
X81567082Y-141550530D01*
X81327570Y-141267100D01*
X81135531Y-140947142D01*
X80996111Y-140595246D01*
X80971931Y-140509905D01*
X80926291Y-140262769D01*
X80906525Y-139984661D01*
X80912984Y-139703256D01*
X80946016Y-139446229D01*
X80957804Y-139391804D01*
X81058209Y-139082506D01*
X81206825Y-138779947D01*
X81394077Y-138498711D01*
X81610391Y-138253380D01*
X81822281Y-138075140D01*
X82120015Y-137885805D01*
X82407746Y-137750908D01*
X82700630Y-137665443D01*
X83013823Y-137624405D01*
X83203558Y-137618963D01*
X83473255Y-137628514D01*
G37*
G36*
X86205083Y-51555798D02*
G01*
X86205083Y-59141359D01*
X81291296Y-59137898D01*
X80601725Y-59137310D01*
X79973806Y-59136545D01*
X79404642Y-59135577D01*
X78891336Y-59134381D01*
X78430991Y-59132929D01*
X78020710Y-59131195D01*
X77657597Y-59129155D01*
X77338755Y-59126782D01*
X77061286Y-59124049D01*
X76822294Y-59120931D01*
X76618882Y-59117402D01*
X76448153Y-59113436D01*
X76307211Y-59109006D01*
X76193158Y-59104087D01*
X76103097Y-59098653D01*
X76034131Y-59092677D01*
X76014673Y-59090481D01*
X75347846Y-58977655D01*
X74692660Y-58803638D01*
X74054411Y-58571293D01*
X73438394Y-58283485D01*
X72849907Y-57943079D01*
X72294245Y-57552940D01*
X71776704Y-57115932D01*
X71302581Y-56634919D01*
X71149928Y-56459144D01*
X70722011Y-55900691D01*
X70350485Y-55312569D01*
X70036450Y-54697963D01*
X69781003Y-54060055D01*
X69585244Y-53402027D01*
X69450271Y-52727062D01*
X69377183Y-52038343D01*
X69367078Y-51339052D01*
X69368432Y-51298666D01*
X69420737Y-50614841D01*
X69528299Y-49959729D01*
X69693042Y-49325682D01*
X69916890Y-48705052D01*
X70149793Y-48192946D01*
X70490996Y-47577055D01*
X70879936Y-47003745D01*
X71314598Y-46474471D01*
X71792968Y-45990688D01*
X72313030Y-45553853D01*
X72872770Y-45165421D01*
X73470172Y-44826847D01*
X74103220Y-44539588D01*
X74769901Y-44305099D01*
X75468199Y-44124835D01*
X75891930Y-44044877D01*
X75940557Y-44037719D01*
X75997162Y-44031196D01*
X76064892Y-44025271D01*
X76146895Y-44019906D01*
X76246318Y-44015064D01*
X76366310Y-44010706D01*
X76510018Y-44006795D01*
X76680590Y-44003293D01*
X76881173Y-44000162D01*
X77114916Y-43997364D01*
X77384965Y-43994862D01*
X77694469Y-43992617D01*
X78046575Y-43990592D01*
X78444430Y-43988750D01*
X78891184Y-43987051D01*
X79389983Y-43985459D01*
X79943974Y-43983935D01*
X80556307Y-43982443D01*
X81210610Y-43980985D01*
X86205083Y-43970236D01*
X86205083Y-51555798D01*
G37*
G36*
X70551988Y-92111063D02*
G01*
X70712589Y-92115940D01*
X70839300Y-92125844D01*
X70947435Y-92142226D01*
X71052304Y-92166539D01*
X71109848Y-92182573D01*
X71505084Y-92329513D01*
X71868805Y-92529835D01*
X72196336Y-92778731D01*
X72483002Y-93071390D01*
X72724127Y-93403003D01*
X72915037Y-93768759D01*
X73051057Y-94163850D01*
X73056625Y-94185441D01*
X73133926Y-94490170D01*
X73133926Y-110705308D01*
X73133953Y-111938760D01*
X73134018Y-113109340D01*
X73134103Y-114218727D01*
X73134187Y-115268599D01*
X73134250Y-116260633D01*
X73134273Y-117196507D01*
X73134236Y-118077899D01*
X73134118Y-118906487D01*
X73133899Y-119683948D01*
X73133561Y-120411961D01*
X73133082Y-121092203D01*
X73132443Y-121726351D01*
X73131625Y-122316085D01*
X73130606Y-122863080D01*
X73129367Y-123369017D01*
X73127889Y-123835571D01*
X73126150Y-124264421D01*
X73124132Y-124657245D01*
X73121815Y-125015721D01*
X73119178Y-125341525D01*
X73116201Y-125636337D01*
X73112865Y-125901834D01*
X73109150Y-126139694D01*
X73105035Y-126351594D01*
X73100501Y-126539212D01*
X73095528Y-126704227D01*
X73090096Y-126848316D01*
X73084186Y-126973156D01*
X73077776Y-127080426D01*
X73070847Y-127171803D01*
X73063380Y-127248965D01*
X73055353Y-127313590D01*
X73046749Y-127367356D01*
X73037545Y-127411941D01*
X73027723Y-127449022D01*
X73017263Y-127480277D01*
X73006145Y-127507384D01*
X72994348Y-127532021D01*
X72981853Y-127555865D01*
X72968639Y-127580595D01*
X72954688Y-127607887D01*
X72939979Y-127639421D01*
X72932569Y-127656734D01*
X72783866Y-127950843D01*
X72587442Y-128242268D01*
X72356222Y-128515822D01*
X72103128Y-128756317D01*
X71841085Y-128948563D01*
X71824931Y-128958492D01*
X71457468Y-129144604D01*
X71063023Y-129275373D01*
X70650290Y-129349253D01*
X70227958Y-129364698D01*
X69804719Y-129320163D01*
X69798178Y-129318989D01*
X69402078Y-129215242D01*
X69029549Y-129051442D01*
X68680875Y-128827734D01*
X68412701Y-128599444D01*
X68122879Y-128281236D01*
X67890292Y-127935838D01*
X67716340Y-127565720D01*
X67602425Y-127173351D01*
X67601571Y-127169213D01*
X67597696Y-127146278D01*
X67594019Y-127115061D01*
X67590536Y-127073904D01*
X67587242Y-127021145D01*
X67584131Y-126955125D01*
X67581197Y-126874184D01*
X67578437Y-126776662D01*
X67575845Y-126660898D01*
X67573415Y-126525234D01*
X67571143Y-126368009D01*
X67569023Y-126187562D01*
X67567050Y-125982235D01*
X67565219Y-125750367D01*
X67563525Y-125490297D01*
X67561963Y-125200367D01*
X67560528Y-124878916D01*
X67559214Y-124524284D01*
X67558016Y-124134811D01*
X67556929Y-123708838D01*
X67555948Y-123244703D01*
X67555068Y-122740748D01*
X67554284Y-122195312D01*
X67553590Y-121606735D01*
X67552982Y-120973357D01*
X67552453Y-120293519D01*
X67552000Y-119565560D01*
X67551616Y-118787820D01*
X67551298Y-117958639D01*
X67551038Y-117076358D01*
X67550833Y-116139317D01*
X67550678Y-115145854D01*
X67550566Y-114094311D01*
X67550494Y-112983028D01*
X67550455Y-111810344D01*
X67550445Y-110705308D01*
X67550445Y-94490170D01*
X67628944Y-94180716D01*
X67761597Y-93785617D01*
X67949477Y-93419314D01*
X68187874Y-93086644D01*
X68472076Y-92792446D01*
X68797374Y-92541559D01*
X69159056Y-92338821D01*
X69552410Y-92189072D01*
X69574328Y-92182626D01*
X69683518Y-92153660D01*
X69788063Y-92133375D01*
X69903279Y-92120318D01*
X70044482Y-92113036D01*
X70226990Y-92110075D01*
X70342186Y-92109760D01*
X70551988Y-92111063D01*
G37*
D12*
X73700000Y-40350000D03*
X73700000Y-162850000D03*
%LPD*%
M02*
