G04 #@! TF.GenerationSoftware,KiCad,Pcbnew,8.0.2*
G04 #@! TF.CreationDate,2024-05-01T23:13:20+02:00*
G04 #@! TF.ProjectId,PetRockPanel,50657452-6f63-46b5-9061-6e656c2e6b69,rev?*
G04 #@! TF.SameCoordinates,Original*
G04 #@! TF.FileFunction,Soldermask,Bot*
G04 #@! TF.FilePolarity,Negative*
%FSLAX46Y46*%
G04 Gerber Fmt 4.6, Leading zero omitted, Abs format (unit mm)*
G04 Created by KiCad (PCBNEW 8.0.2) date 2024-05-01 23:13:20*
%MOMM*%
%LPD*%
G01*
G04 APERTURE LIST*
%ADD10C,0.000000*%
%ADD11C,4.000000*%
G04 APERTURE END LIST*
D10*
G36*
X83588224Y-75793360D02*
G01*
X83953623Y-75883073D01*
X84294286Y-76028472D01*
X84604744Y-76226186D01*
X84879530Y-76472842D01*
X85113174Y-76765067D01*
X85270825Y-77037547D01*
X85381209Y-77286209D01*
X85453751Y-77515727D01*
X85494326Y-77751561D01*
X85508809Y-78019175D01*
X85509099Y-78070330D01*
X85498517Y-78345986D01*
X85462853Y-78585479D01*
X85396235Y-78814270D01*
X85292787Y-79057820D01*
X85270825Y-79103113D01*
X85074577Y-79430708D01*
X84830594Y-79717092D01*
X84543955Y-79958167D01*
X84219736Y-80149835D01*
X83863017Y-80288000D01*
X83771267Y-80313217D01*
X83494212Y-80361359D01*
X83190388Y-80376786D01*
X82887613Y-80359527D01*
X82622618Y-80311942D01*
X82258659Y-80186051D01*
X81928518Y-80006491D01*
X81635458Y-79776451D01*
X81382743Y-79499123D01*
X81173636Y-79177695D01*
X81011400Y-78815358D01*
X80972167Y-78698545D01*
X80919168Y-78458693D01*
X80894018Y-78184842D01*
X80896716Y-77901223D01*
X80927264Y-77632068D01*
X80972167Y-77442116D01*
X81119390Y-77068650D01*
X81313586Y-76735832D01*
X81550712Y-76446706D01*
X81826725Y-76204314D01*
X82137582Y-76011700D01*
X82479241Y-75871905D01*
X82847657Y-75787972D01*
X83203558Y-75762706D01*
X83588224Y-75793360D01*
G37*
G36*
X83157720Y-84308644D02*
G01*
X83404601Y-84334015D01*
X83593866Y-84372221D01*
X84006918Y-84516886D01*
X84382331Y-84713275D01*
X84717611Y-84958967D01*
X85010263Y-85251544D01*
X85257792Y-85588585D01*
X85457703Y-85967673D01*
X85581898Y-86300317D01*
X85672554Y-86590788D01*
X85672554Y-106003875D01*
X85672554Y-125416963D01*
X85583505Y-125700868D01*
X85422954Y-126113588D01*
X85214182Y-126485557D01*
X84959758Y-126814280D01*
X84662254Y-127097262D01*
X84324241Y-127332005D01*
X83948289Y-127516015D01*
X83593866Y-127632496D01*
X83370011Y-127676019D01*
X83109320Y-127702923D01*
X82836513Y-127712331D01*
X82576311Y-127703368D01*
X82359080Y-127676242D01*
X81943099Y-127566039D01*
X81559255Y-127400970D01*
X81210584Y-127183784D01*
X80900124Y-126917233D01*
X80630912Y-126604068D01*
X80405984Y-126247038D01*
X80228377Y-125848895D01*
X80178122Y-125700868D01*
X80089073Y-125416963D01*
X80089073Y-106003875D01*
X80089073Y-86590788D01*
X80179953Y-86300317D01*
X80338574Y-85895569D01*
X80548084Y-85527013D01*
X80804679Y-85198356D01*
X81104553Y-84913308D01*
X81443902Y-84675576D01*
X81818923Y-84488871D01*
X82154638Y-84375292D01*
X82366129Y-84333498D01*
X82617678Y-84308430D01*
X82888477Y-84300130D01*
X83157720Y-84308644D01*
G37*
G36*
X83473255Y-137628514D02*
G01*
X83704756Y-137659587D01*
X83922421Y-137717793D01*
X84150611Y-137808743D01*
X84267709Y-137864045D01*
X84406228Y-137937371D01*
X84526941Y-138015916D01*
X84647674Y-138113084D01*
X84786256Y-138242280D01*
X84836218Y-138291516D01*
X84972582Y-138431108D01*
X85073792Y-138546948D01*
X85153537Y-138657482D01*
X85225511Y-138781155D01*
X85281609Y-138891550D01*
X85352466Y-139049365D01*
X85416649Y-139215861D01*
X85464446Y-139364849D01*
X85479058Y-139424079D01*
X85514695Y-139682264D01*
X85523940Y-139967519D01*
X85506791Y-140248007D01*
X85479058Y-140424587D01*
X85425042Y-140611571D01*
X85339659Y-140824923D01*
X85233795Y-141042212D01*
X85118335Y-141241004D01*
X85009234Y-141392821D01*
X84762859Y-141644476D01*
X84474835Y-141862763D01*
X84160621Y-142037752D01*
X83835681Y-142159512D01*
X83800635Y-142169049D01*
X83672248Y-142194019D01*
X83505672Y-142214491D01*
X83322078Y-142229105D01*
X83142635Y-142236500D01*
X82988514Y-142235313D01*
X82896951Y-142227156D01*
X82519002Y-142135744D01*
X82167944Y-141989442D01*
X81848922Y-141792841D01*
X81567082Y-141550530D01*
X81327570Y-141267100D01*
X81135531Y-140947142D01*
X80996111Y-140595246D01*
X80971931Y-140509905D01*
X80926291Y-140262769D01*
X80906525Y-139984661D01*
X80912984Y-139703256D01*
X80946016Y-139446229D01*
X80957804Y-139391804D01*
X81058209Y-139082506D01*
X81206825Y-138779947D01*
X81394077Y-138498711D01*
X81610391Y-138253380D01*
X81822281Y-138075140D01*
X82120015Y-137885805D01*
X82407746Y-137750908D01*
X82700630Y-137665443D01*
X83013823Y-137624405D01*
X83203558Y-137618963D01*
X83473255Y-137628514D01*
G37*
G36*
X86205083Y-51555798D02*
G01*
X86205083Y-59141359D01*
X81291296Y-59137898D01*
X80601725Y-59137310D01*
X79973806Y-59136545D01*
X79404642Y-59135577D01*
X78891336Y-59134381D01*
X78430991Y-59132929D01*
X78020710Y-59131195D01*
X77657597Y-59129155D01*
X77338755Y-59126782D01*
X77061286Y-59124049D01*
X76822294Y-59120931D01*
X76618882Y-59117402D01*
X76448153Y-59113436D01*
X76307211Y-59109006D01*
X76193158Y-59104087D01*
X76103097Y-59098653D01*
X76034131Y-59092677D01*
X76014673Y-59090481D01*
X75347846Y-58977655D01*
X74692660Y-58803638D01*
X74054411Y-58571293D01*
X73438394Y-58283485D01*
X72849907Y-57943079D01*
X72294245Y-57552940D01*
X71776704Y-57115932D01*
X71302581Y-56634919D01*
X71149928Y-56459144D01*
X70722011Y-55900691D01*
X70350485Y-55312569D01*
X70036450Y-54697963D01*
X69781003Y-54060055D01*
X69585244Y-53402027D01*
X69450271Y-52727062D01*
X69377183Y-52038343D01*
X69367078Y-51339052D01*
X69368432Y-51298666D01*
X69420737Y-50614841D01*
X69528299Y-49959729D01*
X69693042Y-49325682D01*
X69916890Y-48705052D01*
X70149793Y-48192946D01*
X70490996Y-47577055D01*
X70879936Y-47003745D01*
X71314598Y-46474471D01*
X71792968Y-45990688D01*
X72313030Y-45553853D01*
X72872770Y-45165421D01*
X73470172Y-44826847D01*
X74103220Y-44539588D01*
X74769901Y-44305099D01*
X75468199Y-44124835D01*
X75891930Y-44044877D01*
X75940557Y-44037719D01*
X75997162Y-44031196D01*
X76064892Y-44025271D01*
X76146895Y-44019906D01*
X76246318Y-44015064D01*
X76366310Y-44010706D01*
X76510018Y-44006795D01*
X76680590Y-44003293D01*
X76881173Y-44000162D01*
X77114916Y-43997364D01*
X77384965Y-43994862D01*
X77694469Y-43992617D01*
X78046575Y-43990592D01*
X78444430Y-43988750D01*
X78891184Y-43987051D01*
X79389983Y-43985459D01*
X79943974Y-43983935D01*
X80556307Y-43982443D01*
X81210610Y-43980985D01*
X86205083Y-43970236D01*
X86205083Y-51555798D01*
G37*
G36*
X70551988Y-92111063D02*
G01*
X70712589Y-92115940D01*
X70839300Y-92125844D01*
X70947435Y-92142226D01*
X71052304Y-92166539D01*
X71109848Y-92182573D01*
X71505084Y-92329513D01*
X71868805Y-92529835D01*
X72196336Y-92778731D01*
X72483002Y-93071390D01*
X72724127Y-93403003D01*
X72915037Y-93768759D01*
X73051057Y-94163850D01*
X73056625Y-94185441D01*
X73133926Y-94490170D01*
X73133926Y-110705308D01*
X73133953Y-111938760D01*
X73134018Y-113109340D01*
X73134103Y-114218727D01*
X73134187Y-115268599D01*
X73134250Y-116260633D01*
X73134273Y-117196507D01*
X73134236Y-118077899D01*
X73134118Y-118906487D01*
X73133899Y-119683948D01*
X73133561Y-120411961D01*
X73133082Y-121092203D01*
X73132443Y-121726351D01*
X73131625Y-122316085D01*
X73130606Y-122863080D01*
X73129367Y-123369017D01*
X73127889Y-123835571D01*
X73126150Y-124264421D01*
X73124132Y-124657245D01*
X73121815Y-125015721D01*
X73119178Y-125341525D01*
X73116201Y-125636337D01*
X73112865Y-125901834D01*
X73109150Y-126139694D01*
X73105035Y-126351594D01*
X73100501Y-126539212D01*
X73095528Y-126704227D01*
X73090096Y-126848316D01*
X73084186Y-126973156D01*
X73077776Y-127080426D01*
X73070847Y-127171803D01*
X73063380Y-127248965D01*
X73055353Y-127313590D01*
X73046749Y-127367356D01*
X73037545Y-127411941D01*
X73027723Y-127449022D01*
X73017263Y-127480277D01*
X73006145Y-127507384D01*
X72994348Y-127532021D01*
X72981853Y-127555865D01*
X72968639Y-127580595D01*
X72954688Y-127607887D01*
X72939979Y-127639421D01*
X72932569Y-127656734D01*
X72783866Y-127950843D01*
X72587442Y-128242268D01*
X72356222Y-128515822D01*
X72103128Y-128756317D01*
X71841085Y-128948563D01*
X71824931Y-128958492D01*
X71457468Y-129144604D01*
X71063023Y-129275373D01*
X70650290Y-129349253D01*
X70227958Y-129364698D01*
X69804719Y-129320163D01*
X69798178Y-129318989D01*
X69402078Y-129215242D01*
X69029549Y-129051442D01*
X68680875Y-128827734D01*
X68412701Y-128599444D01*
X68122879Y-128281236D01*
X67890292Y-127935838D01*
X67716340Y-127565720D01*
X67602425Y-127173351D01*
X67601571Y-127169213D01*
X67597696Y-127146278D01*
X67594019Y-127115061D01*
X67590536Y-127073904D01*
X67587242Y-127021145D01*
X67584131Y-126955125D01*
X67581197Y-126874184D01*
X67578437Y-126776662D01*
X67575845Y-126660898D01*
X67573415Y-126525234D01*
X67571143Y-126368009D01*
X67569023Y-126187562D01*
X67567050Y-125982235D01*
X67565219Y-125750367D01*
X67563525Y-125490297D01*
X67561963Y-125200367D01*
X67560528Y-124878916D01*
X67559214Y-124524284D01*
X67558016Y-124134811D01*
X67556929Y-123708838D01*
X67555948Y-123244703D01*
X67555068Y-122740748D01*
X67554284Y-122195312D01*
X67553590Y-121606735D01*
X67552982Y-120973357D01*
X67552453Y-120293519D01*
X67552000Y-119565560D01*
X67551616Y-118787820D01*
X67551298Y-117958639D01*
X67551038Y-117076358D01*
X67550833Y-116139317D01*
X67550678Y-115145854D01*
X67550566Y-114094311D01*
X67550494Y-112983028D01*
X67550455Y-111810344D01*
X67550445Y-110705308D01*
X67550445Y-94490170D01*
X67628944Y-94180716D01*
X67761597Y-93785617D01*
X67949477Y-93419314D01*
X68187874Y-93086644D01*
X68472076Y-92792446D01*
X68797374Y-92541559D01*
X69159056Y-92338821D01*
X69552410Y-92189072D01*
X69574328Y-92182626D01*
X69683518Y-92153660D01*
X69788063Y-92133375D01*
X69903279Y-92120318D01*
X70044482Y-92113036D01*
X70226990Y-92110075D01*
X70342186Y-92109760D01*
X70551988Y-92111063D01*
G37*
D11*
X73700000Y-40350000D03*
X73700000Y-162850000D03*
M02*
